<svg width="3173" height="2275" viewBox="0 0 3173 2275" fill="none" xmlns="http://www.w3.org/2000/svg">
<path d="M2674.57 1293.91V1258.21L2723.73 1247.72V1205.73L2687.98 1121.75L2804.19 1174.24L2795.25 1205.73V1237.22C2842.19 1221.12 2987.25 1193.91 3094.74 1237.22C3128.17 1250.69 3172.96 1277.11 3172.96 1277.11C3172.96 1277.11 3128.17 1305.63 3094.74 1319.1C2987.25 1362.41 2842.19 1335.2 2795.25 1319.1V1350.59L2804.19 1379.98L2687.98 1434.57L2723.73 1344.29V1304.4L2674.57 1293.91Z" fill="#253659"/>
<path fill-rule="evenodd" clip-rule="evenodd" d="M1336.23 2.79218L1337.14 0.625H1960.11L2352.42 1245.6C2184.89 1217.42 2027.36 1183.16 1882.03 1143.98L1626.86 332.343L1366.31 961.621C1224.42 895.784 1108.43 824.195 1023.23 749.44L1333.06 10.3434C1339.27 7.79634 1345.55 5.25659 1351.89 2.7243C1346.66 2.7243 1341.44 2.74697 1336.23 2.79218ZM536.484 1910.55L383.971 2274.36H822.762L899.99 2087.85C761.146 2036.83 640.321 1977.03 536.484 1910.55ZM1955.15 1376.58L2237.4 2274.36H2676.6L2369.01 1298.23C2209.27 1318.86 2071.59 1345.38 1955.15 1376.58Z" fill="#03A696"/>
<path d="M1304.48 0.625C221.213 433.118 1097.92 1084.87 2563.29 1277.11C488.284 1338.8 1007.5 1971.59 2237.24 2274.36C-795.642 2274.36 -368.805 0.625 1304.48 0.625Z" fill="#253659"/>
<path d="M1325.8 0.625L383.971 2274.36H822.762L1626.86 332.343L1403.15 0.625H1325.8Z" fill="#03A696"/>
</svg>
