<svg width="162" height="126" viewBox="0 0 162 126" fill="none" xmlns="http://www.w3.org/2000/svg">
<path d="M32.2678 123.745C32.2678 123.745 22.9529 124.387 23.1146 112.743C23.1146 112.743 23.4866 103.023 26.8544 94.2622C26.8544 94.2622 28.7847 89.8838 25.1658 82.1915C25.1658 82.1915 11.7764 59.6518 16.6598 49.7178C16.6598 49.7178 40.0039 5.38743 74.0259 3.57185C74.0259 3.57185 112.753 -1.55568 134.464 7.41704C134.464 7.41704 149.665 11.2622 139.532 32.7336C139.532 32.7336 124.818 54.2051 134.102 67.1835C134.102 67.1835 156.179 95.5574 126.864 123.752L32.2678 123.745Z" fill="#F2668B"/>
<path opacity="0.7" d="M32.2678 123.745C32.2678 123.745 22.9529 124.387 23.1146 112.743C23.1146 112.743 23.4866 103.023 26.8544 94.2622C26.8544 94.2622 28.7847 89.8838 25.1658 82.1915C25.1658 82.1915 11.7764 59.6518 16.6598 49.7178C16.6598 49.7178 40.0039 5.38743 74.0259 3.57185C74.0259 3.57185 112.753 -1.55568 134.464 7.41704C134.464 7.41704 149.665 11.2622 139.532 32.7336C139.532 32.7336 124.818 54.2051 134.102 67.1835C134.102 67.1835 156.179 95.5574 126.864 123.752L32.2678 123.745Z" fill="white"/>
<path d="M71.4598 25.5303H18.2351V58.2845H71.4598V25.5303Z" fill="white"/>
<path d="M69.0478 67.7207H32.4724V121.219H69.0478V67.7207Z" fill="white"/>
<path d="M69.1835 121.356H32.3367V67.5859H69.1835V121.356ZM32.6082 121.085H68.9102V67.8572H32.6082V121.085Z" fill="#2F2E41"/>
<path d="M96.1316 101.149C96.0591 105.306 94.9377 115.623 94.9377 115.623L90.8967 115.697C90.8967 115.697 90.8186 114.716 90.6754 113.173C90.2254 108.304 89.1338 97.8255 87.8302 94.8383C87.8302 94.8383 87.0045 92.4637 86.5582 87.7125L86.1063 81.3303L85.7344 91.6481C85.7344 91.6481 84.6762 104.392 82.8352 108.049C82.7858 108.147 82.7116 108.23 82.6199 108.29C82.5283 108.35 82.4223 108.385 82.3126 108.392C81.7083 108.437 80.453 108.392 79.5232 107.531C79.5232 107.531 79.5232 106.813 79.5232 105.649C79.5232 101.036 79.4972 89.3565 79.3763 87.3417C79.3763 87.3417 77.5073 73.092 78.4018 66.8611L79.0025 66.6396L94.9396 68.1489L95.2501 68.1785C95.2501 68.1785 96.1316 69.1601 95.9828 81.8543C95.9828 81.8543 95.9828 91.1315 96.206 93.2847C96.4292 95.438 96.206 96.9915 96.1316 101.149Z" fill="#2F2E41"/>
<path opacity="0.2" d="M96.1315 101.149C96.0589 105.306 94.9376 115.623 94.9376 115.623L90.8966 115.697C90.8966 115.697 90.8185 114.716 90.6753 113.173C92.8604 113.144 93.6656 111.911 93.6656 111.911C94.7814 109.758 94.5638 98.0322 94.5638 98.0322C93.2918 95.8052 94.4857 95.1373 94.4857 95.1373C95.6015 94.0302 94.7107 92.4637 94.7107 92.4637C93.1412 90.757 94.4857 87.4912 94.4857 87.4912C96.5071 81.6274 94.6363 68.4866 94.6363 68.4866L94.9394 68.1416L95.25 68.1711C95.25 68.1711 96.1315 69.1527 95.9827 81.847C95.9827 81.847 95.9827 91.1242 96.2059 93.2774C96.429 95.4306 96.2058 96.9916 96.1315 101.149Z" fill="black"/>
<path d="M107.317 48.1575C105.978 47.5209 101.848 51.6631 101.848 51.6631L97.1283 44.5337C96.1074 43.2034 92.1389 42.8288 92.1389 42.8288L85.5967 42.7236C84.7915 42.7365 81.0276 43.5447 81.0276 43.5447C77.8662 44.185 76.6853 52.0598 76.6853 52.0598L75.1827 60.5731C74.2697 65.256 77.2283 65.0955 77.2283 65.0955L78.1098 65.9331L78.4074 66.2154C80.1238 69.9407 87.2053 70.4186 87.2053 70.4186C91.8172 71.3227 95.2501 68.1842 95.2501 68.1842C94.7127 66.959 95.1422 65.5235 95.1422 65.5235C95.8396 63.2873 96.4291 58.2317 96.4291 58.2317C101.738 62.5972 104.957 57.8055 104.957 57.8055L110.001 49.9306C108.017 50.0819 107.317 48.1575 107.317 48.1575ZM79.9806 54.0784H79.3037C79.3037 54.0784 79.4543 53.0691 79.9806 52.6207V54.0784Z" fill="#F2668B"/>
<path opacity="0.2" d="M86.1063 81.3304L85.7344 91.6482C85.7344 91.6482 84.6762 104.392 82.8352 108.049C82.7858 108.147 82.7116 108.23 82.6199 108.29C82.5283 108.35 82.4223 108.385 82.3126 108.392C81.7083 108.437 80.453 108.392 79.5232 107.531C79.5232 107.531 79.5232 106.813 79.5232 105.649C80.3321 104.992 82.4689 102.713 82.891 96.8421C82.7931 96.4091 82.7892 95.9604 82.8796 95.5259C82.97 95.0913 83.1527 94.6808 83.4154 94.3217C83.4154 94.3217 84.2374 93.7257 83.4154 92.6131C83.4154 92.6131 82.1657 92.3733 83.6014 90.399C83.6014 90.399 85.5503 79.2583 85.8627 74.8467C85.8627 74.8467 86.3443 79.2233 86.1063 81.3304Z" fill="black"/>
<path d="M90.8966 115.697C90.8966 115.697 90.7683 117.302 90.2532 118.129C90.2532 118.129 85.8495 122.773 87.9119 122.891C87.9119 122.891 89.6172 123.876 92.8325 120.688L94.4485 119.051C94.7099 118.787 94.8607 118.434 94.8707 118.064L94.9376 115.623L90.8966 115.697Z" fill="#F2668B"/>
<path d="M79.5269 107.53C79.5269 107.53 77.8011 109.291 76.399 109.207C76.399 109.207 70.0204 109.966 71.2961 111.316C71.2961 111.316 76.2502 113.032 81.5836 110.613C81.7762 110.526 81.9408 110.387 82.0592 110.212C82.1776 110.038 82.2453 109.835 82.255 109.624L82.3108 108.392C82.3108 108.392 80.6985 108.554 79.5269 107.53Z" fill="#F2668B"/>
<path d="M107.317 48.1571C107.317 48.1571 106.899 45.1883 108.247 44.0111L111.206 41.5885C111.264 41.5411 111.337 41.5145 111.412 41.5128C111.488 41.5111 111.562 41.5345 111.622 41.5793C111.692 41.6321 111.738 41.7097 111.752 41.7958C111.765 41.8818 111.744 41.9696 111.693 42.0406L110.185 44.1292C110.185 44.1292 111.053 44.2067 111.133 44.9909C111.133 44.9909 111.646 44.8341 112.043 45.5444C112.043 45.5444 112.913 45.4263 113.071 46.4467L113.09 46.8415C113.106 46.9957 113.075 47.1511 113.001 47.2875C112.927 47.424 112.813 47.5353 112.675 47.6069C112.536 47.6785 112.379 47.7071 112.224 47.6891C112.069 47.6711 111.923 47.6072 111.805 47.5058C111.805 47.5058 111.961 49.4265 110.004 49.9173C110.001 49.921 108.132 50.1867 107.317 48.1571Z" fill="#F9B499"/>
<path d="M108.085 45.5484C108.293 45.2827 108.509 45.0225 108.723 44.7605C108.937 44.4985 109.154 44.2421 109.37 43.9819L109.699 43.5907C109.724 43.5653 109.756 43.5476 109.791 43.5397C109.826 43.5319 109.863 43.5342 109.896 43.5465C109.931 43.5587 109.961 43.5805 109.982 43.6094C110.004 43.6383 110.017 43.6728 110.019 43.7088C110.027 43.7953 110.03 43.8822 110.029 43.969C110.021 44.3127 109.968 44.6539 109.87 44.9838C109.848 45.1309 109.841 45.2799 109.85 45.4285C109.857 45.5714 109.892 45.7117 109.952 45.8418C109.98 45.9008 110.022 45.9529 110.073 45.9941C110.124 46.0353 110.184 46.0646 110.248 46.0798C110.388 46.1073 110.533 46.1016 110.67 46.0632L110.789 46.041L110.776 46.1536C110.762 46.2814 110.766 46.4105 110.787 46.5374C110.801 46.6577 110.85 46.7713 110.929 46.8639C110.969 46.9051 111.018 46.9363 111.073 46.9552C111.127 46.9741 111.186 46.9801 111.243 46.9728C111.306 46.9668 111.368 46.9563 111.429 46.9414L111.615 46.8732L111.743 46.827L111.7 46.9507C111.678 47.0195 111.671 47.0922 111.679 47.1641C111.687 47.236 111.71 47.3053 111.747 47.3677C111.828 47.4962 111.954 47.5912 112.1 47.6352C112.249 47.6879 112.411 47.6879 112.559 47.6352C112.711 47.5777 112.847 47.4876 112.959 47.3713C112.858 47.501 112.726 47.6047 112.576 47.6739C112.419 47.7417 112.243 47.7534 112.078 47.7072C111.996 47.6832 111.917 47.6497 111.844 47.6075C111.768 47.5605 111.705 47.4975 111.658 47.423C111.609 47.3475 111.577 47.2624 111.564 47.1736C111.551 47.0848 111.558 46.9943 111.583 46.9082L111.667 46.9876L111.47 47.0688C111.399 47.0898 111.327 47.1052 111.254 47.1149C111.175 47.1274 111.094 47.1212 111.018 47.0968C110.941 47.0725 110.872 47.0306 110.815 46.9747C110.713 46.8606 110.648 46.7184 110.629 46.5669C110.604 46.4244 110.598 46.2791 110.612 46.1351L110.718 46.2274C110.553 46.2762 110.378 46.2844 110.209 46.2514C110.12 46.2307 110.037 46.1911 109.966 46.1353C109.894 46.0795 109.836 46.009 109.794 45.9285C109.718 45.7769 109.676 45.6107 109.671 45.4414C109.664 45.2784 109.674 45.1151 109.701 44.9543V44.945C109.8 44.6303 109.855 44.3039 109.867 43.9745C109.871 43.8934 109.871 43.8121 109.867 43.731C109.866 43.7245 109.864 43.7181 109.861 43.7127C109.857 43.7073 109.852 43.703 109.846 43.7003C109.84 43.6977 109.833 43.6967 109.827 43.6975C109.82 43.6984 109.814 43.701 109.809 43.7051L109.471 44.0742C109.242 44.3232 109.017 44.576 108.784 44.8214C108.552 45.0668 108.321 45.3067 108.085 45.5484Z" fill="#F7A48B"/>
<path d="M111.129 44.998C111.132 45.1869 111.1 45.3747 111.033 45.5516C110.974 45.7296 110.882 45.8949 110.761 46.0387C110.758 45.8498 110.791 45.662 110.858 45.4852C110.918 45.3078 111.01 45.1428 111.129 44.998Z" fill="#F7A48B"/>
<path d="M112.039 45.5479C112.037 45.7891 112.001 46.0289 111.931 46.2601C111.868 46.493 111.771 46.7155 111.643 46.9206C111.655 46.437 111.791 45.9644 112.039 45.5479Z" fill="#F7A48B"/>
<path opacity="0.2" d="M87.4061 45.8504C86.9058 45.9186 86.6622 44.6123 86.6622 44.6123C86.162 44.6566 85.1633 45.4002 85.1633 45.4002C85.1633 45.4002 85.2545 52.7898 86.162 52.5868C86.162 52.5868 86.6622 52.8119 87.6608 50.3561L90.0914 45.8965C90.0914 45.8965 88.8026 45.343 88.1518 45.2175C88.0357 45.4315 87.8769 45.6199 87.685 45.771C87.6319 45.8018 87.5741 45.8236 87.5139 45.8356C87.4786 45.8442 87.4424 45.8491 87.4061 45.8504Z" fill="white"/>
<path d="M90.9375 41.8325L88.2447 45.0818C88.1038 45.3459 87.9146 45.5818 87.6868 45.7774C87.6094 45.841 87.511 45.8741 87.4105 45.8704C87.31 45.8667 87.2144 45.8263 87.1419 45.7571C86.439 45.0578 86.4223 42.137 86.439 41.1277C86.6184 41.1579 86.8 41.1733 86.982 41.1738C88.334 41.1738 89.5372 40.3565 90.3294 39.0723C90.3412 40.0238 90.5481 40.9629 90.9375 41.8325Z" fill="#F9B499"/>
<path d="M86.4317 41.1272C86.4317 41.1272 86.3573 42.5479 86.4949 43.1254C86.4949 43.1254 88.0496 42.7675 88.8269 40.5645C88.8269 40.5645 87.9789 41.3892 86.4317 41.1272Z" fill="#F7A48B"/>
<path d="M88.1462 45.2178C88.1462 45.2178 90.8725 45.9651 91.4248 46.7252L92.0087 42.6439C92.0087 42.6439 92.1389 41.9058 90.9376 41.832L88.1462 45.2178Z" fill="#F2668B"/>
<path d="M84.0234 46.594C84.0234 46.594 85.4312 44.8134 86.6567 44.6123C86.6567 44.6123 86.3387 42.6731 86.4298 42.0439C86.4298 42.0439 84.5906 42.7193 84.0234 46.594Z" fill="#F2668B"/>
<path opacity="0.2" d="M88.1462 45.2178C88.1462 45.2178 90.8725 45.9651 91.4248 46.7252L92.0087 42.6439C92.0087 42.6439 92.1389 41.9058 90.9376 41.832L88.1462 45.2178Z" fill="black"/>
<path opacity="0.2" d="M84.0234 46.594C84.0234 46.594 85.4312 44.8134 86.6567 44.6123C86.6567 44.6123 86.3387 42.6731 86.4298 42.0439C86.4298 42.0439 84.5906 42.7193 84.0234 46.594Z" fill="black"/>
<path d="M91.3151 35.4254C91.3275 36.7076 90.9854 37.9687 90.3258 39.0714C89.528 40.3629 88.3248 41.1729 86.9784 41.1729C86.7965 41.1724 86.6148 41.157 86.4354 41.1268C84.295 40.7762 82.6399 38.3592 82.6399 35.407C82.6399 32.2279 84.5832 29.6484 86.9784 29.6484C89.3736 29.6484 91.3151 32.2371 91.3151 35.4254Z" fill="#F9B499"/>
<path d="M93.1654 36.3646C92.9923 36.6232 92.7825 36.8556 92.5424 37.0547L91.0342 36.0251C91.0342 36.0251 90.5154 33.7778 87.6869 33.5453C87.7039 33.7585 87.8 33.9579 87.9567 34.1048C88.1133 34.2517 88.3194 34.3357 88.5349 34.3405C88.5349 34.3405 87.5139 34.6634 86.4223 33.5416C86.172 33.2691 85.8414 33.0819 85.4776 33.0065C85.1057 32.9346 84.665 32.9807 84.4307 33.4493C84.4307 33.4493 83.7184 34.4955 82.6938 34.335C82.6938 34.335 82.6231 35.1487 82.638 35.4162H82.6268C82.5004 35.3332 81.4311 34.573 81.5798 33.311C81.6524 32.7316 81.9797 32.0415 82.7793 31.2629C82.7793 31.2629 82.3534 28.9233 85.3251 27.9417C85.3251 27.9417 89.9501 26.4896 90.2327 28.6429C90.2327 28.6429 93.766 28.5008 94.0543 31.6836C94.045 31.6707 94.4169 34.5527 93.1654 36.3646Z" fill="#2F2E41"/>
<path d="M82.6659 34.2858L82.6492 34.9538C82.6492 34.9538 83.592 35.1051 85.1597 33.9519C85.1597 33.9519 87.3912 35.0885 89.0203 34.653C89.0203 34.653 90.1156 34.7194 90.8241 36.225L91.0324 36.0258C91.0324 36.0258 90.5935 33.8246 87.6851 33.5441C87.6851 33.5441 87.6851 34.2453 88.5349 34.3412C88.5349 34.3412 87.5103 34.653 86.4149 33.5312C86.1663 33.2656 85.8419 33.0815 85.4851 33.0035C85.102 32.9279 84.6576 32.9684 84.4307 33.4519C84.4288 33.4519 83.6441 34.57 82.6659 34.2858Z" fill="#F7A48B"/>
<path opacity="0.2" d="M93.1655 36.3649C92.9925 36.6235 92.7826 36.856 92.5425 37.055L91.0344 36.0254C91.0344 36.0254 90.5155 33.7781 87.687 33.5456C87.704 33.7588 87.8001 33.9582 87.9568 34.1051C88.1135 34.252 88.3195 34.336 88.535 34.3408C88.535 34.3408 87.5141 34.6637 86.4225 33.5419C86.1721 33.2694 85.8415 33.0822 85.4778 33.0068C85.1058 32.9349 84.6651 32.981 84.4308 33.4497C84.4308 33.4497 83.7185 34.4958 82.6939 34.3353C82.6939 34.3353 82.6232 35.149 82.6381 35.4165H82.6269C82.4986 35.339 81.4275 34.6268 81.5669 33.3131H81.5855C81.7046 33.2781 82.5767 32.9644 83.1774 31.4828C83.1774 31.4828 84.6074 28.2483 88.6559 29.3277C88.6559 29.3277 88.2114 28.5897 87.8637 28.4199C87.8637 28.4199 89.37 28.4439 90.0116 29.7115C90.0116 29.7115 92.0107 29.9071 92.8996 31.1876C92.8996 31.1876 91.3933 30.7946 91.7838 31.6285C91.7819 31.6138 93.411 32.9662 93.1655 36.3649Z" fill="black"/>
<path d="M92.4802 37.683C92.7327 36.9223 92.4559 36.1482 91.8618 35.954C91.2677 35.7599 90.5814 36.2192 90.3288 36.98C90.0763 37.7407 90.3532 38.5148 90.9473 38.7089C91.5413 38.9031 92.2277 38.4438 92.4802 37.683Z" fill="#F9B499"/>
<path opacity="0.2" d="M95.2501 68.1743C95.2501 68.1743 91.8173 71.3109 87.2054 70.4087C87.2054 70.4087 80.1239 69.9308 78.4074 66.2055L78.1099 65.9232L80.3954 66.5782C84.0402 70.4087 91.8712 68.4935 91.8712 68.4935C93.8554 67.9621 93.106 66.8439 93.106 66.8439C92.245 65.5136 93.9633 63.1168 93.9633 63.1168C95.358 60.244 95.0902 55.7217 95.0902 55.7217L96.4292 58.2218C96.4292 58.2218 95.8396 63.2774 95.1423 65.5136C95.1423 65.5136 94.7127 66.9491 95.2501 68.1743Z" fill="black"/>
<path opacity="0.2" d="M96.2542 43.8633C96.2542 43.8633 96.6763 46.1992 98.0822 46.9317C98.0822 46.9317 98.5731 47.0701 97.9762 48.4299C97.9762 48.4299 97.3086 49.5111 98.9599 50.5222C98.9599 50.5222 100.366 51.1496 99.7038 52.1607L98.787 53.0703C98.7802 53.0773 98.7759 53.0862 98.7745 53.0958C98.7731 53.1054 98.7748 53.1151 98.7793 53.1237C98.7838 53.1322 98.791 53.1392 98.7997 53.1435C98.8084 53.1479 98.8183 53.1494 98.8279 53.1478L100.477 52.8581C100.477 52.8581 99.8656 54.1866 100.152 55.1608C100.152 55.1853 100.162 55.2088 100.179 55.2261C100.197 55.2434 100.22 55.2531 100.245 55.2531C100.27 55.2531 100.293 55.2434 100.311 55.2261C100.328 55.2088 100.338 55.1853 100.338 55.1608C100.509 54.4412 101.022 52.55 101.863 51.681L97.1431 44.5515C96.8833 44.279 96.5837 44.047 96.2542 43.8633Z" fill="black"/>
<path d="M73.9275 54.5502L77.9053 66.9825L86.7311 66.1208L82.7068 54.3232L73.9275 54.5502Z" fill="#F2668B"/>
<path opacity="0.4" d="M73.9275 54.5502L77.9053 66.9825L86.7311 66.1208L82.7068 54.3232L73.9275 54.5502Z" fill="white"/>
<path d="M83.3019 53.8232L87.2797 65.7112L86.7311 66.1208L82.7068 54.3233L73.9275 54.5502L74.8871 54.0502L83.3019 53.8232Z" fill="#F2668B"/>
<path opacity="0.5" d="M83.3019 53.8232L87.2797 65.7112L86.7311 66.1208L82.7068 54.3233L73.9275 54.5502L74.8871 54.0502L83.3019 53.8232Z" fill="white"/>
<path opacity="0.4" d="M79.5658 61.3918C80.4336 61.3918 81.1372 60.7053 81.1372 59.8585C81.1372 59.0117 80.4336 58.3252 79.5658 58.3252C78.6979 58.3252 77.9944 59.0117 77.9944 59.8585C77.9944 60.7053 78.6979 61.3918 79.5658 61.3918Z" fill="white"/>
<path d="M76.9363 60.9569C77.0623 60.9934 77.1735 61.0683 77.2543 61.1709C77.2865 61.2115 77.3062 61.2605 77.3111 61.3119C77.316 61.3633 77.3059 61.4151 77.282 61.461C77.2581 61.5069 77.2214 61.545 77.1762 61.5707C77.1311 61.5965 77.0795 61.6089 77.0275 61.6063C76.7595 61.5748 76.4976 61.5046 76.2501 61.3978C76.2039 61.3772 76.1551 61.3629 76.1051 61.3554C75.8596 61.3222 75.0488 61.1266 75.0879 60.0638C75.0946 59.9284 75.0471 59.7958 74.9558 59.6948C74.7159 59.4291 74.2585 58.8645 74.1543 58.3036C74.1352 58.1707 74.1465 58.0352 74.1873 57.9072C74.2281 57.7792 74.2974 57.6619 74.3901 57.5641C74.4828 57.4663 74.5965 57.3904 74.7227 57.3421C74.849 57.2938 74.9846 57.2743 75.1195 57.2851L76.8471 57.394C76.9358 57.3954 77.0204 57.4318 77.0821 57.4952C77.1439 57.5585 77.1777 57.6435 77.1762 57.7316C77.1748 57.8197 77.1381 57.9036 77.0742 57.9648C77.0104 58.0261 76.9247 58.0597 76.8359 58.0582L76.2278 58.0748C76.1942 58.0808 76.1629 58.0958 76.1373 58.1182C76.1117 58.1407 76.0928 58.1697 76.0828 58.2021C76.0761 58.2451 76.0849 58.289 76.1077 58.3262C76.1305 58.3633 76.1658 58.3912 76.2074 58.4051H76.8936C76.9799 58.4065 77.0622 58.4416 77.1227 58.5027C77.1832 58.5638 77.2172 58.646 77.2171 58.7317C77.2168 58.8113 77.1871 58.8881 77.1337 58.9476C77.0803 59.0071 77.0068 59.0451 76.927 59.0546L76.6276 59.0896C76.5868 59.0942 76.5473 59.1071 76.5117 59.1276C76.4761 59.1481 76.4452 59.1757 76.4209 59.2087C76.3966 59.2416 76.3795 59.2792 76.3706 59.319C76.3617 59.3589 76.3612 59.4001 76.3691 59.4402C76.3817 59.5084 76.418 59.5702 76.4717 59.6146C76.5254 59.6591 76.593 59.6836 76.663 59.6837H77.0349C77.1348 59.6837 77.2308 59.7221 77.3026 59.791C77.3744 59.8599 77.4165 59.9537 77.4198 60.0528C77.4234 60.1525 77.3875 60.2497 77.3197 60.3235C77.2519 60.3973 77.1577 60.4419 77.0572 60.4476L76.6444 60.4716C76.6246 60.4728 76.6054 60.4781 76.588 60.4874C76.5705 60.4966 76.5553 60.5094 76.5433 60.525C76.5313 60.5406 76.5228 60.5585 76.5184 60.5777C76.514 60.5968 76.5139 60.6166 76.5179 60.6358C76.5179 60.6358 76.4696 60.8222 76.9363 60.9569Z" fill="#F9B499"/>
<path opacity="0.4" d="M144.03 21.7168H107.455V75.2155H144.03V21.7168Z" fill="white"/>
<path opacity="0.4" d="M144.166 75.3522H107.317V21.5879H144.166V75.3522ZM107.591 75.081H143.892V21.8536H107.591V75.081Z" fill="#2F2E41"/>
<path d="M77.1744 57.7668C77.1744 57.7668 77.0814 58.0602 76.836 58.0584L76.2279 58.075C76.2022 58.0779 76.1776 58.0868 76.1561 58.101C76.1346 58.1151 76.1167 58.1342 76.104 58.1565C76.0913 58.1788 76.0841 58.2038 76.083 58.2294C76.0819 58.255 76.087 58.2805 76.0977 58.3038C76.0523 58.2876 76.0109 58.2619 75.9763 58.2286C75.9418 58.1952 75.9148 58.1549 75.8971 58.1104C75.8795 58.0658 75.8717 58.0181 75.8742 57.9703C75.8768 57.9225 75.8895 57.8758 75.9117 57.8333C75.9117 57.8333 75.9564 57.7244 76.2985 57.7447L77.1744 57.7668Z" fill="#F7A48B"/>
<path d="M59.4315 43.0273H37.7537V43.2986H59.4315V43.0273Z" fill="#2F2E41"/>
<path d="M36.5637 42.2451H35.1113V43.6861H36.5637V42.2451Z" fill="#F2668B"/>
<path d="M59.4315 46.1758H37.7537V46.447H59.4315V46.1758Z" fill="#2F2E41"/>
<path d="M36.5637 45.3896H35.1113V46.8307H36.5637V45.3896Z" fill="#F2668B"/>
<path d="M59.4315 49.3193H37.7537V49.5906H59.4315V49.3193Z" fill="#2F2E41"/>
<path d="M36.5637 48.5332H35.1113V49.9742H36.5637V48.5332Z" fill="#F2668B"/>
<path d="M59.4315 52.4639H37.7537V52.7351H59.4315V52.4639Z" fill="#2F2E41"/>
<path d="M36.5637 51.6816H35.1113V53.1227H36.5637V51.6816Z" fill="#F2668B"/>
<path d="M32.4538 28.4824H32.1804V58.1424H32.4538V28.4824Z" fill="#2F2E41"/>
<path d="M39.4405 39.9279C38.5045 39.9283 37.5893 39.6531 36.8109 39.1372C36.0325 38.6213 35.4258 37.8879 35.0677 37.0298C34.7096 36.1717 34.6161 35.2275 34.799 34.3166C34.9819 33.4058 35.4331 32.5693 36.0954 31.9129C36.7577 31.2566 37.6014 30.8099 38.5196 30.6295C39.4379 30.449 40.3894 30.5429 41.2539 30.8993C42.1183 31.2556 42.8568 31.8584 43.3758 32.6313C43.8948 33.4043 44.1711 34.3126 44.1696 35.2414C44.1671 36.4845 43.6679 37.676 42.7814 38.5545C41.8949 39.433 40.6935 39.9269 39.4405 39.9279ZM39.4405 30.8113C38.5578 30.8113 37.6949 31.071 36.961 31.5576C36.227 32.0441 35.6549 32.7357 35.3171 33.5449C34.9793 34.3541 34.891 35.2444 35.0632 36.1034C35.2354 36.9624 35.6604 37.7514 36.2846 38.3707C36.9088 38.99 37.7041 39.4118 38.5698 39.5827C39.4356 39.7535 40.333 39.6658 41.1485 39.3307C41.964 38.9955 42.6611 38.4279 43.1515 37.6997C43.6419 36.9715 43.9037 36.1153 43.9037 35.2395C43.9037 34.0651 43.4334 32.9387 42.5964 32.1083C41.7594 31.2778 40.6242 30.8113 39.4405 30.8113Z" fill="#2F2E41"/>
<path d="M39.4404 36.4666C39.0909 36.467 38.7492 36.3645 38.4584 36.1721C38.1676 35.9797 37.9409 35.7061 37.8069 35.3858C37.6729 35.0656 37.6376 34.7131 37.7056 34.373C37.7736 34.0328 37.9417 33.7203 38.1887 33.475C38.4357 33.2297 38.7504 33.0625 39.0932 32.9948C39.4359 32.927 39.7912 32.9616 40.1142 33.0942C40.4371 33.2268 40.7131 33.4515 40.9073 33.7398C41.1015 34.0281 41.2052 34.367 41.2052 34.7138C41.2052 35.1783 41.0193 35.6239 40.6884 35.9526C40.3575 36.2812 39.9086 36.4661 39.4404 36.4666ZM39.4404 33.2322C39.1461 33.2322 38.8585 33.3187 38.6139 33.4809C38.3692 33.6431 38.1785 33.8737 38.0659 34.1434C37.9533 34.4131 37.9239 34.7099 37.9813 34.9962C38.0387 35.2825 38.1804 35.5456 38.3884 35.752C38.5965 35.9584 38.8616 36.099 39.1502 36.156C39.4387 36.2129 39.7379 36.1837 40.0097 36.072C40.2816 35.9602 40.5139 35.7711 40.6774 35.5283C40.8408 35.2856 40.9281 35.0002 40.9281 34.7082C40.9281 34.3168 40.7714 33.9413 40.4924 33.6645C40.2134 33.3877 39.835 33.2322 39.4404 33.2322Z" fill="#2F2E41"/>
<path d="M39.4406 39.9283C38.4118 39.9303 37.4111 39.5957 36.5935 38.9763L36.5247 38.9283L36.5395 38.8471C36.6539 38.1664 37.0079 37.548 37.5386 37.102C38.0693 36.6559 38.7423 36.4111 39.4378 36.4111C40.1333 36.4111 40.8063 36.6559 41.337 37.102C41.8677 37.548 42.2217 38.1664 42.336 38.8471L42.349 38.9283L42.2821 38.9763C41.4657 39.594 40.4673 39.9285 39.4406 39.9283ZM36.8278 38.812C37.5868 39.3614 38.502 39.6574 39.4415 39.6574C40.381 39.6574 41.2962 39.3614 42.0552 38.812C41.935 38.212 41.6088 37.6719 41.1322 37.2838C40.6556 36.8957 40.0581 36.6835 39.4415 36.6835C38.8249 36.6835 38.2274 36.8957 37.7508 37.2838C37.2742 37.6719 36.948 38.212 36.8278 38.812Z" fill="#2F2E41"/>
<path d="M25.4542 37.2264C24.9901 37.2267 24.5363 37.0906 24.1502 36.8351C23.7641 36.5796 23.463 36.2163 23.285 35.7911C23.107 35.3658 23.06 34.8978 23.1501 34.4461C23.2401 33.9944 23.4631 33.5793 23.7909 33.2533C24.1186 32.9273 24.5365 32.7051 24.9915 32.6147C25.4466 32.5243 25.9184 32.5697 26.3474 32.7454C26.7764 32.921 27.1433 33.2188 27.4017 33.6013C27.6601 33.9838 27.7985 34.4337 27.7992 34.8942C27.7997 35.5119 27.553 36.1045 27.1132 36.5419C26.6735 36.9792 26.0768 37.2254 25.4542 37.2264ZM25.4542 32.8424C25.0436 32.8417 24.6421 32.9618 24.3004 33.1875C23.9586 33.4132 23.692 33.7345 23.5343 34.1106C23.3766 34.4866 23.3349 34.9007 23.4144 35.3003C23.4939 35.6999 23.6911 36.0672 23.981 36.3556C24.2709 36.644 24.6405 36.8406 25.0431 36.9206C25.4456 37.0006 25.8631 36.9603 26.2425 36.8048C26.622 36.6494 26.9465 36.3857 27.1749 36.0473C27.4033 35.7088 27.5255 35.3107 27.5258 34.9034C27.5258 34.3577 27.3077 33.8344 26.9194 33.448C26.5311 33.0617 26.0041 32.8439 25.4542 32.8424Z" fill="#2F2E41"/>
<path d="M25.4542 35.5639C25.2725 35.5621 25.0955 35.507 24.9453 35.4055C24.7952 35.3041 24.6786 35.1608 24.6104 34.9938C24.5422 34.8267 24.5252 34.6434 24.5618 34.4668C24.5984 34.2903 24.6868 34.1284 24.8159 34.0016C24.945 33.8748 25.109 33.7887 25.2873 33.7542C25.4656 33.7197 25.6502 33.7383 25.8179 33.8077C25.9855 33.8771 26.1288 33.9941 26.2295 34.1441C26.3302 34.2941 26.384 34.4703 26.384 34.6506C26.3816 34.8937 26.2825 35.1259 26.1084 35.297C25.9343 35.468 25.6992 35.5639 25.4542 35.5639ZM25.4542 34.0103C25.3261 34.0103 25.2009 34.048 25.0945 34.1187C24.988 34.1893 24.9051 34.2897 24.8561 34.4071C24.8072 34.5246 24.7945 34.6538 24.8196 34.7784C24.8447 34.903 24.9066 35.0174 24.9972 35.1071C25.0879 35.1968 25.2034 35.2578 25.3291 35.2824C25.4547 35.307 25.5849 35.294 25.7031 35.2451C25.8214 35.1962 25.9223 35.1136 25.9932 35.0078C26.0641 34.902 26.1017 34.7777 26.1013 34.6506C26.1013 34.5663 26.0846 34.4829 26.052 34.4051C26.0195 34.3273 25.9718 34.2567 25.9117 34.1972C25.8516 34.1377 25.7802 34.0906 25.7017 34.0585C25.6232 34.0265 25.5391 34.0101 25.4542 34.0103Z" fill="#2F2E41"/>
<path d="M25.4542 37.2268C24.9446 37.2287 24.4486 37.064 24.0428 36.7582L23.9758 36.7065V36.6253C24.0373 36.2844 24.2177 35.9757 24.4854 35.7533C24.7532 35.531 25.0912 35.4092 25.4403 35.4092C25.7894 35.4092 26.1274 35.531 26.3952 35.7533C26.6629 35.9757 26.8433 36.2844 26.9048 36.6253V36.7065L26.8378 36.7582C26.439 37.0573 25.9541 37.2215 25.4542 37.2268ZM24.2752 36.5903C24.6227 36.8246 25.0332 36.9499 25.4533 36.9499C25.8735 36.9499 26.2839 36.8246 26.6314 36.5903C26.5671 36.3284 26.4161 36.0955 26.2024 35.9289C25.9888 35.7624 25.725 35.6718 25.4533 35.6718C25.1816 35.6718 24.9178 35.7624 24.7042 35.9289C24.4905 36.0955 24.3395 36.3284 24.2752 36.5903Z" fill="#2F2E41"/>
<path d="M25.4542 46.4137C24.9896 46.4144 24.5352 46.2784 24.1486 46.0228C23.7619 45.7673 23.4602 45.4037 23.2818 44.9781C23.1034 44.5524 23.0563 44.0838 23.1464 43.6316C23.2364 43.1794 23.4596 42.7638 23.7878 42.4374C24.1159 42.1111 24.5342 41.8886 24.9898 41.7982C25.4454 41.7078 25.9178 41.7534 26.3472 41.9294C26.7766 42.1054 27.1438 42.4038 27.4023 42.7869C27.6607 43.1699 27.7989 43.6205 27.7993 44.0814C27.7993 44.699 27.5524 45.2914 27.1128 45.7286C26.6731 46.1658 26.0767 46.4122 25.4542 46.4137ZM25.4542 42.026C25.0437 42.0253 24.6422 42.1454 24.3004 42.3711C23.9587 42.5968 23.6921 42.9181 23.5344 43.2942C23.3767 43.6702 23.335 44.0843 23.4145 44.4839C23.494 44.8835 23.6912 45.2508 23.9811 45.5392C24.271 45.8276 24.6406 46.0242 25.0431 46.1042C25.4457 46.1842 25.8631 46.1439 26.2426 45.9884C26.6221 45.8329 26.9465 45.5693 27.175 45.2309C27.4034 44.8924 27.5255 44.4943 27.5259 44.087C27.5264 43.5412 27.3085 43.0175 26.92 42.6311C26.5315 42.2446 26.0043 42.027 25.4542 42.026Z" fill="#2F2E41"/>
<path d="M25.4542 44.7455C25.2725 44.7437 25.0955 44.6886 24.9453 44.5872C24.7952 44.4857 24.6786 44.3424 24.6104 44.1754C24.5422 44.0084 24.5252 43.825 24.5618 43.6485C24.5984 43.4719 24.6868 43.31 24.8159 43.1832C24.945 43.0564 25.109 42.9703 25.2873 42.9358C25.4656 42.9013 25.6502 42.92 25.8179 42.9893C25.9855 43.0587 26.1288 43.1758 26.2295 43.3258C26.3302 43.4758 26.384 43.652 26.384 43.8322C26.3816 44.0753 26.2825 44.3076 26.1084 44.4786C25.9343 44.6496 25.6992 44.7456 25.4542 44.7455ZM25.4542 43.1901C25.3262 43.1901 25.2011 43.2278 25.0947 43.2983C24.9882 43.3689 24.9053 43.4692 24.8563 43.5865C24.8073 43.7038 24.7945 43.8329 24.8195 43.9575C24.8444 44.082 24.9061 44.1965 24.9966 44.2863C25.0871 44.3761 25.2024 44.4372 25.3279 44.462C25.4535 44.4868 25.5836 44.474 25.7018 44.4254C25.8201 44.3768 25.9212 44.2945 25.9923 44.189C26.0634 44.0834 26.1013 43.9592 26.1013 43.8322C26.1013 43.6619 26.0332 43.4986 25.9118 43.3782C25.7904 43.2578 25.6258 43.1901 25.4542 43.1901Z" fill="#2F2E41"/>
<path d="M25.4542 46.4134C24.9444 46.413 24.4487 46.2471 24.0428 45.941L23.9758 45.8912V45.8119C24.0373 45.4709 24.2177 45.1622 24.4854 44.9399C24.7532 44.7175 25.0912 44.5957 25.4403 44.5957C25.7894 44.5957 26.1274 44.7175 26.3952 44.9399C26.6629 45.1622 26.8433 45.4709 26.9048 45.8119V45.8912L26.8378 45.941C26.4394 46.2412 25.9545 46.4067 25.4542 46.4134ZM24.2752 45.7731C24.6223 46.0084 25.0329 46.1343 25.4533 46.1343C25.8737 46.1343 26.2843 46.0084 26.6314 45.7731C26.5671 45.5112 26.4161 45.2783 26.2024 45.1117C25.9888 44.9452 25.725 44.8547 25.4533 44.8547C25.1816 44.8547 24.9178 44.9452 24.7042 45.1117C24.4905 45.2783 24.3395 45.5112 24.2752 45.7731Z" fill="#2F2E41"/>
<path d="M25.4542 55.5914C24.9896 55.5921 24.5352 55.4561 24.1486 55.2006C23.7619 54.945 23.4602 54.5814 23.2818 54.1558C23.1034 53.7302 23.0563 53.2616 23.1464 52.8093C23.2364 52.3571 23.4596 51.9415 23.7878 51.6152C24.1159 51.2888 24.5342 51.0664 24.9898 50.9759C25.4454 50.8855 25.9178 50.9312 26.3472 51.1072C26.7766 51.2832 27.1438 51.5816 27.4023 51.9646C27.6607 52.3477 27.7989 52.7982 27.7993 53.2592C27.7993 53.8768 27.5524 54.4691 27.1128 54.9063C26.6731 55.3436 26.0767 55.5899 25.4542 55.5914ZM25.4542 51.2037C25.0437 51.203 24.6422 51.3231 24.3004 51.5488C23.9587 51.7746 23.6921 52.0958 23.5344 52.4719C23.3767 52.848 23.335 53.262 23.4145 53.6616C23.494 54.0613 23.6912 54.4285 23.9811 54.7169C24.271 55.0054 24.6406 55.202 25.0431 55.2819C25.4457 55.3619 25.8631 55.3216 26.2426 55.1661C26.6221 55.0107 26.9465 54.747 27.175 54.4086C27.4034 54.0701 27.5255 53.672 27.5259 53.2647C27.5254 52.7192 27.3072 52.1961 26.9189 51.8099C26.5307 51.4236 26.004 51.2057 25.4542 51.2037Z" fill="#2F2E41"/>
<path d="M25.4542 53.9252C25.2725 53.9234 25.0953 53.8683 24.9451 53.7667C24.795 53.6652 24.6784 53.5218 24.6102 53.3547C24.542 53.1875 24.5252 53.0041 24.5619 52.8275C24.5987 52.6509 24.6872 52.489 24.8165 52.3623C24.9458 52.2355 25.11 52.1496 25.2884 52.1153C25.4669 52.081 25.6515 52.0999 25.8192 52.1696C25.9868 52.2392 26.1299 52.3566 26.2304 52.5068C26.3309 52.657 26.3844 52.8334 26.384 53.0138C26.3811 53.2565 26.2818 53.4883 26.1078 53.6589C25.9337 53.8296 25.6989 53.9253 25.4542 53.9252ZM25.4542 52.3717C25.3262 52.3717 25.2011 52.4093 25.0946 52.4799C24.9882 52.5504 24.9053 52.6507 24.8563 52.768C24.8073 52.8854 24.7945 53.0145 24.8195 53.139C24.8444 53.2636 24.9061 53.378 24.9966 53.4678C25.0871 53.5576 25.2024 53.6187 25.3279 53.6435C25.4535 53.6683 25.5836 53.6556 25.7018 53.607C25.8201 53.5584 25.9212 53.4761 25.9923 53.3705C26.0634 53.2649 26.1013 53.1408 26.1013 53.0138C26.1013 52.8435 26.0332 52.6801 25.9118 52.5597C25.7904 52.4393 25.6258 52.3717 25.4542 52.3717Z" fill="#2F2E41"/>
<path d="M25.4542 55.5908C24.9444 55.5924 24.4483 55.427 24.0428 55.1203L23.9758 55.0687V54.9838C24.0328 54.6382 24.2118 54.324 24.4807 54.0973C24.7497 53.8706 25.0911 53.7461 25.444 53.7461C25.7969 53.7461 26.1384 53.8706 26.4073 54.0973C26.6763 54.324 26.8552 54.6382 26.9122 54.9838V55.0631L26.8452 55.1148C26.4458 55.4187 25.9576 55.5858 25.4542 55.5908ZM24.2752 54.9524C24.6227 55.1868 25.0332 55.3121 25.4533 55.3121C25.8735 55.3121 26.2839 55.1868 26.6314 54.9524C26.5671 54.6905 26.4161 54.4576 26.2024 54.2911C25.9888 54.1245 25.725 54.034 25.4533 54.034C25.1816 54.034 24.9178 54.1245 24.7042 54.2911C24.4905 54.4576 24.3395 54.6905 24.2752 54.9524Z" fill="#2F2E41"/>
<path d="M58.1373 32.501H46.5071V32.7722H58.1373V32.501Z" fill="#2F2E41"/>
<path d="M58.1373 35.1543H46.5071V35.4255H58.1373V35.1543Z" fill="#2F2E41"/>
<path d="M58.1373 37.8096H46.5071V38.0808H58.1373V37.8096Z" fill="#2F2E41"/>
<path d="M49.9623 96.2795C56.4327 96.2795 61.678 91.0752 61.678 84.6554C61.678 78.2355 56.4327 73.0312 49.9623 73.0312C43.4919 73.0312 38.2466 78.2355 38.2466 84.6554C38.2466 91.0752 43.4919 96.2795 49.9623 96.2795Z" fill="white"/>
<path d="M49.9716 96.4141C47.6276 96.4141 45.3362 95.7245 43.3873 94.4324C41.4383 93.1403 39.9193 91.3039 39.0223 89.1552C38.1253 87.0066 37.8906 84.6423 38.3478 82.3613C38.8051 80.0803 39.9339 77.9851 41.5913 76.3406C43.2488 74.6961 45.3605 73.5761 47.6595 73.1224C49.9584 72.6687 52.3414 72.9016 54.507 73.7916C56.6725 74.6816 58.5235 76.1887 59.8257 78.1225C61.128 80.0562 61.8231 82.3296 61.8231 84.6553C61.8231 86.1995 61.5165 87.7286 60.9209 89.1552C60.3253 90.5819 59.4524 91.8781 58.3518 92.97C57.2513 94.062 55.9448 94.9281 54.507 95.519C53.0691 96.11 51.528 96.4141 49.9716 96.4141ZM49.9716 73.1659C47.6817 73.1662 45.4434 73.8403 43.5396 75.1028C41.6359 76.3653 40.1522 78.1595 39.2761 80.2586C38.4001 82.3577 38.1711 84.6675 38.618 86.8957C39.065 89.124 40.1679 91.1707 41.7872 92.7771C43.4065 94.3834 45.4695 95.4774 47.7154 95.9205C49.9612 96.3636 52.2891 96.136 54.4046 95.2664C56.5201 94.3969 58.3283 92.9245 59.6004 91.0354C60.8726 89.1463 61.5516 86.9254 61.5516 84.6535C61.5471 81.6083 60.3254 78.6892 58.1545 76.5367C55.9836 74.3841 53.0407 73.1738 49.9716 73.1714V73.1659Z" fill="#F2668B"/>
<path d="M62.5131 99.8916H37.8301V100.163H62.5131V99.8916Z" fill="#2F2E41"/>
<path d="M62.5131 102.383H37.8301V102.654H62.5131V102.383Z" fill="#2F2E41"/>
<path d="M62.513 106.575H40.8352V106.846H62.513V106.575Z" fill="#2F2E41"/>
<path d="M39.6487 105.791H38.1963V107.232H39.6487V105.791Z" fill="#F2668B"/>
<path d="M62.513 109.719H40.8352V109.99H62.513V109.719Z" fill="#2F2E41"/>
<path d="M39.6487 108.937H38.1963V110.378H39.6487V108.937Z" fill="#F2668B"/>
<path d="M62.513 112.863H40.8352V113.135H62.513V112.863Z" fill="#2F2E41"/>
<path d="M39.6487 112.081H38.1963V113.522H39.6487V112.081Z" fill="#F2668B"/>
<path d="M62.513 116.007H40.8352V116.278H62.513V116.007Z" fill="#2F2E41"/>
<path d="M39.6487 115.225H38.1963V116.666H39.6487V115.225Z" fill="#F2668B"/>
<path d="M47.3682 76.9402C47.901 76.1396 48.633 75.4891 49.4934 75.0514C50.3537 74.6137 51.3134 74.4038 52.2795 74.4419C55.6696 74.5508 56.4916 78.2336 56.3707 79.3167C56.3168 79.9393 56.1492 80.547 55.8761 81.1101L54.3995 79.861C55.4158 80.8641 56.2062 82.0696 56.7185 83.398C57.5367 85.5642 57.1443 88.3798 56.1048 89.0311C55.0653 89.6824 54.3549 89.4112 54.3549 89.4112L54.4646 87.9443C54.4646 87.9443 53.4808 89.6806 51.8406 90.0053C50.2004 90.3301 45.4974 90.5478 44.7852 89.7359C44.3561 89.2362 44.0561 88.6403 43.9112 87.9997L43.8033 89.4112C43.8033 89.4112 42.3267 88.3263 42.271 87.0753C42.2152 85.8243 42.9813 84.0973 43.3626 83.1711C43.7438 82.2448 44.019 81.7596 44.1269 80.3481C44.2347 78.9366 44.0729 78.1819 45.0567 77.2557C46.0404 76.3294 47.3682 76.9402 47.3682 76.9402Z" fill="#2F2E41"/>
<path d="M45.0883 91.7406C44.1826 92.1281 42.7172 92.4786 41.7205 92.9122C43.9073 95.0606 46.8583 96.269 49.9358 96.2762C53.0132 96.2835 55.97 95.089 58.1671 92.951C57.7842 92.7642 57.3828 92.617 56.9695 92.5119C55.2177 92.0303 52.7277 90.6169 52.4357 90.1335C52.1437 89.6501 51.8573 87.9674 51.8573 87.9674L47.8089 87.4268C47.8089 87.4268 48.0116 89.5283 48.0116 89.9158C48.0116 90.3033 46.4532 91.1612 45.0883 91.7406Z" fill="#F9B499"/>
<path d="M54.379 91.4414L50.1372 95.4306L46.0274 91.3086C45.7187 91.4617 45.3988 91.6075 45.0975 91.7403C44.1919 92.1278 42.7265 92.4784 41.7297 92.912C43.9166 95.0604 46.8676 96.2687 49.9451 96.276C53.0225 96.2832 55.9793 95.0888 58.1764 92.9507C57.7934 92.7639 57.3921 92.6168 56.9788 92.5116C56.0776 92.2439 55.2065 91.8853 54.379 91.4414Z" fill="#F2668B"/>
<path d="M137.501 53.8877H112.818V54.1589H137.501V53.8877Z" fill="#2F2E41"/>
<path d="M137.501 56.3789H112.818V56.6501H137.501V56.3789Z" fill="#2F2E41"/>
<path d="M137.503 60.5713H115.825V60.8425H137.503V60.5713Z" fill="#2F2E41"/>
<path d="M114.637 59.7852H113.184V61.2262H114.637V59.7852Z" fill="#F2668B"/>
<path d="M137.503 63.7148H115.825V63.9861H137.503V63.7148Z" fill="#2F2E41"/>
<path d="M114.637 62.9326H113.184V64.3736H114.637V62.9326Z" fill="#F2668B"/>
<path d="M137.503 66.8594H115.825V67.1306H137.503V66.8594Z" fill="#2F2E41"/>
<path d="M114.637 66.0771H113.184V67.5182H114.637V66.0771Z" fill="#F2668B"/>
<path d="M137.503 70.0029H115.825V70.2742H137.503V70.0029Z" fill="#2F2E41"/>
<path d="M114.637 69.2207H113.184V70.6617H114.637V69.2207Z" fill="#F2668B"/>
<path d="M124.954 50.2756C131.424 50.2756 136.67 45.0713 136.67 38.6515C136.67 32.2316 131.424 27.0273 124.954 27.0273C118.484 27.0273 113.238 32.2316 113.238 38.6515C113.238 45.0713 118.484 50.2756 124.954 50.2756Z" fill="white"/>
<path d="M118.856 43.7531L115.935 46.0724C117.917 48.4434 120.768 49.9364 123.859 50.2236C126.951 50.5107 130.031 49.5685 132.422 47.6039C132.926 47.1911 133.393 46.7368 133.819 46.2459L129.391 43.373L118.856 43.7531Z" fill="#F2668B"/>
<path d="M122.522 40.4705C122.522 40.4705 119.948 40.8027 119.23 41.8415C118.512 42.8802 117.99 43.8711 118.514 44.4929C119.382 45.4228 120.343 46.2629 121.382 47.0004C122.239 47.5686 123.578 49.5115 123.578 49.5115C123.685 48.695 123.747 47.8733 123.764 47.0502C123.764 46.0077 122.857 44.8822 122.672 43.9246C122.488 42.967 124.056 41.4651 125.149 41.9356C126.243 42.4061 127.108 43.8323 127.061 44.4929C127.015 45.1534 127.247 45.9689 127.489 47.0963C127.731 48.2237 127.918 49.2052 127.918 49.2052C127.918 49.2052 129.538 47.5797 130.066 45.8176C130.594 44.0556 130.338 42.2695 128.393 41.0868C126.447 39.9041 122.522 40.4705 122.522 40.4705Z" fill="#F2668B"/>
<path opacity="0.2" d="M122.522 40.4705C122.522 40.4705 119.948 40.8027 119.23 41.8415C118.512 42.8802 117.99 43.8711 118.514 44.4929C119.382 45.4228 120.343 46.2629 121.382 47.0004C122.239 47.5686 123.578 49.5115 123.578 49.5115C123.685 48.695 123.747 47.8733 123.764 47.0502C123.764 46.0077 122.857 44.8822 122.672 43.9246C122.488 42.967 124.056 41.4651 125.149 41.9356C126.243 42.4061 127.108 43.8323 127.061 44.4929C127.015 45.1534 127.247 45.9689 127.489 47.0963C127.731 48.2237 127.918 49.2052 127.918 49.2052C127.918 49.2052 129.538 47.5797 130.066 45.8176C130.594 44.0556 130.338 42.2695 128.393 41.0868C126.447 39.9041 122.522 40.4705 122.522 40.4705Z" fill="white"/>
<path opacity="0.2" d="M129.233 41.7323C128.978 41.4855 128.696 41.2688 128.391 41.0865C126.433 39.902 122.522 40.4702 122.522 40.4702C122.522 40.4702 119.948 40.8024 119.23 41.8412C119.148 41.9629 119.066 42.0847 118.99 42.2102C118.899 42.8468 119.052 43.4944 119.42 44.0239C120.491 45.714 122.697 46.524 123.758 47.0037C123.725 45.9797 122.851 44.869 122.667 43.9409C122.483 43.0128 124.05 41.4814 125.144 41.9519C126.237 42.4224 127.102 43.8486 127.055 44.5092C127.009 45.1697 127.241 45.9852 127.483 47.1108L127.524 47.3174C127.606 47.2381 127.688 47.1569 127.77 47.0646C128.83 45.9115 129.409 44.402 129.391 42.8412C129.391 42.466 129.338 42.0927 129.233 41.7323Z" fill="white"/>
<path d="M122.092 38.623C122.092 38.623 122.38 42.0309 122.475 42.9793C122.57 43.9277 123.094 46.3393 124.707 46.8098C126.319 47.2803 127.282 45.4407 127.046 44.0679C126.81 42.6952 126.38 41.4165 126.38 40.9423C126.392 40.7362 126.375 40.5295 126.33 40.3279L122.092 38.623Z" fill="#F9B499"/>
<path d="M126.338 40.3192L122.092 38.6162C122.092 38.6162 122.311 41.2086 122.429 42.5001L126.39 40.8617C126.395 40.6794 126.377 40.4973 126.338 40.3192Z" fill="#F7A48B"/>
<path d="M127.344 32.2431C127.344 32.2431 128.106 36.4038 128.106 37.1621C128.106 37.9205 127.407 40.1254 127.091 40.6291C126.775 41.1328 125.179 41.4409 124.549 41.1937C123.918 40.9464 122.131 39.2988 121.759 38.6105C121.53 38.1938 121.359 37.7482 121.252 37.2858C121.252 37.2858 120.361 37.6659 119.663 36.6547C118.966 35.6436 119.345 34.7026 120.035 34.6399L120.671 34.8244C120.671 34.8244 119.528 32.8704 119.907 31.9885C120.286 31.1065 124.865 30.791 125.817 30.791C126.769 30.791 127.344 32.2431 127.344 32.2431Z" fill="#F9B499"/>
<path d="M127.838 38.5475C127.838 38.5475 127.716 37.1101 127.426 36.9035C127.136 36.6968 124.969 36.8629 124.969 36.8629C124.969 36.8629 122.786 36.2485 122.737 36.7411C122.706 37.1101 122.804 39.0272 122.896 39.9257C123.507 40.5088 124.197 41.0586 124.534 41.1933C125.168 41.4461 126.765 41.1324 127.076 40.6287C127.395 39.9651 127.644 39.2708 127.82 38.5567L127.838 38.5475ZM127.342 38.7947C127.093 39.6065 126.555 40.1084 126.308 39.9866C126.061 39.8649 125.851 39.0807 125.644 38.9995C125.438 38.9183 125.272 39.3279 125.025 39.6988C124.778 40.0697 124.114 40.1914 123.824 39.946C123.533 39.7006 123.201 37.4386 123.201 37.1507C123.201 36.8629 126.226 37.3168 126.226 37.3168C126.542 37.2765 126.86 37.2629 127.178 37.2762C127.383 37.3168 127.589 37.9736 127.342 38.7947Z" fill="#2F2E41"/>
<path d="M119.656 29.533C119.656 29.533 118.018 31.1585 118.641 32.5608C119.264 33.9631 120.872 36.5278 120.872 36.5278H121.188L121.125 35.4447C121.125 35.4447 122.14 35.0757 121.945 34.1863C121.835 33.6646 121.62 33.1705 121.311 32.7342C121.311 32.7342 122.403 33.5461 123.662 33.3653C124.921 33.1844 125.505 31.6641 125.949 32.1678C126.393 32.6715 127.093 32.9815 128.424 32.2933C129.756 31.605 130.607 29.2525 129.151 28.306C127.695 27.3595 126.328 28.199 125.566 28.3853C124.803 28.5717 124.233 27.3023 122.518 27.8189C121.441 28.1577 120.46 28.7452 119.656 29.533Z" fill="#2F2E41"/>
<path d="M124.954 50.4102C122.61 50.4109 120.318 49.722 118.369 48.4304C116.42 47.1389 114.9 45.3028 114.002 43.1543C113.105 41.0058 112.869 38.6415 113.326 36.3603C113.783 34.0791 114.911 31.9836 116.568 30.3386C118.225 28.6937 120.337 27.5732 122.636 27.119C124.935 26.6648 127.318 26.8972 129.484 27.7868C131.649 28.6764 133.501 30.1833 134.803 32.1168C136.106 34.0504 136.801 36.3238 136.802 38.6496C136.799 41.7668 135.55 44.7557 133.329 46.9604C131.108 49.1652 128.096 50.4058 124.954 50.4102ZM124.954 27.162C122.664 27.1609 120.424 27.8337 118.519 29.0955C116.614 30.3572 115.129 32.1511 114.252 34.2503C113.374 36.3495 113.144 38.6598 113.59 40.8888C114.036 43.1179 115.139 45.1656 116.758 46.773C118.377 48.3805 120.44 49.4755 122.686 49.9194C124.932 50.3634 127.261 50.1365 129.377 49.2673C131.494 48.3982 133.303 46.9258 134.576 45.0365C135.848 43.1472 136.528 40.9258 136.528 38.6532C136.526 35.6081 135.305 32.6884 133.135 30.5348C130.965 28.3812 128.023 27.1696 124.954 27.1657V27.162Z" fill="#F2668B"/>
<path d="M52.1008 89.1425L51.8517 87.9487L47.8032 87.4062C47.8032 87.4062 49.025 89.7126 52.1008 89.1425Z" fill="#F7A48B"/>
<path d="M46.773 82.7506C46.773 82.7506 47.1003 80.3133 47.8646 79.0069C48.6289 77.7006 50.271 78.0844 50.9274 78.518C51.5839 78.9516 52.6215 81.2856 53.2166 82.8023C53.8117 84.319 54.0907 85.188 54.0907 85.188C54.0907 85.188 53.146 87.166 51.8591 87.9557C50.4941 88.8007 48.9878 88.7675 47.8107 87.4132C47.4057 86.9418 47.0746 86.4124 46.8288 85.843C46.8288 85.843 45.4638 85.4076 45.1346 84.2692C44.8055 83.1307 45.0789 82.5311 45.6256 82.3742C46.1723 82.2174 46.773 82.7506 46.773 82.7506Z" fill="#F9B499"/>
<path d="M71.4598 25.5303H18.2351V28.4049H71.4598V25.5303Z" fill="#F2668B"/>
<path d="M65.7023 42.3546C68.6962 42.3546 71.1232 39.9466 71.1232 36.9761C71.1232 34.0057 68.6962 31.5977 65.7023 31.5977C62.7085 31.5977 60.2815 34.0057 60.2815 36.9761C60.2815 39.9466 62.7085 42.3546 65.7023 42.3546Z" fill="#F2668B"/>
<path d="M68.6963 41.459L75.6625 49.5313L76.5961 48.8136L69.7191 40.5863L69.1854 40.5254L68.5754 41.0808L68.6963 41.459Z" fill="#F2668B"/>
<path d="M65.7024 41.4043C68.1673 41.4043 70.1655 39.4217 70.1655 36.9761C70.1655 34.5304 68.1673 32.5479 65.7024 32.5479C63.2375 32.5479 61.2393 34.5304 61.2393 36.9761C61.2393 39.4217 63.2375 41.4043 65.7024 41.4043Z" fill="white"/>
<path d="M108.931 102.143C107.918 101.514 106.773 101.123 105.584 101.001C105.046 100.946 104.438 100.962 104.001 101.289C103.951 101.318 103.909 101.36 103.88 101.411C103.852 101.461 103.837 101.519 103.838 101.577C103.865 101.658 103.92 101.726 103.994 101.77C104.704 102.272 105.538 102.571 106.407 102.637C107.276 102.702 108.146 102.53 108.924 102.139" fill="#F2668B"/>
<path d="M108.846 102.034C108.073 101.472 107.352 100.844 106.69 100.156C106.026 99.4615 105.559 98.6053 105.337 97.674C105.293 97.5361 105.281 97.3905 105.299 97.2472C105.318 97.104 105.367 96.9663 105.444 96.8438C107.167 98.1741 108.517 99.9011 108.849 102.04" fill="#F2668B"/>
<path d="M108.922 102.12C108.762 101.189 108.776 100.235 108.963 99.3085C109.156 98.3755 109.694 97.548 110.471 96.9893C110.769 97.6793 110.64 98.4746 110.432 99.2034C110.102 100.316 109.592 101.369 108.922 102.32" fill="#F2668B"/>
<path d="M110.596 105.119C109.584 105.279 108.648 105.749 107.918 106.462C107.149 107.156 106.614 108.066 106.384 109.071C107.388 109.01 108.243 108.307 108.859 107.52C109.474 106.732 109.904 105.859 110.583 105.121" fill="#F2668B"/>
<path d="M110.968 105.601C110.565 104.586 110.424 103.487 110.557 102.404C110.69 101.321 111.093 100.289 111.73 99.3994C112.314 101.457 112.102 103.782 110.968 105.601Z" fill="#F2668B"/>
<path d="M113.199 108.232C112.265 108.177 111.336 108.394 110.526 108.858C109.715 109.322 109.06 110.011 108.641 110.841C108.605 110.892 108.583 110.952 108.577 111.014C108.572 111.076 108.584 111.139 108.611 111.195C108.651 111.234 108.699 111.262 108.752 111.277C108.805 111.293 108.861 111.295 108.915 111.284C109.815 111.227 110.611 110.69 111.271 110.075C111.931 109.461 112.504 108.758 113.231 108.23" fill="#F2668B"/>
<path d="M113.121 108.088C112.641 106.556 112.612 104.92 113.036 103.372C113.205 102.763 113.487 102.125 114.053 101.841C114.068 101.827 114.086 101.817 114.106 101.811C114.125 101.805 114.146 101.803 114.166 101.804C114.187 101.806 114.207 101.812 114.225 101.821C114.243 101.831 114.259 101.843 114.272 101.859C114.288 101.879 114.299 101.901 114.304 101.926C114.495 102.35 114.578 102.816 114.544 103.28C114.511 103.741 114.44 104.199 114.332 104.649C114.146 105.487 114.064 106.385 113.588 107.107C113.48 107.278 113.382 107.455 113.296 107.638C113.207 107.823 113.207 107.889 113.127 108.033" fill="#F2668B"/>
<path d="M119.02 108.959C118.822 108.098 118.816 107.205 119.001 106.342C119.186 105.479 119.559 104.666 120.093 103.96C120.171 103.859 120.279 103.752 120.398 103.765C120.584 103.781 120.641 104.032 120.634 104.228C120.556 105.923 119.999 107.563 119.025 108.959" fill="#F2668B"/>
<path d="M119.552 109.326C120.583 109.567 121.655 109.583 122.694 109.373C123.732 109.163 124.713 108.733 125.568 108.112C124.562 107.608 123.411 107.466 122.311 107.71C121.224 107.955 120.232 108.448 119.554 109.321" fill="#F2668B"/>
<path d="M119.998 108.221C120.595 107.308 121.401 106.548 122.35 106.003C123.299 105.457 124.365 105.143 125.46 105.084C125.211 105.955 124.487 106.632 123.675 107.042C122.84 107.414 121.958 107.671 121.052 107.804C120.705 107.87 120.227 107.944 119.998 108.215" fill="#F2668B"/>
<path d="M119.133 102.892C119.475 101.862 119.709 100.8 119.831 99.7226C119.95 98.637 119.728 97.5414 119.195 96.5859C118.138 98.6155 118.031 100.983 119.102 103.005" fill="#F2668B"/>
<path d="M122.683 101.112C123.918 98.8814 126.436 97.1027 128.988 96.8555C128.004 99.2836 125.324 101.162 122.683 101.112Z" fill="#F2668B"/>
<path d="M121.91 101.547C123.754 101.826 125.324 102.992 127.044 103.702C127.406 103.873 127.807 103.948 128.206 103.92C128.392 103.918 128.573 103.858 128.724 103.75C128.875 103.642 128.988 103.49 129.049 103.316C129.11 103.142 129.115 102.953 129.064 102.776C129.013 102.598 128.909 102.44 128.764 102.324C128.521 102.101 128.235 101.928 127.924 101.817C126.045 101.042 124.035 101.018 122.058 101.492" fill="#F2668B"/>
<path d="M120.846 102.83C121.263 102.946 121.404 103.162 121.737 103.44C122.863 104.39 124.195 105.07 125.629 105.426C125.776 105.463 125.973 105.476 126.045 105.343C126.07 105.278 126.073 105.208 126.055 105.142C126.037 105.076 125.999 105.017 125.945 104.974C125.319 104.246 124.507 103.699 123.594 103.391C122.696 103.058 121.921 102.652 120.846 102.745" fill="#F2668B"/>
<path d="M119.643 95.0857C120.398 95.7763 121.29 96.3027 122.262 96.6313C123.234 96.9598 124.264 97.0832 125.287 96.9936C125.385 96.9954 125.481 96.962 125.556 96.8995C125.698 96.7482 125.527 96.512 125.359 96.3681C123.701 95.0857 121.69 94.5507 119.648 95.0765" fill="#F2668B"/>
<path d="M121.069 94.5667C122.069 93.8371 123.229 93.3521 124.454 93.1514C125.678 92.9507 126.934 93.0399 128.117 93.4117C127.196 94.261 126.012 94.7767 124.759 94.8749C123.52 94.9879 122.271 94.8836 121.069 94.5667Z" fill="#F2668B"/>
<path d="M120.504 91.0097C120.34 89.3639 120.444 88.0576 120.329 86.4136C120.329 86.2826 120.292 86.1239 120.167 86.076C119.994 86.0095 119.849 86.2217 119.795 86.397C119.555 87.1629 119.493 87.9733 119.616 88.7662C119.739 89.5592 120.042 90.314 120.504 90.9728" fill="#F2668B"/>
<path d="M120.383 91.1906C121.465 90.4965 122.397 89.5973 123.128 88.5447C123.663 87.8067 124.128 86.9247 124.004 86.0225C123.622 86.0325 123.247 86.1248 122.905 86.293C122.563 86.4613 122.262 86.7014 122.023 86.9967C121.549 87.5926 121.204 88.2791 121.01 89.0134C120.79 89.7366 120.638 90.4802 120.377 91.1906" fill="#F2668B"/>
<path d="M123.08 90.4376C125.552 89.5297 127.841 88.1913 129.839 86.4854C129.034 86.1644 128.106 86.3581 127.299 86.6699C125.464 87.3631 123.95 88.7006 123.044 90.4284" fill="#F2668B"/>
<path d="M121.142 92.091C122.386 92.2669 123.648 92.2731 124.894 92.1095C126.112 91.9065 127.262 91.4287 128.398 90.9545C128.498 90.924 128.583 90.8584 128.638 90.77C128.656 90.718 128.657 90.6618 128.642 90.609C128.627 90.5561 128.595 90.5093 128.552 90.4747C128.463 90.4065 128.361 90.3586 128.251 90.3345C126.996 90.0342 125.679 90.1126 124.468 90.5596C123.309 90.9521 122.195 91.4641 121.143 92.0874" fill="#F2668B"/>
<path d="M114.017 95.1409C113.616 94.2891 113.404 93.3621 113.393 92.422C113.383 91.482 113.576 90.5506 113.958 89.6904C114.477 90.4728 114.538 91.471 114.443 92.4009C114.348 93.3308 114.071 94.2903 114.043 95.2257" fill="#F2668B"/>
<path d="M110.618 93.4412C109.553 93.4261 108.497 93.6317 107.517 94.0447C106.537 94.4577 105.654 95.0691 104.926 95.8398C106 95.9655 107.087 95.7661 108.044 95.2679C108.995 94.7658 109.894 94.1712 110.726 93.4929" fill="#F2668B"/>
<path d="M108.334 92.6818C107.293 92.5988 106.289 92.4714 105.294 92.774C104.788 92.9138 104.318 93.1604 103.917 93.497C103.517 93.8337 103.194 94.2523 102.971 94.7243C103.952 94.804 104.937 94.6204 105.822 94.1929C106.702 93.7655 107.541 93.2604 108.329 92.6836" fill="#F2668B"/>
<path d="M111.711 92.7151C110.782 92.1099 109.816 91.4899 108.736 91.239C107.656 90.988 106.385 91.1726 105.627 91.9862C106.508 92.501 107.579 92.5619 108.602 92.5582C109.625 92.5545 110.875 92.5582 111.84 92.8867" fill="#F2668B"/>
<path d="M111.723 92.7668C110.114 91.2077 109.519 88.4123 110.163 86.2812C111.423 88.1989 111.975 90.4909 111.723 92.7668Z" fill="#F2668B"/>
<path d="M116.119 88.353C116.42 87.6556 116.632 86.9267 116.902 86.2256C117.148 85.5073 117.527 84.8405 118.018 84.2587C118.519 83.6751 119.23 83.3095 120 83.2402C119.754 84.3135 119.286 85.3242 118.624 86.2074C117.962 87.0907 117.121 87.8271 116.156 88.3696" fill="#F2668B"/>
<path d="M115.334 89.2734C114.836 88.5889 114.261 87.6774 113.582 87.1589C112.904 86.6405 112.026 86.3508 111.2 86.5353C111.628 87.2788 112.224 87.9133 112.941 88.3885C113.659 88.8638 114.478 89.1668 115.334 89.2734Z" fill="#F2668B"/>
<path d="M115.481 88.4086C115.122 87.5967 114.856 86.7476 114.687 85.8771C114.522 84.9959 114.663 84.0854 115.087 83.2939C115.966 84.9398 116.247 86.7074 115.522 88.4215" fill="#F2668B"/>
<path d="M116.137 83.2993C116.634 81.6682 118.14 80.4652 119.766 79.9154C119.967 79.8339 120.185 79.801 120.402 79.8194C120.509 79.832 120.611 79.8756 120.694 79.9447C120.778 80.0139 120.839 80.1056 120.87 80.2087C120.93 80.4744 120.699 80.7401 120.482 80.9172C119.213 82.0014 117.735 82.8175 116.137 83.3159" fill="#F2668B"/>
<path d="M116.137 81.9632C116.203 80.9134 116.27 79.8358 116.614 78.8487C116.958 77.8616 117.623 76.9169 118.588 76.4814C118.756 77.5442 118.284 78.6088 117.713 79.5129C117.142 80.417 116.455 81.2898 116.104 82.312" fill="#F2668B"/>
<path d="M116.119 82.6904C115.706 81.5003 115.667 79.9892 114.947 78.9522C114.447 78.229 113.645 77.7363 113.21 76.9688C112.95 77.7047 112.987 78.5118 113.313 79.2216C113.642 79.925 114.096 80.5637 114.653 81.1073C115.189 81.6701 115.639 82.0944 116.141 82.6904" fill="#F2668B"/>
<path d="M116.137 117.704C116.106 117.704 116.076 109.77 116.076 99.9913C116.076 90.2122 116.098 82.2783 116.13 82.2783C116.161 82.2783 116.189 90.2122 116.191 99.9913C116.193 109.77 116.16 117.704 116.137 117.704Z" fill="#2F2E41"/>
<path d="M123.109 93.9453C123.012 93.9915 122.91 94.0285 122.806 94.056L121.98 94.3217C121.283 94.5597 120.323 94.8992 119.284 95.3218C118.244 95.7443 117.29 96.1299 116.732 96.593C116.512 96.7753 116.337 97.0058 116.221 97.2665C116.139 97.451 116.126 97.5672 116.115 97.5654C116.104 97.5636 116.115 97.5359 116.115 97.4824C116.127 97.4037 116.147 97.3265 116.175 97.2517C116.283 96.9829 116.455 96.7442 116.677 96.5561C117.009 96.2753 117.382 96.0452 117.783 95.8734C118.226 95.6686 118.713 95.4528 119.239 95.2406C120.283 94.8162 121.248 94.4878 121.952 94.2682C122.306 94.1593 122.594 94.0837 122.795 94.0265C122.897 93.9894 123.002 93.9622 123.109 93.9453Z" fill="#2F2E41"/>
<path d="M125.404 88.3643C125.379 88.3978 125.351 88.4282 125.318 88.4547L125.064 88.6945L124.104 89.5562L120.917 92.3718C119.673 93.4789 118.596 94.5214 117.852 95.3129C117.48 95.7059 117.186 96.0325 116.985 96.2613L116.753 96.527C116.728 96.5595 116.698 96.5886 116.666 96.6137C116.685 96.5774 116.709 96.5433 116.736 96.5122C116.803 96.4199 116.874 96.3312 116.95 96.2465C117.136 96.0085 117.424 95.6745 117.792 95.2705C118.755 94.2273 119.773 93.2351 120.84 92.298C122.088 91.202 123.224 90.2186 124.058 89.5082L125.041 88.6724L125.311 88.4491C125.337 88.4162 125.369 88.3876 125.404 88.3643Z" fill="#2F2E41"/>
<path d="M119.572 93.4896C119.541 93.473 119.801 92.877 120.061 92.1242C120.322 91.3714 120.444 90.7367 120.48 90.7422C120.45 91.2286 120.346 91.7076 120.171 92.163C120.058 92.4877 119.929 92.8057 119.782 93.1169C119.732 93.2512 119.661 93.377 119.572 93.4896Z" fill="#2F2E41"/>
<path d="M116.137 98.2901C116.07 98.2216 116.008 98.1482 115.951 98.0706L115.461 97.4451C115.048 96.9118 114.477 96.183 113.839 95.3859C113.201 94.5889 112.612 93.8693 112.184 93.3563L111.684 92.7419C111.617 92.6687 111.559 92.5889 111.509 92.5039C111.585 92.5668 111.656 92.6366 111.719 92.7124L112.255 93.3047C112.697 93.8102 113.294 94.5206 113.928 95.3214C114.562 96.1221 115.13 96.862 115.537 97.4008C115.736 97.6683 115.894 97.8934 115.998 98.0503C116.054 98.1246 116.1 98.2051 116.137 98.2901Z" fill="#2F2E41"/>
<path d="M114.601 96.3388C114.293 95.9995 114.073 95.5902 113.962 95.1469C113.841 94.7584 113.79 94.3517 113.813 93.9458H113.865C113.843 94.0362 113.828 94.0823 113.817 94.0823C113.805 94.0823 113.817 94.0306 113.817 93.9365H113.867C113.893 94.3332 113.961 94.7259 114.071 95.1082C114.217 95.5308 114.394 95.9422 114.601 96.3388Z" fill="#2F2E41"/>
<path d="M112.623 93.8696C112.486 93.7618 112.336 93.6725 112.176 93.6039C111.773 93.484 111.349 93.4507 110.932 93.5061C110.51 93.5398 110.091 93.607 109.679 93.7072C109.51 93.7605 109.338 93.8018 109.164 93.8308C109.317 93.7373 109.484 93.6687 109.658 93.6279C110.07 93.5023 110.494 93.423 110.923 93.3917C111.356 93.3329 111.798 93.3804 112.208 93.5301C112.383 93.5905 112.53 93.7109 112.623 93.8696Z" fill="#2F2E41"/>
<path d="M112.156 93.2719C112.156 93.2903 111.888 93.1686 111.47 93.0246C110.358 92.6459 109.167 92.5545 108.009 92.7589C107.566 92.8346 107.299 92.9176 107.293 92.8992C107.351 92.864 107.413 92.8379 107.479 92.8217C107.649 92.7645 107.821 92.7164 107.996 92.6778C108.578 92.5516 109.175 92.5106 109.768 92.556C110.362 92.6009 110.945 92.7308 111.501 92.9416C111.669 93.0063 111.833 93.0802 111.992 93.163C112.052 93.1915 112.107 93.2282 112.156 93.2719Z" fill="#2F2E41"/>
<path d="M116.119 90.7427C115.914 90.179 115.747 89.6028 115.619 89.0175C115.45 88.4424 115.32 87.8568 115.23 87.2646C115.434 87.8283 115.602 88.4045 115.73 88.9898C115.896 89.5656 116.026 90.151 116.119 90.7427Z" fill="#2F2E41"/>
<path d="M116.152 90.7422C115.99 90.3859 115.803 90.0407 115.594 89.709C115.36 89.3967 115.084 89.1163 114.776 88.875C114.893 88.9021 115.002 88.9565 115.094 89.0337C115.325 89.203 115.526 89.4087 115.689 89.6426C115.937 89.9632 116.096 90.3421 116.152 90.7422Z" fill="#2F2E41"/>
<path d="M116.137 113.474C116.137 113.474 116.1 113.29 116.013 112.943C115.879 112.468 115.699 112.007 115.475 111.566C114.707 110.132 113.754 108.802 112.641 107.611C112.009 106.891 111.395 106.216 110.875 105.566C110.407 104.997 109.984 104.392 109.61 103.758C109.36 103.333 109.147 102.888 108.972 102.428C108.913 102.263 108.87 102.136 108.846 102.046C108.831 102.001 108.82 101.956 108.814 101.909C108.814 101.909 108.883 102.094 109.015 102.413C109.203 102.872 109.426 103.316 109.683 103.741C110.062 104.366 110.489 104.962 110.958 105.524C111.481 106.166 112.095 106.839 112.731 107.553C113.849 108.756 114.798 110.102 115.552 111.557C115.77 112.004 115.939 112.473 116.056 112.956C116.086 113.087 116.109 113.219 116.124 113.352C116.133 113.392 116.138 113.433 116.137 113.474Z" fill="#2F2E41"/>
<path d="M122.438 106.399C122.333 106.469 122.223 106.531 122.109 106.584C121.81 106.751 121.523 106.94 121.252 107.149C120.85 107.459 120.473 107.799 120.125 108.167C119.728 108.582 119.321 109.064 118.905 109.579C118.073 110.614 117.296 111.532 116.829 112.263C116.593 112.632 116.422 112.931 116.31 113.147C116.255 113.259 116.193 113.37 116.125 113.477C116.127 113.444 116.137 113.412 116.152 113.383C116.182 113.324 116.212 113.234 116.266 113.117C116.411 112.805 116.575 112.502 116.757 112.21C117.392 111.272 118.079 110.371 118.815 109.51C119.234 108.994 119.647 108.512 120.048 108.097C120.404 107.728 120.791 107.39 121.205 107.088C121.483 106.884 121.779 106.706 122.088 106.554C122.176 106.511 122.266 106.473 122.358 106.44C122.383 106.424 122.41 106.41 122.438 106.399Z" fill="#2F2E41"/>
<path d="M122.574 108.697C122.342 108.746 122.108 108.78 121.873 108.798C121.311 108.856 120.756 108.965 120.214 109.123C119.678 109.296 119.175 109.556 118.726 109.894C118.384 110.16 118.222 110.376 118.205 110.363C118.231 110.304 118.267 110.249 118.311 110.202C118.422 110.067 118.547 109.943 118.683 109.833C119.126 109.467 119.635 109.189 120.184 109.014C120.733 108.851 121.299 108.752 121.871 108.719C122.104 108.69 122.339 108.682 122.574 108.697Z" fill="#2F2E41"/>
<path d="M118.406 110.123C118.371 110.103 118.674 109.625 118.942 108.983C119.21 108.341 119.21 107.767 119.265 107.773C119.281 107.895 119.277 108.02 119.252 108.142C119.219 108.441 119.151 108.736 119.05 109.02C118.944 109.3 118.808 109.568 118.644 109.819C118.583 109.933 118.502 110.036 118.406 110.123Z" fill="#2F2E41"/>
<path d="M124.484 100.241C124.449 100.266 124.412 100.285 124.372 100.3L124.045 100.45C123.9 100.511 123.725 100.586 123.528 100.691C123.331 100.797 123.102 100.896 122.86 101.04L122.479 101.252C122.347 101.33 122.211 101.42 122.077 101.518C121.809 101.688 121.519 101.887 121.214 102.108C119.926 103.061 118.802 104.214 117.886 105.524C117.683 105.83 117.482 106.118 117.328 106.402C117.246 106.542 117.158 106.668 117.09 106.81C117.021 106.952 116.95 107.075 116.885 107.195C116.749 107.437 116.653 107.668 116.556 107.867C116.471 108.041 116.396 108.219 116.331 108.4L116.191 108.731C116.176 108.77 116.158 108.808 116.137 108.845C116.142 108.802 116.153 108.761 116.169 108.721L116.288 108.384C116.338 108.234 116.405 108.057 116.496 107.852C116.587 107.647 116.682 107.413 116.811 107.166C116.876 107.04 116.943 106.9 117.01 106.775C117.077 106.649 117.164 106.509 117.246 106.36C117.404 106.072 117.601 105.782 117.804 105.47C118.716 104.145 119.848 102.982 121.151 102.031C121.456 101.819 121.741 101.614 122.027 101.446C122.166 101.361 122.297 101.273 122.436 101.199L122.825 100.988C123.068 100.848 123.301 100.749 123.502 100.655C123.677 100.569 123.856 100.494 124.039 100.428L124.376 100.3C124.408 100.275 124.444 100.255 124.484 100.241Z" fill="#2F2E41"/>
<path d="M119.487 103.56C119.533 103.402 119.626 103.261 119.754 103.156C120.064 102.889 120.46 102.739 120.87 102.733C121.269 102.733 121.664 102.81 122.032 102.96C122.189 103.01 122.338 103.081 122.475 103.173C122.315 103.141 122.158 103.095 122.006 103.036C121.641 102.915 121.258 102.853 120.872 102.851C120.489 102.861 120.12 102.99 119.816 103.221C119.7 103.328 119.59 103.441 119.487 103.56Z" fill="#2F2E41"/>
<path d="M118.741 104.327C118.889 104.003 118.995 103.661 119.055 103.311C119.079 102.954 119.056 102.597 118.986 102.246C119.052 102.333 119.096 102.434 119.115 102.541C119.183 102.794 119.202 103.058 119.171 103.318C119.138 103.576 119.06 103.826 118.938 104.056C118.838 104.248 118.752 104.335 118.741 104.327Z" fill="#2F2E41"/>
<path d="M110.605 114.614C110.776 117.646 111.698 120.733 113.114 123.84H119.28C120.621 120.755 121.488 117.677 121.64 114.614H110.605Z" fill="#2F2E41"/>
<path d="M120.638 119.518C120.638 119.55 118.611 119.577 116.11 119.577C113.608 119.577 111.581 119.55 111.581 119.518C111.581 119.487 113.608 119.463 116.11 119.463C118.611 119.463 120.638 119.487 120.638 119.518Z" fill="#FAFAFA"/>
<path d="M120.498 120.618C120.498 120.649 118.596 120.675 116.251 120.675C113.906 120.675 112.007 120.649 112.007 120.618C112.007 120.586 113.908 120.559 116.251 120.559C118.594 120.559 120.498 120.584 120.498 120.618Z" fill="#FAFAFA"/>
<path d="M113.212 116.61C113.292 117.547 113.292 118.488 113.212 119.424C113.138 118.488 113.138 117.547 113.212 116.61Z" fill="#FAFAFA"/>
<path d="M116.513 116.61C116.589 117.584 116.589 118.563 116.513 119.537C116.435 118.563 116.435 117.584 116.513 116.61Z" fill="#FAFAFA"/>
<path d="M119.624 116.579C119.702 117.569 119.702 118.563 119.624 119.553C119.548 118.563 119.548 117.569 119.624 116.579Z" fill="#FAFAFA"/>
<path d="M121.435 116.61C121.435 116.641 119.057 116.669 116.124 116.669C113.192 116.669 110.813 116.641 110.813 116.61C110.813 116.579 113.192 116.555 116.124 116.555C119.057 116.555 121.435 116.571 121.435 116.61Z" fill="#FAFAFA"/>
<path d="M145.68 123.616H18.2351V123.887H145.68V123.616Z" fill="#2F2E41"/>
</svg>
