<svg width="477" height="376" viewBox="0 0 477 376" fill="none" xmlns="http://www.w3.org/2000/svg">
<path d="M376.302 67.9876C349.097 39.6742 306.581 24.6058 266.341 20.8937C254.547 19.8303 242.707 19.3703 230.867 19.5153C114.088 20.6575 79.8849 66.785 87.3678 88.9976C94.8506 111.21 115.908 124.878 85.5314 155.63C55.1546 186.382 20.9017 232.509 38.3031 278.637C55.7044 324.764 127.751 360.645 232.11 354.967C336.468 349.288 404.199 348.706 425.922 306.011C447.645 263.316 400.163 233.942 393.467 197.359C389.338 174.663 399.96 151.78 400.735 129.15C401.571 104.67 391.944 84.2696 376.302 67.9876Z" fill="#F2668B"/>
<path opacity="0.7" d="M376.302 67.9876C349.097 39.6742 306.581 24.6058 266.341 20.8937C254.547 19.8303 242.707 19.3703 230.867 19.5153C114.088 20.6575 79.8849 66.785 87.3678 88.9976C94.8506 111.21 115.908 124.878 85.5314 155.63C55.1546 186.382 20.9017 232.509 38.3031 278.637C55.7044 324.764 127.751 360.645 232.11 354.967C336.468 349.288 404.199 348.706 425.922 306.011C447.645 263.316 400.163 233.942 393.467 197.359C389.338 174.663 399.96 151.78 400.735 129.15C401.571 104.67 391.944 84.2696 376.302 67.9876Z" fill="white"/>
<path d="M130.187 163.834C127.108 174.943 126.69 181.84 126.69 193.916C126.69 266.638 186.349 325.588 259.946 325.588C293.935 325.658 326.673 312.788 351.495 289.597L259.265 196.832L130.187 163.834Z" fill="#F2668B"/>
<path d="M357.179 283.952C380.395 259.573 393.298 227.188 393.202 193.543C393.105 159.898 380.017 127.587 356.663 103.341L267.127 193.646L357.179 283.952Z" fill="#2F2E41"/>
<path d="M133.524 155.102C151.189 102.841 201.117 62.2435 259.946 62.2435C294.195 62.1695 327.163 75.2385 352.039 98.7501L259.919 189.956L133.524 155.102Z" fill="#E6E7E8"/>
<path d="M367.12 150.649C367.006 150.65 366.894 150.627 366.789 150.582C366.685 150.537 366.592 150.47 366.515 150.386C366.442 150.306 366.385 150.214 366.348 150.112C366.311 150.011 366.294 149.904 366.299 149.796C366.303 149.688 366.329 149.583 366.375 149.485C366.42 149.387 366.485 149.3 366.565 149.227L390.948 126.949C391.1 126.813 391.295 126.737 391.498 126.734H450.383C450.601 126.734 450.811 126.821 450.966 126.976C451.12 127.13 451.207 127.34 451.207 127.558C451.207 127.777 451.12 127.986 450.966 128.141C450.811 128.295 450.601 128.382 450.383 128.382H391.823L367.675 150.446C367.521 150.58 367.324 150.652 367.12 150.649Z" fill="#D1D3D4"/>
<path d="M292.225 286.423C294.36 286.423 296.091 284.695 296.091 282.563C296.091 280.431 294.36 278.702 292.225 278.702C290.091 278.702 288.36 280.431 288.36 282.563C288.36 284.695 290.091 286.423 292.225 286.423Z" fill="#2F2E41"/>
<path d="M365.63 155.174C367.765 155.174 369.495 153.446 369.495 151.314C369.495 149.181 367.765 147.453 365.63 147.453C363.495 147.453 361.765 149.181 361.765 151.314C361.765 153.446 363.495 155.174 365.63 155.174Z" fill="#D1D3D4"/>
<path d="M264.85 81.6056C266.985 81.6056 268.716 79.8773 268.716 77.7452C268.716 75.6131 266.985 73.8848 264.85 73.8848C262.716 73.8848 260.985 75.6131 260.985 77.7452C260.985 79.8773 262.716 81.6056 264.85 81.6056Z" fill="#2F2E41"/>
<path d="M384.587 27.3955H295.096C293.161 27.3955 291.593 28.9616 291.593 30.8935V85.939C291.593 87.8709 293.161 89.437 295.096 89.437H384.587C386.522 89.437 388.09 87.8709 388.09 85.939V30.8935C388.09 28.9616 386.522 27.3955 384.587 27.3955Z" fill="#F2668B"/>
<path d="M313.904 47.2744H298.526V85.5218H313.904V47.2744Z" fill="white"/>
<path d="M337.128 34.627H321.145V85.5264H337.128V34.627Z" fill="#2F2E41"/>
<path d="M359.483 62.2432H343.5V85.5211H359.483V62.2432Z" fill="#D1D3D4"/>
<path d="M381.613 40.3496H365.63V85.5271H381.613V40.3496Z" fill="white"/>
<path d="M412.545 110.354H405.766V113.917C406.101 113.523 406.53 113.219 407.014 113.033C407.562 112.802 408.151 112.685 408.746 112.687C409.715 112.644 410.675 112.899 411.495 113.418C412.18 113.875 412.716 114.525 413.034 115.285C413.36 116.052 413.525 116.878 413.518 117.712C413.582 119.123 413.09 120.502 412.149 121.556C411.236 122.526 409.939 123.011 408.256 123.011C406.891 123.082 405.545 122.661 404.463 121.825C403.999 121.442 403.618 120.971 403.341 120.437C403.064 119.904 402.898 119.321 402.852 118.722H405.694C405.801 119.254 406.101 119.727 406.536 120.051C407.024 120.402 407.616 120.58 408.218 120.556C408.566 120.581 408.915 120.524 409.236 120.389C409.558 120.255 409.844 120.047 410.071 119.782C410.513 119.196 410.735 118.473 410.698 117.739C410.751 117.027 410.524 116.322 410.065 115.774C409.819 115.535 409.526 115.351 409.203 115.234C408.881 115.116 408.538 115.068 408.196 115.093C407.69 115.068 407.19 115.212 406.774 115.502C406.359 115.792 406.053 116.212 405.903 116.696H403.105V107.789H412.534L412.545 110.354Z" fill="#F2668B"/>
<path d="M417.042 109.585C417.911 108.223 419.355 107.542 421.375 107.542C423.387 107.542 424.833 108.223 425.702 109.585C426.57 110.947 427.005 112.825 427.005 115.23C427.005 117.635 426.57 119.546 425.702 120.919C424.833 122.292 423.387 122.984 421.375 122.984C419.362 122.984 417.911 122.297 417.042 120.919C416.174 119.541 415.739 117.624 415.739 115.23C415.739 112.836 416.174 110.936 417.042 109.585ZM423.909 112.638C423.809 112.002 423.535 111.405 423.118 110.914C422.631 110.486 422.004 110.249 421.356 110.249C420.707 110.249 420.08 110.486 419.593 110.914C419.176 111.405 418.902 112.002 418.802 112.638C418.657 113.494 418.591 114.362 418.604 115.23C418.59 116.12 418.653 117.009 418.791 117.888C418.883 118.528 419.158 119.129 419.582 119.618C420.078 120.036 420.706 120.265 421.356 120.265C422.005 120.265 422.633 120.036 423.129 119.618C423.557 119.131 423.832 118.53 423.92 117.888C424.06 117.009 424.125 116.12 424.113 115.23C424.124 114.362 424.056 113.494 423.909 112.638Z" fill="#F2668B"/>
<path d="M429.792 109.079C430.378 108.403 431.183 107.954 432.066 107.81C432.949 107.667 433.855 107.838 434.625 108.294C435.395 108.75 435.98 109.462 436.277 110.305C436.575 111.148 436.566 112.069 436.253 112.906C435.939 113.744 435.341 114.444 434.563 114.886C433.784 115.327 432.875 115.481 431.995 115.321C431.114 115.161 430.318 114.696 429.745 114.009C429.173 113.322 428.861 112.455 428.863 111.561C428.838 111.106 428.907 110.65 429.067 110.223C429.227 109.796 429.474 109.406 429.792 109.079ZM431.013 111.561C431.013 112.66 431.398 113.209 432.162 113.209C432.33 113.216 432.497 113.183 432.649 113.112C432.801 113.042 432.934 112.935 433.036 112.802C433.272 112.433 433.382 111.998 433.349 111.561C433.349 110.463 432.954 109.914 432.162 109.914C431.37 109.914 431.013 110.48 431.013 111.561ZM442.262 108.437L434.059 123.016H431.222L439.403 108.431L442.262 108.437ZM438.963 117.388C439.282 117.09 439.658 116.858 440.067 116.707C440.477 116.555 440.913 116.486 441.349 116.504C441.783 116.484 442.217 116.552 442.624 116.704C443.032 116.856 443.404 117.089 443.719 117.388C444.034 117.717 444.277 118.108 444.434 118.537C444.59 118.965 444.655 119.421 444.626 119.875C444.653 120.332 444.587 120.79 444.431 121.221C444.275 121.651 444.033 122.046 443.719 122.379C443.405 122.681 443.034 122.916 442.626 123.07C442.219 123.224 441.784 123.294 441.349 123.274C440.91 123.292 440.472 123.222 440.06 123.069C439.648 122.915 439.272 122.681 438.952 122.379C438.635 122.047 438.391 121.653 438.233 121.223C438.075 120.792 438.007 120.333 438.034 119.875C438.006 119.42 438.073 118.963 438.231 118.535C438.389 118.107 438.635 117.716 438.952 117.388H438.963ZM440.14 119.875C440.14 120.974 440.541 121.523 441.333 121.523C442.124 121.523 442.498 120.974 442.498 119.875C442.498 118.777 442.108 118.228 441.333 118.228C440.557 118.228 440.129 118.794 440.129 119.875H440.14Z" fill="#F2668B"/>
<path d="M194.97 34.5611C194.55 34.2436 194.029 34.0877 193.502 34.1218C193.076 34.0981 192.651 34.1941 192.276 34.3989C191.901 34.6036 191.591 34.9089 191.38 35.2804C190.929 36.0492 190.698 37.3068 190.682 39.042C191.032 38.4751 191.54 38.0227 192.144 37.7406C192.793 37.4245 193.506 37.2629 194.228 37.2683C195.066 37.2527 195.894 37.4552 196.631 37.8559C197.336 38.2462 197.91 38.8367 198.28 39.5527C198.668 40.3853 198.869 41.2924 198.869 42.2105C198.869 43.1287 198.668 44.0358 198.28 44.8684C197.887 45.6402 197.267 46.2742 196.504 46.686C195.538 47.1606 194.466 47.3809 193.39 47.3262C192.315 47.2714 191.271 46.9433 190.357 46.373C189.504 45.6913 188.896 44.7506 188.626 43.6932C188.271 42.3088 188.106 40.8826 188.136 39.4539C188.136 36.9132 188.574 34.9931 189.45 33.6934C190.33 32.392 191.71 31.744 193.607 31.744C194.224 31.7063 194.842 31.7918 195.425 31.9955C196.009 32.1992 196.546 32.5169 197.005 32.9301C197.81 33.7176 198.306 34.768 198.401 35.89H195.691C195.6 35.381 195.348 34.9148 194.97 34.5611ZM191.704 40.316C191.448 40.5525 191.247 40.8434 191.118 41.1675C190.988 41.4916 190.933 41.8405 190.957 42.1886C190.924 42.5457 190.971 42.9056 191.094 43.2425C191.217 43.5795 191.412 43.8852 191.667 44.138C191.922 44.3908 192.229 44.5843 192.567 44.7049C192.905 44.8254 193.266 44.87 193.623 44.8354C193.953 44.8518 194.282 44.7992 194.589 44.6809C194.897 44.5627 195.177 44.3815 195.41 44.149C195.636 43.8977 195.81 43.6045 195.922 43.286C196.034 42.9675 196.083 42.6301 196.064 42.2929C196.105 41.5971 195.879 40.912 195.432 40.3764C195.19 40.1306 194.898 39.9401 194.575 39.8178C194.252 39.6955 193.907 39.6444 193.563 39.668C192.885 39.6476 192.223 39.8784 191.704 40.316Z" fill="#F2668B"/>
<path d="M202.442 33.8309C203.311 32.469 204.753 31.7881 206.769 31.7881C208.785 31.7881 210.229 32.469 211.102 33.8309C211.97 35.1927 212.405 37.0763 212.405 39.4815C212.405 41.8867 211.97 43.7831 211.102 45.1705C210.233 46.5434 208.787 47.2353 206.769 47.2353C204.751 47.2353 203.311 46.5434 202.442 45.1705C201.574 43.7977 201.139 41.8757 201.139 39.4815C201.139 37.0873 201.574 35.1927 202.442 33.8309ZM209.326 36.8841C209.226 36.2458 208.952 35.6473 208.534 35.1543C208.047 34.7261 207.421 34.4899 206.772 34.4899C206.123 34.4899 205.497 34.7261 205.01 35.1543C204.592 35.6437 204.316 36.2382 204.213 36.8731C204.068 37.7312 204.002 38.6005 204.015 39.4705C204.004 40.3601 204.067 41.249 204.202 42.1283C204.293 42.7701 204.57 43.3712 204.999 43.8581C205.495 44.2762 206.123 44.5056 206.772 44.5056C207.421 44.5056 208.049 44.2762 208.545 43.8581C208.97 43.3693 209.245 42.7689 209.337 42.1283C209.474 41.2493 209.537 40.3601 209.524 39.4705C209.536 38.6042 209.469 37.7385 209.326 36.8841Z" fill="#F2668B"/>
<path d="M220.135 33.3317C220.72 32.6568 221.523 32.2087 222.405 32.0658C223.288 31.9228 224.192 32.094 224.96 32.5495C225.729 33.0051 226.313 33.7159 226.609 34.5577C226.906 35.3996 226.898 36.3189 226.585 37.1549C226.272 37.9909 225.674 38.6904 224.897 39.1312C224.12 39.572 223.213 39.726 222.334 39.5662C221.454 39.4064 220.659 38.943 220.088 38.2571C219.516 37.5712 219.204 36.7064 219.206 35.8138C219.18 35.3584 219.249 34.9026 219.409 34.4754C219.569 34.0481 219.816 33.6587 220.135 33.3317ZM221.355 35.8138C221.355 36.9121 221.74 37.4612 222.504 37.4612C222.672 37.4686 222.839 37.4355 222.991 37.3648C223.143 37.2941 223.276 37.1878 223.379 37.0549C223.614 36.6855 223.724 36.2504 223.692 35.8138C223.692 34.7155 223.296 34.1664 222.504 34.1664C221.713 34.1664 221.355 34.7265 221.355 35.8138ZM232.604 32.6892L224.401 47.2743H221.581L229.762 32.6892H232.604ZM229.306 41.6402C229.625 41.3407 230.001 41.1077 230.412 40.955C230.822 40.8023 231.259 40.7328 231.697 40.7506C232.131 40.7324 232.564 40.8018 232.97 40.9547C233.376 41.1076 233.747 41.3407 234.061 41.6402C234.377 41.9696 234.62 42.3608 234.776 42.7889C234.932 43.2171 234.998 43.673 234.969 44.1277C234.996 44.5848 234.929 45.0426 234.773 45.4732C234.617 45.9037 234.375 46.298 234.061 46.6318C233.748 46.932 233.377 47.166 232.971 47.3198C232.564 47.4736 232.131 47.544 231.697 47.5269C231.254 47.5477 230.812 47.4791 230.396 47.3253C229.981 47.1716 229.6 46.9357 229.278 46.6318C228.962 46.2995 228.717 45.9057 228.559 45.475C228.401 45.0442 228.333 44.5857 228.36 44.1277C228.33 43.672 228.396 43.2151 228.555 42.7866C228.713 42.3581 228.959 41.9675 229.278 41.6402H229.306ZM230.482 44.1277C230.482 45.226 230.883 45.7752 231.675 45.7752C232.467 45.7752 232.841 45.226 232.841 44.1277C232.841 43.0295 232.45 42.4803 231.675 42.4803C230.9 42.4803 230.471 43.0459 230.471 44.1277H230.482Z" fill="#F2668B"/>
<path d="M354.287 303.985L348.74 316.966H345.776L351.368 304.336H344.22V301.815H354.276L354.287 303.985Z" fill="#F2668B"/>
<path d="M366.246 304.298H359.483V307.862C359.821 307.468 360.252 307.164 360.737 306.978C361.285 306.747 361.874 306.629 362.469 306.632C363.438 306.586 364.398 306.842 365.218 307.362C365.904 307.821 366.441 308.47 366.762 309.229C367.084 309.998 367.246 310.823 367.241 311.656C367.304 313.066 366.815 314.445 365.877 315.5C364.965 316.47 363.667 316.955 361.985 316.955C360.617 317.027 359.269 316.606 358.186 315.769C357.723 315.386 357.342 314.914 357.066 314.381C356.791 313.848 356.625 313.265 356.58 312.667H359.417C359.529 313.199 359.829 313.673 360.264 314.001C360.744 314.343 361.323 314.519 361.913 314.501C362.262 314.525 362.611 314.467 362.934 314.333C363.257 314.199 363.543 313.991 363.772 313.727C364.214 313.14 364.436 312.417 364.398 311.684C364.45 310.971 364.221 310.265 363.761 309.718C363.514 309.48 363.221 309.296 362.899 309.179C362.576 309.061 362.233 309.013 361.891 309.037C361.385 309.014 360.885 309.16 360.47 309.451C360.055 309.742 359.749 310.162 359.599 310.646H356.833V301.733H366.268L366.246 304.298Z" fill="#F2668B"/>
<path d="M374.977 303.029C375.562 302.354 376.365 301.906 377.248 301.763C378.13 301.62 379.035 301.792 379.803 302.248C380.572 302.703 381.155 303.415 381.452 304.257C381.748 305.099 381.739 306.019 381.425 306.855C381.112 307.691 380.514 308.39 379.736 308.83C378.958 309.27 378.051 309.423 377.171 309.263C376.292 309.102 375.497 308.637 374.926 307.951C374.355 307.264 374.044 306.398 374.047 305.506C374.023 305.051 374.092 304.596 374.252 304.17C374.412 303.744 374.659 303.355 374.977 303.029ZM376.197 305.506C376.197 306.604 376.582 307.153 377.346 307.153C377.514 307.16 377.681 307.127 377.833 307.057C377.985 306.986 378.118 306.88 378.22 306.747C378.456 306.378 378.566 305.942 378.534 305.506C378.534 304.407 378.138 303.858 377.346 303.858C376.554 303.858 376.197 304.424 376.197 305.506ZM387.446 302.381L379.243 316.966H376.406L384.587 302.381H387.446ZM384.147 311.332C384.467 311.033 384.844 310.801 385.254 310.65C385.665 310.498 386.102 310.429 386.539 310.448C386.972 310.429 387.405 310.497 387.811 310.649C388.218 310.801 388.589 311.033 388.903 311.332C389.218 311.661 389.462 312.053 389.618 312.481C389.774 312.909 389.84 313.365 389.81 313.82C389.838 314.277 389.771 314.734 389.615 315.165C389.459 315.595 389.217 315.99 388.903 316.324C388.59 316.625 388.219 316.859 387.813 317.013C387.407 317.167 386.973 317.237 386.539 317.219C386.099 317.237 385.66 317.168 385.247 317.014C384.834 316.86 384.457 316.625 384.136 316.324C383.82 315.991 383.575 315.597 383.417 315.167C383.259 314.736 383.191 314.277 383.218 313.82C383.19 313.364 383.258 312.908 383.416 312.479C383.574 312.051 383.819 311.66 384.136 311.332H384.147ZM385.324 313.82C385.324 314.918 385.725 315.467 386.517 315.467C387.309 315.467 387.683 314.918 387.683 313.82C387.683 312.721 387.292 312.172 386.517 312.172C385.742 312.172 385.313 312.738 385.313 313.82H385.324Z" fill="#F2668B"/>
<path d="M285.023 153.796C286.264 149.956 286.264 145.823 285.023 141.984L278.051 140.177C278.051 140.254 278.09 140.331 278.112 140.408C277.839 139.551 277.515 138.712 277.144 137.893L281.037 131.495C279.192 127.903 276.265 124.98 272.669 123.137L266.461 126.789C266.538 126.828 266.61 126.872 266.681 126.915C265.876 126.503 265.048 126.136 264.202 125.817L262.426 118.541C258.579 117.303 254.441 117.303 250.594 118.541L248.791 125.51L249.022 125.449C248.163 125.723 247.32 126.046 246.498 126.416L240.093 122.528C236.496 124.367 233.569 127.289 231.725 130.88L235.381 137.08L235.507 136.86C235.093 137.666 234.726 138.494 234.408 139.342L227.123 141.138C225.883 144.98 225.883 149.114 227.123 152.956L234.094 154.757C234.094 154.68 234.056 154.603 234.034 154.526C234.307 155.383 234.63 156.222 235.002 157.041L231.109 163.444C232.952 167.036 235.88 169.957 239.477 171.796L245.684 168.15L245.464 168.024C246.268 168.439 247.096 168.806 247.944 169.122L249.72 176.398C253.566 177.637 257.705 177.637 261.552 176.398L263.366 169.408L263.135 169.468C263.995 169.195 264.838 168.87 265.659 168.496L272.064 172.384C275.653 170.541 278.572 167.62 280.41 164.032L276.754 157.832L276.627 158.052C277.043 157.249 277.41 156.422 277.727 155.575L285.023 153.796ZM256.076 158.277C253.932 158.277 251.837 157.642 250.055 156.453C248.273 155.263 246.884 153.573 246.064 151.595C245.244 149.617 245.029 147.441 245.447 145.342C245.865 143.242 246.897 141.314 248.413 139.8C249.928 138.286 251.859 137.255 253.962 136.838C256.064 136.42 258.243 136.634 260.223 137.454C262.203 138.273 263.895 139.66 265.086 141.44C266.277 143.22 266.912 145.313 266.912 147.453C266.912 150.324 265.771 153.077 263.738 155.107C261.706 157.136 258.95 158.277 256.076 158.277Z" fill="#F2668B"/>
<path d="M263.916 234.875C265.156 231.034 265.156 226.9 263.916 223.058L256.944 221.257C256.944 221.334 256.983 221.411 257.005 221.487C256.732 220.631 256.409 219.791 256.037 218.972L259.93 212.569C258.085 208.977 255.158 206.054 251.562 204.212L245.354 207.863L245.574 207.99C244.77 207.575 243.942 207.208 243.095 206.891L241.319 199.615C237.472 198.377 233.334 198.377 229.487 199.615L227.684 206.578L227.915 206.518C227.056 206.792 226.213 207.115 225.391 207.485L218.986 203.597C215.384 205.444 212.454 208.375 210.612 211.976L214.268 218.176L214.395 217.957C213.979 218.76 213.612 219.587 213.295 220.433L206.01 222.212C204.769 226.052 204.769 230.185 206.01 234.024L212.982 235.831C212.982 235.749 212.943 235.677 212.921 235.6C213.197 236.456 213.52 237.296 213.889 238.115L209.996 244.513C211.841 248.105 214.768 251.028 218.365 252.871L224.572 249.219L224.352 249.093C225.156 249.508 225.984 249.874 226.832 250.191L228.607 257.467C232.454 258.705 236.593 258.705 240.439 257.467L242.243 250.504L242.012 250.564C242.871 250.29 243.713 249.968 244.535 249.598L250.941 253.486C254.537 251.643 257.464 248.72 259.309 245.128L255.669 238.884L255.542 239.109C255.957 238.304 256.324 237.475 256.642 236.627L263.916 234.875ZM234.969 239.356C232.824 239.357 230.727 238.723 228.943 237.534C227.159 236.344 225.769 234.653 224.947 232.674C224.126 230.695 223.911 228.517 224.329 226.416C224.747 224.315 225.78 222.385 227.297 220.87C228.813 219.355 230.746 218.324 232.849 217.906C234.953 217.489 237.133 217.703 239.115 218.524C241.096 219.344 242.789 220.733 243.98 222.515C245.171 224.296 245.806 226.391 245.805 228.533C245.804 231.404 244.661 234.157 242.628 236.187C240.595 238.216 237.838 239.356 234.963 239.356H234.969Z" fill="white"/>
<path d="M397.612 325.517H339.003C338.799 325.516 338.603 325.44 338.453 325.302L293.325 284.562C293.164 284.416 293.067 284.213 293.056 283.996C293.046 283.779 293.121 283.567 293.267 283.406C293.413 283.245 293.617 283.149 293.834 283.138C294.051 283.127 294.263 283.203 294.425 283.348L339.316 323.875H397.596C397.814 323.875 398.024 323.961 398.179 324.116C398.334 324.27 398.42 324.48 398.42 324.698C398.42 324.917 398.334 325.126 398.179 325.281C398.024 325.435 397.814 325.522 397.596 325.522L397.612 325.517Z" fill="#2F2E41"/>
<path d="M264.18 77.9104C263.977 77.9134 263.78 77.8387 263.63 77.7017L238.779 55.6923H179.312C179.093 55.6923 178.883 55.6055 178.729 55.4511C178.574 55.2966 178.487 55.0871 178.487 54.8686C178.487 54.6502 178.574 54.4407 178.729 54.2862C178.883 54.1317 179.093 54.0449 179.312 54.0449H239.092C239.295 54.0451 239.49 54.1194 239.642 54.2536L264.73 76.4717C264.855 76.5819 264.944 76.728 264.985 76.8904C265.025 77.0527 265.014 77.2234 264.954 77.3795C264.894 77.5356 264.788 77.6697 264.65 77.7636C264.511 77.8576 264.347 77.9069 264.18 77.9049V77.9104Z" fill="#2F2E41"/>
<path d="M66.9973 256.616L64.3032 328.394C68.1519 330.129 75.7117 325.763 75.7117 325.763L88.9345 255.199L66.9973 256.616Z" fill="#F9B499"/>
<path d="M61.3234 325.137L60.6086 335.175L90.848 336.037C93.7674 325.137 75.7283 326.636 75.7283 326.636V325.774C73.423 326.71 70.9424 327.138 68.4561 327.028C65.9699 326.918 63.5368 326.273 61.3234 325.137Z" fill="#F2668B"/>
<path opacity="0.2" d="M61.3234 325.137L60.6086 335.175L90.848 336.037C93.7674 325.137 75.7283 326.636 75.7283 326.636V325.774C73.423 326.71 70.9424 327.138 68.4561 327.028C65.9699 326.918 63.5368 326.273 61.3234 325.137Z" fill="black"/>
<path d="M71.3684 255.149L64.5728 333.786L52.8675 333.511C52.8675 333.511 45.3296 275.094 44.9832 270.734C44.6369 266.374 46.3413 254.556 46.6327 253.837L71.3684 255.149Z" fill="#F9B499"/>
<path d="M70.857 260.57C70.813 261.059 70.7526 261.668 70.6866 262.541C70.5106 264.304 70.2797 266.77 69.9828 269.807C69.4 275.94 68.5863 284.441 67.7836 293.776C66.9809 303.112 66.2991 311.629 65.8263 317.774C65.5899 320.805 65.3919 323.325 65.2765 325.05C65.2105 325.873 65.106 326.532 65.106 327.027C65.0947 327.26 65.0616 327.491 65.0071 327.719C65.0071 327.482 65.0071 327.252 65.0071 327.016C65.0071 326.527 65.0511 325.917 65.095 325.033C65.1995 323.276 65.348 320.788 65.5184 317.752C65.9143 311.607 66.53 303.106 67.3493 293.743C68.1685 284.381 68.9987 275.896 69.6969 269.774C70.0708 266.742 70.3567 264.249 70.5601 262.525C70.6646 261.696 70.7526 261.042 70.813 260.548C70.8346 260.318 70.8751 260.09 70.934 259.867C70.9333 260.104 70.9075 260.339 70.857 260.57Z" fill="#F7A48B"/>
<path d="M52.1801 328.46C51.3554 328.729 50.0578 329.558 49.9809 330.409C49.7208 331.367 49.6847 332.372 49.8753 333.346C50.066 334.32 50.4783 335.237 51.0805 336.027C54.6487 340.678 62.4285 349.113 64.8256 351.611C65.1176 351.914 65.4904 352.127 65.8997 352.224C66.309 352.321 66.7376 352.299 67.1348 352.161C67.2924 352.097 67.4435 352.018 67.5856 351.924C69.1181 350.968 70.2337 349.47 70.7105 347.729C71.1873 345.988 70.9903 344.131 70.1587 342.529L64.9136 332.254V329.915C60.812 334.616 52.2681 328.399 52.2681 328.399L52.1801 328.46Z" fill="#F2668B"/>
<path d="M52.1085 105.993C52.1085 105.993 57.3702 105.526 58.4753 105.861C66.8131 108.366 75.3882 110.002 84.0633 110.743C85.5589 110.974 87.0879 110.852 88.5277 110.386C89.0733 110.169 89.561 109.829 89.9522 109.391C90.3434 108.954 90.6275 108.432 90.7819 107.866C90.7104 108.728 90.7104 109.59 90.7104 110.452L98.9575 112.803C100.469 110.282 100.387 107.075 99.6008 104.247C98.8146 101.419 97.4016 98.7995 96.3019 96.0703C92.0629 85.3018 93.2285 74.4893 93.7124 61.8701L53.0267 61.4473C50.1237 74.5167 49.0956 93.0446 52.1085 105.993Z" fill="#2F2E41"/>
<path d="M125.948 129.782L126.635 137.234L134.261 135.257C134.261 135.257 148.951 136.355 150.282 136.119C150.85 136.065 151.407 135.922 151.931 135.696L152.129 134.966C153.244 135.054 154.366 135.015 155.472 134.851C157.094 134.565 155.835 133.752 157.094 133.456C157.683 133.356 158.244 133.135 158.743 132.808L158.815 131.556C160.393 131.007 158.815 129.409 158.815 129.409L149.358 129.134C148.061 128.624 141.661 128.997 141.518 128.7C141.375 128.404 145.125 127.838 147.159 127.547L147.302 127.52C147.446 127.484 147.581 127.419 147.699 127.329C147.817 127.24 147.916 127.127 147.99 126.998C148.063 126.869 148.11 126.727 148.127 126.58C148.144 126.433 148.13 126.283 148.088 126.141C146.466 124.681 142.684 125.9 141.518 125.823C140.352 125.746 134.876 125.224 133.601 125.823C132.703 126.414 132.028 127.288 131.682 128.305L125.948 129.782Z" fill="#F9B499"/>
<path d="M135.948 128.244C136.869 128.457 137.745 128.828 138.538 129.342C139.352 129.863 140.028 130.573 140.506 131.412C140.729 131.738 140.86 132.117 140.886 132.511C140.665 132.194 140.461 131.866 140.275 131.528C139.761 130.773 139.099 130.131 138.329 129.639C137.186 129.007 135.986 128.485 134.744 128.079C135.153 128.045 135.564 128.101 135.948 128.244Z" fill="#F7A48B"/>
<path d="M149.056 133.834C149.857 133.805 150.655 133.946 151.398 134.246C151.948 134.636 152.008 135.108 151.948 135.108C151.763 134.866 151.526 134.667 151.255 134.526C150.528 134.318 149.773 134.223 149.017 134.246C147.906 134.242 146.799 134.11 145.719 133.851C146.827 133.717 147.946 133.711 149.056 133.834Z" fill="#F7A48B"/>
<path d="M147.907 131.918C149.134 132.097 150.373 132.183 151.613 132.176C152.308 132.155 153.004 132.175 153.696 132.236C154.265 132.294 154.822 132.441 155.346 132.67C155.72 132.81 156.048 133.051 156.291 133.368C156.456 133.637 156.374 133.818 156.341 133.807C156.308 133.796 156.341 133.642 156.17 133.455C155.909 133.203 155.593 133.015 155.247 132.906C154.066 132.555 152.828 132.434 151.602 132.549C150.338 132.563 149.077 132.437 147.841 132.176C147.325 132.105 146.819 131.972 146.334 131.781C146.862 131.761 147.39 131.808 147.907 131.918Z" fill="#F7A48B"/>
<path d="M149.375 130.194C150.392 130.194 151.794 130.265 153.328 130.348C154.109 130.436 154.84 130.375 155.527 130.436C156.134 130.469 156.735 130.568 157.319 130.732C157.724 130.825 158.101 131.014 158.419 131.281C158.617 131.506 158.656 131.682 158.617 131.699C158.579 131.715 158.535 131.561 158.315 131.397C157.982 131.186 157.606 131.051 157.215 131.001C156.646 130.886 156.069 130.82 155.489 130.803C154.823 130.743 154.081 130.803 153.289 130.743C151.744 130.655 150.337 130.562 149.331 130.474C148.775 130.465 148.221 130.393 147.681 130.26C148.241 130.17 148.81 130.148 149.375 130.194Z" fill="#F7A48B"/>
<path d="M65.2819 89.7659L61.7577 89.4199L60.3997 95.9711L63.1927 104.516L68.1409 106.597L77.1193 108.585L85.9931 108.398L87.89 104.686L80.8854 95.0596L65.2819 89.7659Z" fill="#F9B499"/>
<path d="M102.009 121.232C103.142 124.891 103.499 128.745 103.059 132.55C102.372 139.139 99.1115 141.116 99.1115 141.116L100.799 180.259L57.7221 173.12L52.4714 120.738L64.4132 102.122C64.4132 102.122 77.6086 105.999 82.8372 106.109C88.0659 106.219 87.6095 103.33 87.6095 103.33L102.009 121.232Z" fill="#E6E7E8"/>
<path d="M101.954 172.361C101.954 172.361 100.788 180.247 100.365 191.071C99.9417 201.894 88.0164 259.713 88.0164 259.713L45.8023 257.456C45.8023 257.456 40.1448 211.504 37.8961 196.886C35.6474 182.268 44.7412 162.235 44.7412 162.235L101.954 172.361Z" fill="#2F2E41"/>
<path opacity="0.2" d="M72.325 220.527C73.705 233.223 74.7166 243.591 74.5737 243.591C74.4307 243.591 73.2597 233.3 71.8741 220.604C70.4886 207.908 69.499 197.54 69.6309 197.54C69.7629 197.54 70.934 207.831 72.325 220.527Z" fill="black"/>
<path d="M72.457 153.175C72.5675 152.693 72.8536 152.268 73.2597 151.984C73.5638 151.767 73.9182 151.631 74.2895 151.588C74.6609 151.546 75.0368 151.599 75.382 151.742C75.8113 151.918 76.1751 152.223 76.4229 152.614C76.6708 153.006 76.7903 153.465 76.7649 153.927C76.7395 154.39 76.5704 154.833 76.2812 155.195C75.992 155.558 75.597 155.821 75.1511 155.949C74.7942 156.052 74.417 156.063 74.0545 155.982C73.692 155.9 73.3562 155.728 73.0783 155.482C72.7048 155.158 72.4624 154.709 72.3965 154.219C72.3428 154.04 72.3428 153.849 72.3965 153.67C72.4295 153.67 72.4295 153.856 72.5065 154.169C72.6142 154.604 72.8638 154.99 73.2158 155.268C73.4652 155.468 73.7605 155.604 74.0752 155.662C74.3899 155.721 74.7142 155.7 75.0191 155.603C75.3908 155.489 75.7185 155.264 75.9581 154.958C76.1976 154.653 76.3373 154.281 76.3583 153.893C76.3793 153.506 76.2805 153.121 76.0754 152.791C75.8703 152.461 75.5688 152.203 75.2116 152.05C74.918 151.921 74.597 151.867 74.2774 151.893C73.9578 151.919 73.6497 152.024 73.3807 152.198C73.0111 152.443 72.7313 152.802 72.5835 153.219C72.468 153.516 72.4185 153.697 72.4185 153.697C72.3747 153.524 72.3882 153.341 72.457 153.175Z" fill="#263238"/>
<path d="M80.9019 90.7275L80.6765 95.5654C80.6765 95.5654 87.6041 104.972 90.3201 109.321C93.0361 113.67 98.0174 122.336 99.7273 125.537C104.632 134.746 97.8964 140.979 97.8964 140.979L97.561 147.256L96.0931 194.954L105.808 192.367L103.779 152.418C104.418 153.401 105.403 154.109 106.54 154.401C107.676 154.693 108.881 154.547 109.915 153.994C118.217 149.535 133.557 136.224 133.557 136.224L128.378 126.367L109.365 134.79V134.329C109.365 133.868 106.677 129.211 106.677 129.211L106.82 126.729C106.858 125.795 103.279 120.008 103.279 120.008C103.279 120.008 102.394 110.469 101.047 106.51C99.6998 102.55 95.0319 96.7022 93.8224 96.0102C92.6128 95.3183 82.7658 93.0888 82.7658 93.0888L80.9019 90.7275Z" fill="#F2668B"/>
<path d="M105.341 145.943C105.259 144.232 105.412 142.517 105.797 140.847C106.12 139.151 106.81 137.547 107.821 136.147C108.151 135.735 108.551 135.383 109.003 135.109C109.165 134.992 109.354 134.919 109.552 134.895C108.98 135.285 108.474 135.763 108.051 136.311C107.134 137.716 106.501 139.287 106.188 140.935C105.815 142.576 105.631 144.255 105.638 145.938C105.676 146.638 105.676 147.34 105.638 148.041C105.437 147.36 105.337 146.653 105.341 145.943Z" fill="#263238"/>
<path opacity="0.2" d="M102.102 135.229C102.693 133.573 102.881 131.8 102.652 130.056C102.223 127.463 101.454 124.937 100.365 122.544C99.2655 119.798 98.0999 116.696 96.6594 113.588C95.9561 112.083 95.1266 110.641 94.1798 109.277C93.2561 107.964 92.2005 106.811 91.2273 105.68C89.5119 103.651 88.0223 101.441 86.7849 99.0904C85.5973 97.1629 84.5856 95.6638 83.8654 94.6314L83.0022 93.4453C82.8949 93.3152 82.8027 93.1733 82.7273 93.0225C82.8508 93.1399 82.9631 93.2686 83.0627 93.4069C83.2551 93.6649 83.541 94.0438 83.9259 94.5436C84.6901 95.554 85.7677 97.0366 86.9608 98.9367C88.215 101.253 89.7056 103.434 91.4087 105.444C92.47 106.595 93.4702 107.801 94.4052 109.057C95.3675 110.448 96.2099 111.917 96.9233 113.45C98.3803 116.591 99.4854 119.667 100.601 122.434C101.687 124.856 102.434 127.415 102.823 130.04C103.053 131.835 102.828 133.659 102.168 135.344C101.982 135.793 101.758 136.225 101.498 136.635C101.407 136.779 101.302 136.913 101.184 137.036C101.534 136.457 101.841 135.853 102.102 135.229Z" fill="white"/>
<path d="M104.208 157.19C104.098 156.591 103.961 155.828 103.802 154.966C103.477 153.093 102.982 150.507 102.57 147.618C102.178 145.155 102.016 142.66 102.086 140.166C102.086 139.689 102.136 139.26 102.174 138.881C102.213 138.502 102.24 138.173 102.284 137.915C102.307 137.636 102.365 137.361 102.454 137.097C102.515 137.097 102.356 138.277 102.356 140.172C102.368 142.648 102.563 145.121 102.938 147.569C103.373 150.397 103.769 152.956 104.071 154.922C104.203 155.872 104.302 156.64 104.357 157.168C104.39 157.454 104.39 157.743 104.357 158.03C104.275 157.756 104.225 157.474 104.208 157.19Z" fill="#263238"/>
<g opacity="0.3">
<path d="M109.42 134.806C107.771 136.058 107.254 137.656 106.671 139.655C106.089 141.654 105.907 143.746 105.429 145.772C105.408 145.914 105.351 146.048 105.264 146.162C104.923 146.541 104.307 146.195 104.06 145.756C103.647 144.791 103.576 143.714 103.856 142.703C104.099 140.973 104.646 139.3 105.473 137.761C105.868 137.021 106.415 136.374 107.078 135.861C107.741 135.348 108.506 134.981 109.321 134.784" fill="black"/>
</g>
<path d="M61.8952 93.8412C61.8952 94.3409 68.8722 110.271 71.5993 117.63C74.3263 124.988 77.9825 142.374 78.7468 149.134C79.511 155.894 76.3881 193.065 76.3881 193.065L38.9243 180.22C40.1284 169.501 50.3053 147.937 50.3053 147.937L46.2697 125.642C46.2697 125.642 37.6103 98.0037 39.3642 95.9883C41.118 93.973 55.1381 91.1669 55.1381 91.1669L57.5847 88.5091L62.533 87.96C62.533 87.96 61.9172 93.3635 61.8952 93.8412Z" fill="#F2668B"/>
<g opacity="0.3">
<path d="M49.8708 152.12C50.3136 152.662 50.9188 153.047 51.5972 153.219C53.648 153.817 55.8307 153.164 57.964 152.406C60.0972 151.648 62.2799 150.852 64.4132 149.99C65.4827 149.61 66.4976 149.091 67.4316 148.447C68.1096 147.83 68.8238 147.254 69.5704 146.722C71.8685 145.377 75.8601 146.766 78.2738 145.652L78.0814 144.432C76.5749 144.07 75.8272 144.037 74.3207 143.702C70.472 142.884 66.7389 145.141 62.9837 146.289C59.0196 147.486 54.7366 147.486 50.9429 149.21C50.423 149.4 49.9726 149.743 49.6509 150.193C49.5072 150.503 49.4518 150.847 49.4905 151.187C49.5293 151.527 49.6609 151.85 49.8708 152.12Z" fill="black"/>
</g>
<path d="M34.4654 101.418C32.8599 104.922 32.2662 110.957 32.2662 110.957L28.8134 124.543L24.8108 146.08C25.0847 147.988 25.7612 149.817 26.7956 151.445C28.5 154.092 34.9382 153.438 41.3984 152.219C47.8587 151 67.5142 145.08 67.5142 145.08L66.0132 134.647L45.0107 134.927C45.0107 134.927 52.7464 117.772 51.6523 111.863C50.5582 105.954 45.0546 94.1313 44.5048 93.8732C42.4266 92.9397 36.0708 97.9204 34.4654 101.418Z" fill="#F2668B"/>
<path d="M55.6163 92.0614C55.6493 92.4512 55.6933 92.9674 55.7428 93.6154C55.8637 94.9498 56.0727 96.9102 56.5125 99.266C57.0238 102.043 57.7405 104.777 58.6568 107.448C59.1736 108.947 59.7564 110.512 60.4766 112.088C60.632 112.487 60.8157 112.874 61.0264 113.247C61.2815 113.565 61.6424 113.782 62.0436 113.857L64.6331 114.669L65.4963 114.927L65.8867 115.048L65.5403 115.273L62.313 117.377L62.3624 117.107L71.1264 130.1L73.7214 133.944L74.3922 134.987C74.4794 135.104 74.5515 135.231 74.6066 135.366C74.5068 135.264 74.4183 135.152 74.3427 135.031L73.606 134.021L70.9669 130.226L62.137 117.327L62.0326 117.162L62.1975 117.058L65.4194 114.955L65.4688 115.29L64.6057 115.032L61.9886 114.23C61.5098 114.132 61.0835 113.862 60.79 113.472C60.5596 113.082 60.3593 112.674 60.1907 112.253C59.4925 110.661 58.8877 109.09 58.3764 107.574C57.4762 104.886 56.7832 102.132 56.3036 99.3374C55.9846 97.4525 55.7699 95.5514 55.6603 93.6429C55.5998 92.9455 55.5998 92.4457 55.5998 92.0833C55.5774 91.901 55.5774 91.7165 55.5998 91.5342C55.6157 91.7094 55.6212 91.8855 55.6163 92.0614Z" fill="#F2668B"/>
<path opacity="0.2" d="M55.6163 92.0614C55.6493 92.4512 55.6933 92.9674 55.7428 93.6154C55.8637 94.9498 56.0727 96.9102 56.5125 99.266C57.0238 102.043 57.7405 104.777 58.6568 107.448C59.1736 108.947 59.7564 110.512 60.4766 112.088C60.632 112.487 60.8157 112.874 61.0264 113.247C61.2815 113.565 61.6424 113.782 62.0436 113.857L64.6331 114.669L65.4963 114.927L65.8867 115.048L65.5403 115.273L62.313 117.377L62.3624 117.107L71.1264 130.1L73.7214 133.944L74.3922 134.987C74.4794 135.104 74.5515 135.231 74.6066 135.366C74.5068 135.264 74.4183 135.152 74.3427 135.031L73.606 134.021L70.9669 130.226L62.137 117.327L62.0326 117.162L62.1975 117.058L65.4194 114.955L65.4688 115.29L64.6057 115.032L61.9886 114.23C61.5098 114.132 61.0835 113.862 60.79 113.472C60.5596 113.082 60.3593 112.674 60.1907 112.253C59.4925 110.661 58.8877 109.09 58.3764 107.574C57.4762 104.886 56.7832 102.132 56.3036 99.3374C55.9846 97.4525 55.7699 95.5514 55.6603 93.6429C55.5998 92.9455 55.5998 92.4457 55.5998 92.0833C55.5774 91.901 55.5774 91.7165 55.5998 91.5342C55.6157 91.7094 55.6212 91.8855 55.6163 92.0614Z" fill="white"/>
<path opacity="0.2" d="M43.9935 94.1149C44.408 94.1284 44.818 94.2062 45.2085 94.3456C46.6204 94.9227 47.8188 95.9221 48.6393 97.2066C49.2343 98.0688 49.7409 98.9887 50.1513 99.9523C50.6397 101.043 51.0422 102.171 51.3554 103.324C52.113 105.964 52.4452 108.707 52.3395 111.451C52.2753 112.86 52.0577 114.257 51.6908 115.619C51.3279 116.937 50.9705 118.206 50.6461 119.414C49.9644 121.83 49.3156 123.999 48.7273 125.806C48.139 127.612 47.6277 129.056 47.2043 130.039C46.9899 130.523 46.836 130.902 46.6875 131.138C46.6335 131.268 46.5613 131.39 46.4731 131.5C46.5129 131.365 46.5625 131.233 46.6215 131.105C46.7425 130.841 46.88 130.468 47.0669 129.974C47.4298 128.985 47.9246 127.519 48.4689 125.707C49.0132 123.895 49.7005 121.747 50.3053 119.315C50.91 116.882 51.8722 114.263 51.9547 111.391C52.0584 108.686 51.7412 105.981 51.0145 103.373C50.7064 102.235 50.3207 101.12 49.8599 100.035C49.458 99.0911 48.9664 98.1882 48.3919 97.3384C47.6059 96.076 46.4559 95.0806 45.0931 94.4829C44.5804 94.3014 44.0463 94.187 43.5042 94.1424C43.6641 94.1025 43.8301 94.0932 43.9935 94.1149Z" fill="black"/>
<path opacity="0.2" d="M41.338 133.845C42.7417 134.061 44.109 134.47 45.4011 135.059C45.3626 135.147 43.5427 134.652 41.261 134.197C38.9793 133.741 37.1155 133.521 37.1155 133.411C38.5366 133.349 39.9593 133.495 41.338 133.845Z" fill="black"/>
<path d="M120.609 141.934L89.9794 176.832C89.9794 176.832 66.4422 152.763 67.5253 152.884C68.0091 152.933 98.2319 120.754 98.2319 120.754L120.609 141.934Z" fill="#455A64"/>
<path d="M66.3047 135.932L67.7232 144.982L71.2309 144.18C71.2309 144.18 79.478 144.828 81.1604 144.394C82.8429 143.96 86.9719 143.455 86.9719 143.455C86.8297 143.979 86.8725 144.535 87.0928 145.031C87.2422 145.299 87.4437 145.534 87.6854 145.722C87.9271 145.911 88.2042 146.049 88.5004 146.129L89.9189 143.175C90.5841 144.356 91.5683 143.257 91.5683 143.257L92.5414 140.671C93.3057 142.181 94.6307 140.786 94.6307 140.786L94.9166 137.332C95.4144 137.819 96.0003 138.206 96.643 138.474C97.4402 138.722 97.5062 137.376 97.5062 137.376L93.8994 132.577L85.6963 131.303L73.5016 136.091L66.3047 135.932Z" fill="#F9B499"/>
<path d="M88.8908 132.506C89.4373 132.621 89.9755 132.774 90.5017 132.961C91.1511 133.165 91.7897 133.401 92.415 133.67C93.0465 133.942 93.6473 134.281 94.2074 134.68C94.4858 134.868 94.6823 135.155 94.7572 135.482C94.8092 135.737 94.8404 135.996 94.8507 136.256C94.9471 136.766 94.9303 137.291 94.8012 137.794C94.7572 137.794 94.7297 137.245 94.5812 136.295C94.5428 136.069 94.5043 135.8 94.4438 135.559C94.4137 135.435 94.3588 135.318 94.2822 135.216C94.2056 135.114 94.1091 135.029 93.9985 134.966C93.4507 134.598 92.8711 134.28 92.2666 134.016C91.6233 133.73 90.98 133.499 90.3972 133.291C89.8144 133.082 89.2976 132.884 88.8468 132.775C88.3647 132.658 87.8662 132.627 87.3733 132.681C87.6006 132.549 87.8526 132.466 88.1137 132.436C88.3748 132.405 88.6393 132.429 88.8908 132.506Z" fill="#F7A48B"/>
<path d="M87.9779 135.438C88.8356 135.68 90.0452 135.894 91.3482 136.361C91.699 136.453 92.0242 136.624 92.2994 136.86C92.486 137.123 92.6289 137.414 92.7227 137.722C92.9414 138.229 93.0266 138.783 92.9701 139.331C92.8971 139.68 92.7884 140.021 92.6458 140.347C92.6013 140.472 92.548 140.593 92.4863 140.71C92.4657 140.579 92.4657 140.445 92.4863 140.314C92.5865 139.981 92.6528 139.639 92.6842 139.293C92.6373 138.517 92.4034 137.763 92.0025 137.096C91.7669 136.908 91.493 136.773 91.1998 136.701C89.9407 136.251 88.7476 135.993 87.9009 135.685C87.4272 135.559 86.984 135.339 86.5979 135.037C87.0653 135.144 87.5261 135.278 87.9779 135.438Z" fill="#F7A48B"/>
<path d="M90.2048 142.39C90.3333 142.062 90.3675 141.704 90.3038 141.358C90.2476 141.161 90.1456 140.98 90.0061 140.83C89.8665 140.681 89.6935 140.566 89.501 140.496C89.0816 140.341 88.6396 140.255 88.1925 140.243L87.0434 140.139C86.7135 140.106 86.4386 140.045 86.2737 140.045C86.1087 140.045 86.0373 140.045 86.0153 140.045C85.9933 140.045 86.0593 139.864 86.2627 139.864C86.5243 139.842 86.7873 139.842 87.0489 139.864H88.209C88.7042 139.865 89.1955 139.952 89.6605 140.122C89.9074 140.217 90.1269 140.372 90.2995 140.572C90.4722 140.772 90.5926 141.012 90.6501 141.27C90.7173 141.686 90.6438 142.113 90.4412 142.484C90.2789 142.811 90.0549 143.103 89.7814 143.346C89.8929 143.015 90.0346 142.695 90.2048 142.39Z" fill="#F7A48B"/>
<path d="M51.9217 70.9303C52.8069 76.7402 56.1772 78.3052 61.1419 81.4518L91.8706 68.5141C94.3062 66.054 95.5378 56.5868 92.8877 49.2943C91.5902 45.648 90.4796 41.6723 87.2742 39.4703C84.8318 37.7013 82.026 36.497 79.0601 35.9448C73.3641 35.209 68.1355 35.7526 63.3247 38.8937C57.9201 42.4026 56.0892 48.8385 54.2529 55.0328C53.1203 58.8713 51.3224 67.004 51.9217 70.9303Z" fill="#2F2E41"/>
<path d="M60.1414 48.2021L59.5916 96.5261C69.6805 101.298 77.8726 102.72 80.7866 94.7249L81.089 88.0145C81.3089 85.0381 81.3089 84.8899 81.3089 84.8899C81.3089 84.8899 89.0831 83.9399 91.1669 73.9785C92.2115 69.0363 92.3215 60.8487 92.2115 54.1382C92.1126 48.0977 88.4784 40.5361 82.436 40.893L63.4347 44.737C62.5518 44.7999 61.7244 45.1903 61.115 45.8314C60.5056 46.4726 60.1583 47.3182 60.1414 48.2021Z" fill="#F9B499"/>
<path d="M81.144 87.3608C71.055 87.8276 68.0586 80.6504 68.0586 80.6504C72.0077 83.2538 76.6017 84.7136 81.3309 84.8678L81.144 87.3608Z" fill="#F7A48B"/>
<path d="M82.6173 39.3172C77.8198 37.8049 72.7058 37.5945 67.8001 38.7076C64.3363 39.4984 60.768 41.1952 59.1626 44.3528C56.8479 48.9326 59.476 54.6271 58.063 59.5529C58.6623 60.0478 59.4041 60.3386 60.1804 60.3831C60.9567 60.4275 61.727 60.2232 62.379 59.8C63.6673 58.922 64.6327 57.6473 65.128 56.1702L64.7596 58.213C67.8055 58.7621 70.923 57.2685 73.1332 55.0994C75.3434 52.9303 76.8059 50.1571 78.2299 47.4114C77.8936 50.2134 76.6882 52.8401 74.7826 54.9236C75.3386 55.058 75.9184 55.0609 76.4758 54.9322C77.0332 54.8035 77.5528 54.5468 77.9935 54.1823C78.8661 53.4431 79.5724 52.528 80.0662 51.497C82.0011 47.8806 82.8973 43.8003 82.6558 39.7071" fill="#2F2E41"/>
<path d="M82.2544 39.9976V39.7725C82.2544 39.8493 82.2489 39.9317 82.2544 39.9976Z" fill="#263238"/>
<path d="M80.2422 55.28C80.9771 55.209 81.7186 55.3009 82.4139 55.549C82.7615 55.6686 83.1318 55.7076 83.4966 55.6629C83.8615 55.6181 84.2114 55.4909 84.5197 55.2909C84.8751 54.9398 85.1214 54.4936 85.2289 54.006C86.213 50.7196 86.6259 47.2891 86.4495 43.8634C87.2419 45.7431 87.8459 47.6966 88.2529 49.6952C88.6637 51.7137 88.4979 53.8069 87.7745 55.7358C87.9267 55.9067 88.1404 56.0107 88.369 56.0251C88.5976 56.0395 88.8226 55.9631 88.9951 55.8126C89.3342 55.4956 89.5569 55.074 89.6274 54.6155C89.9515 52.939 89.9906 51.22 89.7428 49.5305C90.5895 51.3811 90.7545 53.4788 91.1339 55.4831C91.5132 57.4875 92.2335 59.5687 93.8279 60.8262C94.3353 58.2968 94.4742 55.7074 94.2403 53.1383C93.9622 50.9756 93.3811 48.8627 92.5139 46.8617C91.7283 44.6359 90.5164 42.5842 88.9456 40.8212C86.1966 37.9876 84.8716 38.9926 82.8978 39.8163L82.2655 40.0195C82.9962 45.1954 82.2966 50.4724 80.2422 55.28Z" fill="#2F2E41"/>
<path d="M72.9573 106.466C69.9938 108.426 66.9094 109.365 64.012 110.485C61.3125 108.628 59.0912 106.159 57.5298 103.281C57.9036 104.928 58.3545 106.576 58.8823 108.174L58.0136 108.887C54.6601 102.294 53.141 94.9225 53.6151 87.5425L59.9929 53.4961L68.7898 53.0293C70.4997 59.6189 65.216 66.3953 66.4421 73.0838C66.9534 75.8295 68.5424 78.372 68.6413 81.178C68.7238 83.8359 67.4427 86.3674 67.4977 89.0087C67.5912 92.1388 69.455 94.8845 71.044 97.5808C72.6329 100.277 73.9854 103.522 72.9573 106.466Z" fill="#2F2E41"/>
<path d="M423.794 189.956H365.63V248.049H423.794V189.956Z" fill="#F2668B"/>
<path d="M385.61 217.061C385.606 216.725 385.7 216.395 385.879 216.111C386.074 215.812 386.351 215.576 386.676 215.43C387.513 215.094 388.447 215.094 389.283 215.43C389.609 215.577 389.887 215.813 390.085 216.111C390.261 216.397 390.353 216.726 390.349 217.061C390.356 217.39 390.264 217.713 390.085 217.989C389.914 218.254 389.675 218.468 389.393 218.61C389.73 218.749 390.017 218.989 390.213 219.296C390.41 219.603 390.507 219.964 390.492 220.328C390.502 220.734 390.387 221.133 390.162 221.471C389.935 221.799 389.618 222.056 389.25 222.212C388.839 222.382 388.399 222.47 387.955 222.47C387.51 222.47 387.07 222.382 386.66 222.212C386.293 222.056 385.978 221.799 385.753 221.471C385.528 221.133 385.413 220.734 385.423 220.328C385.415 219.955 385.518 219.588 385.72 219.274C385.922 218.975 386.209 218.744 386.545 218.61C386.255 218.471 386.012 218.25 385.845 217.975C385.679 217.7 385.598 217.382 385.61 217.061ZM387.089 219.472C386.974 219.571 386.884 219.694 386.825 219.833C386.766 219.972 386.74 220.123 386.748 220.274C386.743 220.42 386.77 220.565 386.827 220.7C386.884 220.834 386.969 220.955 387.078 221.053C387.329 221.265 387.651 221.373 387.98 221.355C388.307 221.375 388.629 221.265 388.876 221.048C388.982 220.95 389.067 220.83 389.123 220.696C389.179 220.562 389.205 220.418 389.2 220.274C389.208 220.124 389.182 219.975 389.124 219.837C389.066 219.699 388.977 219.576 388.865 219.477C388.613 219.281 388.299 219.182 387.98 219.197C387.654 219.181 387.334 219.278 387.072 219.472H387.089ZM388.738 216.523C388.517 216.355 388.246 216.265 387.969 216.265C387.691 216.265 387.42 216.355 387.199 216.523C387.1 216.618 387.023 216.734 386.973 216.862C386.924 216.99 386.903 217.127 386.913 217.264C386.908 217.394 386.933 217.524 386.984 217.643C387.035 217.763 387.112 217.87 387.21 217.956C387.426 218.125 387.692 218.217 387.966 218.217C388.24 218.217 388.506 218.125 388.722 217.956C388.821 217.87 388.9 217.763 388.952 217.642C389.005 217.521 389.029 217.39 389.024 217.259C389.035 217.124 389.016 216.989 388.969 216.862C388.923 216.735 388.85 216.619 388.755 216.523H388.738Z" fill="white"/>
<path d="M396.298 216.474H393.175V218.122C393.325 217.945 393.513 217.806 393.725 217.715C393.979 217.609 394.252 217.555 394.528 217.556C394.973 217.537 395.412 217.656 395.787 217.896C396.105 218.105 396.353 218.403 396.502 218.753C396.645 219.102 396.719 219.475 396.722 219.851C396.752 220.504 396.525 221.143 396.089 221.63C395.856 221.864 395.575 222.045 395.266 222.161C394.957 222.278 394.627 222.327 394.297 222.306C393.665 222.337 393.044 222.143 392.543 221.757C392.33 221.579 392.155 221.361 392.028 221.115C391.9 220.869 391.823 220.6 391.801 220.324H393.12C393.174 220.568 393.312 220.786 393.511 220.939C393.736 221.099 394.009 221.18 394.286 221.169C394.447 221.18 394.608 221.153 394.757 221.091C394.905 221.029 395.038 220.934 395.144 220.812C395.346 220.542 395.447 220.21 395.43 219.873C395.455 219.543 395.35 219.216 395.138 218.962C395.024 218.852 394.888 218.768 394.74 218.714C394.591 218.66 394.433 218.638 394.275 218.649C394.042 218.638 393.811 218.705 393.62 218.839C393.429 218.974 393.288 219.167 393.219 219.39H391.927V215.271H396.282L396.298 216.474Z" fill="white"/>
<path d="M398.068 215.887C398.338 215.575 398.709 215.368 399.117 215.302C399.524 215.236 399.941 215.315 400.296 215.525C400.651 215.735 400.921 216.063 401.058 216.452C401.195 216.84 401.192 217.265 401.047 217.651C400.903 218.037 400.628 218.36 400.269 218.564C399.91 218.768 399.491 218.839 399.085 218.766C398.679 218.692 398.312 218.479 398.048 218.162C397.784 217.846 397.639 217.447 397.64 217.034C397.628 216.824 397.66 216.613 397.734 216.416C397.808 216.218 397.921 216.038 398.068 215.887ZM398.618 217.034C398.618 217.54 398.802 217.792 399.168 217.792C399.246 217.796 399.323 217.781 399.394 217.748C399.465 217.716 399.527 217.667 399.575 217.606C399.677 217.441 399.727 217.25 399.718 217.056C399.718 216.557 399.531 216.304 399.168 216.304C398.805 216.304 398.618 216.535 398.618 217.034ZM403.803 215.59L400.02 222.323H398.712L402.467 215.59H403.803ZM402.28 219.72C402.427 219.583 402.6 219.476 402.789 219.407C402.978 219.337 403.178 219.305 403.38 219.313C403.581 219.303 403.782 219.334 403.971 219.404C404.16 219.474 404.333 219.581 404.479 219.72C404.749 220.043 404.897 220.45 404.897 220.87C404.897 221.291 404.749 221.698 404.479 222.021C404.333 222.16 404.161 222.268 403.972 222.339C403.783 222.41 403.581 222.442 403.38 222.433C403.178 222.441 402.977 222.408 402.788 222.338C402.599 222.267 402.426 222.159 402.28 222.021C402.134 221.868 402.021 221.686 401.948 221.488C401.876 221.29 401.844 221.078 401.857 220.867C401.842 220.658 401.871 220.448 401.942 220.25C402.013 220.053 402.124 219.872 402.269 219.72H402.28ZM402.83 220.867C402.83 221.373 403.013 221.625 403.38 221.625C403.746 221.625 403.929 221.373 403.929 220.867C403.929 220.368 403.748 220.121 403.38 220.121C403.011 220.121 402.813 220.368 402.813 220.867H402.83Z" fill="white"/>
<path d="M394.704 195.684C381.184 195.684 370.226 206.381 370.226 219.582C370.226 232.783 381.184 243.475 394.704 243.475C408.223 243.475 419.181 232.778 419.181 219.582C419.181 206.386 408.223 195.684 394.704 195.684ZM394.704 232.536C387.221 232.536 381.156 226.737 381.156 219.582C381.156 212.427 387.204 206.622 394.704 206.622C402.203 206.622 408.251 212.421 408.251 219.582C408.251 226.743 402.187 232.536 394.704 232.536Z" fill="#2F2E41"/>
<path d="M419.181 219.582C419.181 206.403 408.223 195.684 394.704 195.684V206.622C402.186 206.622 408.251 212.421 408.251 219.582H419.181Z" fill="white"/>
<path d="M246.542 344.576H163.164V278.625L246.591 278.466L246.542 344.576Z" fill="#FAFAFA"/>
<path d="M246.542 344.576V278.466L246.624 278.537L163.301 278.707H163.153L163.263 278.625V344.576L163.169 344.505L246.558 344.576L163.169 344.653H163.087V278.537H163.318L246.641 278.422H246.712V278.488C246.597 318.119 246.542 343.961 246.542 344.576Z" fill="#2F2E41"/>
<path d="M240.934 338.387H236.579L224.676 338.426H168.365V338.316C168.365 327.091 168.365 317.449 168.409 310.59V338.316L168.299 338.211H224.5L236.426 338.277H240.494L240.934 338.387Z" fill="#2F2E41"/>
<path d="M181.676 328.849H174.358V336.169H181.676V328.849Z" fill="#F2668B"/>
<path d="M192.408 323.61H185.09V336.169H192.408V323.61Z" fill="#F2668B"/>
<path d="M203.19 317.669H195.872V336.169H203.19V317.669Z" fill="#F2668B"/>
<path d="M213.631 311.046H206.313V336.169H213.631V311.046Z" fill="#F2668B"/>
<path d="M224.313 302.567H216.995V336.164H224.313V302.567Z" fill="#F2668B"/>
<path d="M234.925 296.104H227.607V335.818H234.925V296.104Z" fill="#F2668B"/>
<g opacity="0.5">
<path d="M192.408 323.61H185.09V336.169H192.408V323.61Z" fill="white"/>
</g>
<g opacity="0.5">
<path d="M234.925 296.104H227.607V335.818H234.925V296.104Z" fill="white"/>
</g>
<path d="M174.358 321.337L174.457 321.271L174.743 321.068L175.842 320.326L180.015 317.581L194.558 308.075L194.723 307.965V311.441L194.558 311.348L200.281 307.504L220.481 293.99L226.611 289.953L228.261 288.855L228.695 288.581C228.744 288.542 228.797 288.511 228.855 288.487L228.712 288.597L228.288 288.894L226.639 289.992L220.536 294.171L200.38 307.724L194.657 311.568L194.481 311.683V308.19L194.646 308.284C188.801 312.095 183.694 315.379 180.076 317.707L175.848 320.453L174.715 321.172L174.418 321.348C174.396 321.32 174.363 321.342 174.358 321.337Z" fill="#2F2E41"/>
<path d="M228.904 291.557C228.838 291.262 228.811 290.959 228.822 290.657V288.46L228.937 288.575H226.254C225.92 288.586 225.586 288.559 225.259 288.493C225.586 288.427 225.92 288.4 226.254 288.411H229.047V290.733C229.024 291.012 228.976 291.287 228.904 291.557Z" fill="#2F2E41"/>
<path d="M202.931 287.208C202.931 287.274 196.532 287.323 188.637 287.323C180.741 287.323 174.342 287.274 174.342 287.208C174.342 287.142 180.741 287.093 188.637 287.093C196.532 287.093 202.931 287.17 202.931 287.208Z" fill="#2F2E41"/>
<path d="M184.832 289.838C184.832 289.904 182.435 289.953 179.471 289.953C176.508 289.953 174.116 289.904 174.116 289.838C174.116 289.772 176.513 289.723 179.471 289.723C182.429 289.723 184.832 289.778 184.832 289.838Z" fill="#2F2E41"/>
<path d="M190.533 289.838C189.158 289.992 187.769 289.992 186.393 289.838C187.769 289.684 189.158 289.684 190.533 289.838Z" fill="#2F2E41"/>
<g opacity="0.3">
<path d="M213.631 311.046H206.313V336.169H213.631V311.046Z" fill="white"/>
</g>
</svg>
