<svg width="188" height="148" viewBox="0 0 188 148" fill="none" xmlns="http://www.w3.org/2000/svg">
<path d="M53.7287 122.216C53.7287 122.216 5.56177 126.349 6.22703 88.3515C6.22703 88.3515 3.55517 58.5765 25.4916 40.8217C30.9505 36.4485 37.372 33.4275 44.2292 32.0068C49.7133 30.8444 59.0789 28.2978 68.7339 23.1294C68.7339 23.1294 110.447 -6.79198 155.307 20.7766C155.307 20.7766 189.035 42.6192 179.254 79.261C179.254 79.261 172.99 118.06 113.054 115.974C113.054 115.974 73.9113 121.125 53.7287 122.216Z" fill="#F2668B"/>
<path opacity="0.7" d="M53.7287 122.216C53.7287 122.216 5.56177 126.349 6.22703 88.3515C6.22703 88.3515 3.55517 58.5765 25.4916 40.8217C30.9505 36.4485 37.372 33.4275 44.2292 32.0068C49.7133 30.8444 59.0789 28.2978 68.7339 23.1294C68.7339 23.1294 110.447 -6.79198 155.307 20.7766C155.307 20.7766 189.035 42.6192 179.254 79.261C179.254 79.261 172.99 118.06 113.054 115.974C113.054 115.974 73.9113 121.125 53.7287 122.216Z" fill="white"/>
<path d="M80.6245 5.9668H22.7097V122.921H80.6245V5.9668Z" fill="#CCCCCC"/>
<path d="M74.082 14.1299H28.9951V26.5333H74.082V14.1299Z" fill="#B3B3B3"/>
<path d="M33.0601 17.5479H31.4099V24.3824H33.0601V17.5479Z" fill="white"/>
<path d="M39.5357 17.5479H37.8855V24.3824H39.5357V17.5479Z" fill="white"/>
<path d="M36.3607 19.0654H34.7104V24.3824H36.3607V19.0654Z" fill="white"/>
<path d="M42.5855 19.0654H40.9353V24.3824H42.5855V19.0654Z" fill="white"/>
<path d="M45.7608 17.5479H44.1106V24.3824H45.7608V17.5479Z" fill="white"/>
<path d="M52.2361 17.5479H50.5859V24.3824H52.2361V17.5479Z" fill="white"/>
<path d="M49.0611 19.0654H47.4109V24.3824H49.0611V19.0654Z" fill="white"/>
<path d="M55.284 19.0654H53.6338V24.3824H55.284V19.0654Z" fill="white"/>
<path d="M58.3338 17.5479H56.6836V24.3824H58.3338V17.5479Z" fill="white"/>
<path d="M64.8094 17.5479H63.1592V24.3824H64.8094V17.5479Z" fill="white"/>
<path d="M61.6341 19.0654H59.9839V24.3824H61.6341V19.0654Z" fill="white"/>
<path d="M67.8592 19.0654H66.209V24.3824H67.8592V19.0654Z" fill="white"/>
<path d="M71.0342 19.0654H69.384V24.3824H71.0342V19.0654Z" fill="white"/>
<path d="M74.2094 31.5957H29.1226V43.9991H74.2094V31.5957Z" fill="#B3B3B3"/>
<path d="M33.1854 35.0146H31.5352V41.8492H33.1854V35.0146Z" fill="white"/>
<path d="M39.6631 35.0146H38.0129V41.8492H39.6631V35.0146Z" fill="white"/>
<path d="M36.4881 36.5342H34.8379V41.8511H36.4881V36.5342Z" fill="white"/>
<path d="M42.7108 36.5342H41.0605V41.8511H42.7108V36.5342Z" fill="white"/>
<path d="M45.886 35.0146H44.2358V41.8492H45.886V35.0146Z" fill="white"/>
<path d="M52.3636 35.0146H50.7134V41.8492H52.3636V35.0146Z" fill="white"/>
<path d="M49.1885 36.5342H47.5383V41.8511H49.1885V36.5342Z" fill="white"/>
<path d="M55.4114 36.5342H53.7612V41.8511H55.4114V36.5342Z" fill="white"/>
<path d="M58.459 35.0146H56.8088V41.8492H58.459V35.0146Z" fill="white"/>
<path d="M64.9368 35.0146H63.2866V41.8492H64.9368V35.0146Z" fill="white"/>
<path d="M61.7615 36.5342H60.1113V41.8511H61.7615V36.5342Z" fill="white"/>
<path d="M67.9844 36.5342H66.3342V41.8511H67.9844V36.5342Z" fill="white"/>
<path d="M71.1595 36.5342H69.5093V41.8511H71.1595V36.5342Z" fill="white"/>
<path d="M74.2094 48.6836H29.1226V61.087H74.2094V48.6836Z" fill="#B3B3B3"/>
<path d="M33.1854 52.1016H31.5352V58.9361H33.1854V52.1016Z" fill="white"/>
<path d="M39.6631 52.1016H38.0129V58.9361H39.6631V52.1016Z" fill="white"/>
<path d="M36.4881 53.6211H34.8379V58.9381H36.4881V53.6211Z" fill="white"/>
<path d="M42.7108 53.6211H41.0605V58.9381H42.7108V53.6211Z" fill="white"/>
<path d="M45.886 52.1016H44.2358V58.9361H45.886V52.1016Z" fill="white"/>
<path d="M52.3636 52.1016H50.7134V58.9361H52.3636V52.1016Z" fill="white"/>
<path d="M49.1885 53.6211H47.5383V58.9381H49.1885V53.6211Z" fill="white"/>
<path d="M55.4114 53.6211H53.7612V58.9381H55.4114V53.6211Z" fill="white"/>
<path d="M58.459 52.1016H56.8088V58.9361H58.459V52.1016Z" fill="white"/>
<path d="M64.9368 52.1016H63.2866V58.9361H64.9368V52.1016Z" fill="white"/>
<path d="M61.7615 53.6211H60.1113V58.9381H61.7615V53.6211Z" fill="white"/>
<path d="M67.9844 53.6211H66.3342V58.9381H67.9844V53.6211Z" fill="white"/>
<path d="M71.1595 53.6211H69.5093V58.9381H71.1595V53.6211Z" fill="white"/>
<path d="M74.2094 66.1523H29.1226V78.5557H74.2094V66.1523Z" fill="#B3B3B3"/>
<path d="M33.1854 69.5684H31.5352V76.4029H33.1854V69.5684Z" fill="white"/>
<path d="M39.6631 69.5684H38.0129V76.4029H39.6631V69.5684Z" fill="white"/>
<path d="M36.4881 71.0879H34.8379V76.4049H36.4881V71.0879Z" fill="white"/>
<path d="M42.7108 71.0879H41.0605V76.4049H42.7108V71.0879Z" fill="white"/>
<path d="M45.886 69.5684H44.2358V76.4029H45.886V69.5684Z" fill="white"/>
<path d="M52.3636 69.5684H50.7134V76.4029H52.3636V69.5684Z" fill="white"/>
<path d="M49.1885 71.0879H47.5383V76.4049H49.1885V71.0879Z" fill="white"/>
<path d="M55.4114 71.0879H53.7612V76.4049H55.4114V71.0879Z" fill="white"/>
<path d="M58.459 69.5684H56.8088V76.4029H58.459V69.5684Z" fill="white"/>
<path d="M64.9368 69.5684H63.2866V76.4029H64.9368V69.5684Z" fill="white"/>
<path d="M61.7615 71.0879H60.1113V76.4049H61.7615V71.0879Z" fill="white"/>
<path d="M67.9844 71.0879H66.3342V76.4049H67.9844V71.0879Z" fill="white"/>
<path d="M71.1595 71.0879H69.5093V76.4049H71.1595V71.0879Z" fill="white"/>
<path d="M74.2094 83.6182H29.1226V96.0215H74.2094V83.6182Z" fill="#B3B3B3"/>
<path d="M33.1854 87.0371H31.5352V93.8717H33.1854V87.0371Z" fill="white"/>
<path d="M39.6631 87.0371H38.0129V93.8717H39.6631V87.0371Z" fill="white"/>
<path d="M36.4881 88.5547H34.8379V93.8717H36.4881V88.5547Z" fill="white"/>
<path d="M42.7108 88.5547H41.0605V93.8717H42.7108V88.5547Z" fill="white"/>
<path d="M45.886 87.0371H44.2358V93.8717H45.886V87.0371Z" fill="white"/>
<path d="M52.3636 87.0371H50.7134V93.8717H52.3636V87.0371Z" fill="white"/>
<path d="M49.1885 88.5547H47.5383V93.8717H49.1885V88.5547Z" fill="white"/>
<path d="M55.4114 88.5547H53.7612V93.8717H55.4114V88.5547Z" fill="white"/>
<path d="M58.459 87.0371H56.8088V93.8717H58.459V87.0371Z" fill="white"/>
<path d="M64.9368 87.0371H63.2866V93.8717H64.9368V87.0371Z" fill="white"/>
<path d="M61.7615 88.5547H60.1113V93.8717H61.7615V88.5547Z" fill="white"/>
<path d="M67.9844 88.5547H66.3342V93.8717H67.9844V88.5547Z" fill="white"/>
<path d="M71.1595 88.5547H69.5093V93.8717H71.1595V88.5547Z" fill="white"/>
<path d="M74.2094 100.579H29.1226V112.982H74.2094V100.579Z" fill="#B3B3B3"/>
<path d="M33.1854 103.997H31.5352V110.832H33.1854V103.997Z" fill="white"/>
<path d="M39.6631 103.997H38.0129V110.832H39.6631V103.997Z" fill="white"/>
<path d="M36.4881 105.515H34.8379V110.832H36.4881V105.515Z" fill="white"/>
<path d="M42.7108 105.515H41.0605V110.832H42.7108V105.515Z" fill="white"/>
<path d="M45.886 103.997H44.2358V110.832H45.886V103.997Z" fill="white"/>
<path d="M52.3636 103.997H50.7134V110.832H52.3636V103.997Z" fill="white"/>
<path d="M49.1885 105.515H47.5383V110.832H49.1885V105.515Z" fill="white"/>
<path d="M55.4114 105.515H53.7612V110.832H55.4114V105.515Z" fill="white"/>
<path d="M58.459 103.997H56.8088V110.832H58.459V103.997Z" fill="white"/>
<path d="M64.9368 103.997H63.2866V110.832H64.9368V103.997Z" fill="white"/>
<path d="M61.7615 105.515H60.1113V110.832H61.7615V105.515Z" fill="white"/>
<path d="M67.9844 105.515H66.3342V110.832H67.9844V105.515Z" fill="white"/>
<path d="M71.1595 105.515H69.5093V110.832H71.1595V105.515Z" fill="white"/>
<path d="M142.306 5.9668H84.3914V122.921H142.306V5.9668Z" fill="#CCCCCC"/>
<path d="M135.764 14.1299H90.677V26.5333H135.764V14.1299Z" fill="#B3B3B3"/>
<path d="M94.7398 17.5479H93.0896V24.3824H94.7398V17.5479Z" fill="white"/>
<path d="M101.217 17.5479H99.5671V24.3824H101.217V17.5479Z" fill="white"/>
<path d="M98.0423 19.0654H96.3921V24.3824H98.0423V19.0654Z" fill="white"/>
<path d="M104.265 19.0654H102.615V24.3824H104.265V19.0654Z" fill="white"/>
<path d="M107.44 17.5479H105.79V24.3824H107.44V17.5479Z" fill="white"/>
<path d="M113.918 17.5479H112.268V24.3824H113.918V17.5479Z" fill="white"/>
<path d="M110.743 19.0654H109.093V24.3824H110.743V19.0654Z" fill="white"/>
<path d="M116.966 19.0654H115.315V24.3824H116.966V19.0654Z" fill="white"/>
<path d="M120.013 17.5479H118.363V24.3824H120.013V17.5479Z" fill="white"/>
<path d="M126.491 17.5479H124.841V24.3824H126.491V17.5479Z" fill="white"/>
<path d="M123.316 19.0654H121.666V24.3824H123.316V19.0654Z" fill="white"/>
<path d="M129.539 19.0654H127.888V24.3824H129.539V19.0654Z" fill="white"/>
<path d="M132.714 19.0654H131.064V24.3824H132.714V19.0654Z" fill="white"/>
<path d="M135.891 31.5957H90.8042V43.9991H135.891V31.5957Z" fill="#B3B3B3"/>
<path d="M94.8672 35.0146H93.217V41.8492H94.8672V35.0146Z" fill="white"/>
<path d="M101.345 35.0146H99.6946V41.8492H101.345V35.0146Z" fill="white"/>
<path d="M98.1697 36.5342H96.5195V41.8511H98.1697V36.5342Z" fill="white"/>
<path d="M104.393 36.5342H102.742V41.8511H104.393V36.5342Z" fill="white"/>
<path d="M107.568 35.0146H105.917V41.8492H107.568V35.0146Z" fill="white"/>
<path d="M114.045 35.0146H112.395V41.8492H114.045V35.0146Z" fill="white"/>
<path d="M110.87 36.5342H109.22V41.8511H110.87V36.5342Z" fill="white"/>
<path d="M117.093 36.5342H115.443V41.8511H117.093V36.5342Z" fill="white"/>
<path d="M120.141 35.0146H118.491V41.8492H120.141V35.0146Z" fill="white"/>
<path d="M126.618 35.0146H124.968V41.8492H126.618V35.0146Z" fill="white"/>
<path d="M123.443 36.5342H121.793V41.8511H123.443V36.5342Z" fill="white"/>
<path d="M129.666 36.5342H128.016V41.8511H129.666V36.5342Z" fill="white"/>
<path d="M132.841 36.5342H131.191V41.8511H132.841V36.5342Z" fill="white"/>
<path d="M135.891 48.6836H90.8042V61.087H135.891V48.6836Z" fill="#B3B3B3"/>
<path d="M94.8672 52.1016H93.217V58.9361H94.8672V52.1016Z" fill="white"/>
<path d="M101.345 52.1016H99.6946V58.9361H101.345V52.1016Z" fill="white"/>
<path d="M98.1697 53.6211H96.5195V58.9381H98.1697V53.6211Z" fill="white"/>
<path d="M104.393 53.6211H102.742V58.9381H104.393V53.6211Z" fill="white"/>
<path d="M107.568 52.1016H105.917V58.9361H107.568V52.1016Z" fill="white"/>
<path d="M114.045 52.1016H112.395V58.9361H114.045V52.1016Z" fill="white"/>
<path d="M110.87 53.6211H109.22V58.9381H110.87V53.6211Z" fill="white"/>
<path d="M117.093 53.6211H115.443V58.9381H117.093V53.6211Z" fill="white"/>
<path d="M120.141 52.1016H118.491V58.9361H120.141V52.1016Z" fill="white"/>
<path d="M126.618 52.1016H124.968V58.9361H126.618V52.1016Z" fill="white"/>
<path d="M123.443 53.6211H121.793V58.9381H123.443V53.6211Z" fill="white"/>
<path d="M129.666 53.6211H128.016V58.9381H129.666V53.6211Z" fill="white"/>
<path d="M132.841 53.6211H131.191V58.9381H132.841V53.6211Z" fill="white"/>
<path d="M135.891 66.1523H90.8042V78.5557H135.891V66.1523Z" fill="#B3B3B3"/>
<path d="M94.8672 69.5684H93.217V76.4029H94.8672V69.5684Z" fill="white"/>
<path d="M101.345 69.5684H99.6946V76.4029H101.345V69.5684Z" fill="white"/>
<path d="M98.1697 71.0879H96.5195V76.4049H98.1697V71.0879Z" fill="white"/>
<path d="M104.393 71.0879H102.742V76.4049H104.393V71.0879Z" fill="white"/>
<path d="M107.568 69.5684H105.917V76.4029H107.568V69.5684Z" fill="white"/>
<path d="M114.045 69.5684H112.395V76.4029H114.045V69.5684Z" fill="white"/>
<path d="M110.87 71.0879H109.22V76.4049H110.87V71.0879Z" fill="white"/>
<path d="M117.093 71.0879H115.443V76.4049H117.093V71.0879Z" fill="white"/>
<path d="M120.141 69.5684H118.491V76.4029H120.141V69.5684Z" fill="white"/>
<path d="M126.618 69.5684H124.968V76.4029H126.618V69.5684Z" fill="white"/>
<path d="M123.443 71.0879H121.793V76.4049H123.443V71.0879Z" fill="white"/>
<path d="M129.666 71.0879H128.016V76.4049H129.666V71.0879Z" fill="white"/>
<path d="M132.841 71.0879H131.191V76.4049H132.841V71.0879Z" fill="white"/>
<path d="M135.891 83.6182H90.8042V96.0215H135.891V83.6182Z" fill="#B3B3B3"/>
<path d="M94.8672 87.0371H93.217V93.8717H94.8672V87.0371Z" fill="white"/>
<path d="M101.345 87.0371H99.6946V93.8717H101.345V87.0371Z" fill="white"/>
<path d="M98.1697 88.5547H96.5195V93.8717H98.1697V88.5547Z" fill="white"/>
<path d="M104.393 88.5547H102.742V93.8717H104.393V88.5547Z" fill="white"/>
<path d="M107.568 87.0371H105.917V93.8717H107.568V87.0371Z" fill="white"/>
<path d="M114.045 87.0371H112.395V93.8717H114.045V87.0371Z" fill="white"/>
<path d="M110.87 88.5547H109.22V93.8717H110.87V88.5547Z" fill="white"/>
<path d="M117.093 88.5547H115.443V93.8717H117.093V88.5547Z" fill="white"/>
<path d="M120.141 87.0371H118.491V93.8717H120.141V87.0371Z" fill="white"/>
<path d="M126.618 87.0371H124.968V93.8717H126.618V87.0371Z" fill="white"/>
<path d="M123.443 88.5547H121.793V93.8717H123.443V88.5547Z" fill="white"/>
<path d="M129.666 88.5547H128.016V93.8717H129.666V88.5547Z" fill="white"/>
<path d="M132.841 88.5547H131.191V93.8717H132.841V88.5547Z" fill="white"/>
<path d="M135.891 100.579H90.8042V112.982H135.891V100.579Z" fill="#B3B3B3"/>
<path d="M94.8672 103.997H93.217V110.832H94.8672V103.997Z" fill="white"/>
<path d="M101.345 103.997H99.6946V110.832H101.345V103.997Z" fill="white"/>
<path d="M98.1697 105.515H96.5195V110.832H98.1697V105.515Z" fill="white"/>
<path d="M104.393 105.515H102.742V110.832H104.393V105.515Z" fill="white"/>
<path d="M107.568 103.997H105.917V110.832H107.568V103.997Z" fill="white"/>
<path d="M114.045 103.997H112.395V110.832H114.045V103.997Z" fill="white"/>
<path d="M110.87 105.515H109.22V110.832H110.87V105.515Z" fill="white"/>
<path d="M117.093 105.515H115.443V110.832H117.093V105.515Z" fill="white"/>
<path d="M120.141 103.997H118.491V110.832H120.141V103.997Z" fill="white"/>
<path d="M126.618 103.997H124.968V110.832H126.618V103.997Z" fill="white"/>
<path d="M123.443 105.515H121.793V110.832H123.443V105.515Z" fill="white"/>
<path d="M129.666 105.515H128.016V110.832H129.666V105.515Z" fill="white"/>
<path d="M132.841 105.515H131.191V110.832H132.841V105.515Z" fill="white"/>
<path d="M51.7113 129.46V127.007L49.2403 126.145C49.1811 125.578 49.0734 125.017 48.9185 124.469L51.0115 122.912L50.059 120.695L47.4195 121.341C47.0565 120.83 46.6472 120.354 46.197 119.918L47.1884 117.466L45.2444 116.099L43.1212 117.866C42.6223 117.654 42.1074 117.48 41.5812 117.348L41.2399 114.734L38.7624 114.502L38.0648 117.085C37.511 117.139 36.9626 117.238 36.4254 117.382L34.7276 115.098L32.5331 116.299L33.1077 118.949C32.6173 119.3 32.1597 119.694 31.7404 120.127L29.2306 118.93L27.7704 120.919L29.7705 122.996C29.5329 123.513 29.34 124.048 29.1938 124.598L26.3103 124.88L26.1829 127.222L28.9022 128.251C28.9607 128.83 29.0698 129.402 29.2284 129.962L26.9453 131.587L27.9799 133.74L30.5719 132.864C30.9265 133.393 31.33 133.888 31.7771 134.343L30.7663 137.031L32.7988 138.422L34.6996 136.426C35.2469 136.686 35.8165 136.895 36.4016 137.053L36.7342 139.815H39.0799L39.8791 137.376C40.5075 137.328 41.1301 137.222 41.7388 137.059L43.335 139.182L45.3676 138.17L44.9204 135.587C45.4307 135.232 45.9078 134.832 46.346 134.392L48.6701 135.389L50.0654 133.378L48.3375 131.549C48.595 131.003 48.8031 130.435 48.9596 129.852L51.7113 129.46ZM39.0108 133.742C37.7292 133.742 36.4764 133.363 35.4108 132.654C34.3452 131.944 33.5147 130.936 33.0242 129.756C32.5338 128.575 32.4054 127.277 32.6555 126.024C32.9055 124.772 33.5226 123.621 34.4289 122.718C35.3351 121.815 36.4897 121.2 37.7467 120.95C39.0036 120.701 40.3065 120.829 41.4906 121.318C42.6746 121.807 43.6866 122.634 44.3986 123.696C45.1106 124.758 45.4907 126.007 45.4907 127.284C45.4907 128.997 44.808 130.639 43.5928 131.851C42.3776 133.062 40.7294 133.742 39.0108 133.742Z" fill="#F2668B"/>
<path d="M152.832 14.27V12.6577L151.212 12.098C151.171 11.7253 151.099 11.3566 150.996 10.9959L152.372 9.97556L151.745 8.52039L150.017 8.938C149.778 8.60292 149.509 8.29022 149.214 8.00377L149.862 6.3893L148.589 5.49166L147.194 6.65192C146.867 6.51105 146.529 6.39729 146.183 6.31181L145.967 4.58972L144.324 4.4541L143.866 6.15036C143.501 6.18684 143.14 6.25235 142.786 6.34625L141.675 4.83942L140.235 5.62728L140.613 7.36874C140.29 7.59868 139.99 7.85734 139.714 8.14153L138.066 7.35583L137.107 8.66247L138.42 10.0272C138.265 10.3663 138.139 10.7177 138.042 11.0777L136.148 11.2628L136.062 12.8019L137.848 13.4779C137.888 13.8579 137.96 14.2338 138.064 14.6015L136.565 15.6778L137.243 17.09L138.943 16.5088C139.176 16.8558 139.441 17.1808 139.734 17.4796L139.068 19.2426L140.403 20.1682L141.654 18.8573C142.013 19.028 142.387 19.1664 142.771 19.2706L142.987 21.0831H144.531L145.056 19.4815C145.468 19.4477 145.877 19.3756 146.276 19.2663L147.326 20.659L148.661 19.9938L148.373 18.2933C148.709 18.0605 149.023 17.7975 149.311 17.5076L150.838 18.1533L151.754 16.8338L150.613 15.6477C150.783 15.2891 150.92 14.9159 151.022 14.5326L152.832 14.27ZM144.486 17.0813C143.644 17.0805 142.821 16.8308 142.122 16.364C141.422 15.8971 140.878 15.234 140.557 14.4585C140.235 13.6831 140.152 12.8301 140.318 12.0076C140.483 11.185 140.89 10.4298 141.486 9.83754C142.082 9.24524 142.841 8.84247 143.667 8.68017C144.493 8.51786 145.348 8.60332 146.125 8.92573C146.902 9.24814 147.566 9.79302 148.032 10.4914C148.499 11.1898 148.747 12.0104 148.745 12.8493C148.744 13.4059 148.633 13.9569 148.419 14.4708C148.204 14.9847 147.89 15.4515 147.495 15.8445C147.099 16.2375 146.63 16.549 146.114 16.7612C145.597 16.9734 145.044 17.0822 144.486 17.0813Z" fill="#F2668B"/>
<path d="M157.886 89.8203H117.372V134.754H157.886V89.8203Z" fill="#2F2E41"/>
<path opacity="0.2" d="M157.886 89.8203H117.372V134.754H157.886V89.8203Z" fill="black"/>
<path d="M162.204 78.3037H113.434V91.721H162.204V78.3037Z" fill="#F2668B"/>
<path opacity="0.3" d="M149.378 83.4287H119.277V86.5931H149.378V83.4287Z" fill="white"/>
<path d="M155.791 87.0989C156.948 87.0989 157.886 86.1641 157.886 85.0109C157.886 83.8577 156.948 82.9229 155.791 82.9229C154.634 82.9229 153.696 83.8577 153.696 85.0109C153.696 86.1641 154.634 87.0989 155.791 87.0989Z" fill="white"/>
<path d="M162.204 95.8105H113.434V109.228H162.204V95.8105Z" fill="#F2668B"/>
<path opacity="0.3" d="M149.378 100.938H119.277V104.103H149.378V100.938Z" fill="white"/>
<path d="M155.791 104.609C156.948 104.609 157.886 103.674 157.886 102.521C157.886 101.367 156.948 100.433 155.791 100.433C154.634 100.433 153.696 101.367 153.696 102.521C153.696 103.674 154.634 104.609 155.791 104.609Z" fill="white"/>
<path d="M162.204 113.742H113.434V127.159H162.204V113.742Z" fill="#F2668B"/>
<path opacity="0.3" d="M149.378 118.869H119.277V122.033H149.378V118.869Z" fill="white"/>
<path d="M155.791 122.539C156.948 122.539 157.886 121.605 157.886 120.451C157.886 119.298 156.948 118.363 155.791 118.363C154.634 118.363 153.696 119.298 153.696 120.451C153.696 121.605 154.634 122.539 155.791 122.539Z" fill="white"/>
<path d="M162.204 131.462H113.434V144.879H162.204V131.462Z" fill="#F2668B"/>
<path opacity="0.3" d="M149.378 136.59H119.277V139.754H149.378V136.59Z" fill="white"/>
<path d="M155.791 140.26C156.948 140.26 157.886 139.325 157.886 138.172C157.886 137.019 156.948 136.084 155.791 136.084C154.634 136.084 153.696 137.019 153.696 138.172C153.696 139.325 154.634 140.26 155.791 140.26Z" fill="white"/>
<path d="M151.182 33.111C151.182 33.111 153.061 40.4041 145.162 39.4031C146.487 38.4094 147.376 36.9438 147.642 35.3125C147.909 33.6811 147.533 32.0102 146.592 30.6488C145.652 29.2873 144.22 28.3406 142.596 28.0064C140.972 27.6722 139.281 27.9764 137.876 28.8553C137.876 28.7821 138.017 27.0234 144.207 27.0234C144.423 27.0234 148.786 27.2387 150.093 29.8477C150.093 29.8477 150.879 27.9641 152.188 28.7326C152.426 28.8789 152.626 29.0787 152.772 29.3162C152.919 29.5536 153.007 29.8219 153.03 30.0995C153.125 31.2167 153.087 33.2703 151.182 33.111Z" fill="#2F2E41"/>
<path d="M144.44 39.21V42.6735L144.391 42.7058C143.778 43.1707 143.042 43.4475 142.274 43.5023C141.687 43.5275 141.099 43.4972 140.518 43.4119V39.21H144.44Z" fill="#F9B499"/>
<path d="M140.518 39.21V41.4896C140.518 41.4896 142.043 42.0342 144.44 41.4896V39.21H140.518Z" fill="#F7A48B"/>
<path d="M152.287 73.094L150.326 73.3092L136.595 67.0107H133.543L128.966 59.1902L134.824 50.5195C134.824 50.5195 136.159 47.8976 138.338 46.3778L139.306 45.5512C139.465 45.4139 139.591 45.242 139.674 45.0487C139.757 44.8555 139.794 44.646 139.783 44.4362C139.753 43.8765 139.844 43.1898 140.518 43.4115C141.099 43.4969 141.687 43.5271 142.274 43.5019C143.042 43.4472 143.778 43.1704 144.391 42.7055L144.44 42.6732C144.693 42.5182 144.982 42.5462 145.088 43.3362V44.4685C145.057 44.6079 145.055 44.7522 145.083 44.8924C145.11 45.0327 145.166 45.1658 145.247 45.2836C145.328 45.4015 145.432 45.5015 145.554 45.5775C145.675 45.6535 145.811 45.7039 145.952 45.7256C145.952 45.7256 149.669 47.4628 150.317 50.287C150.317 50.287 152.933 56.5855 154.458 65.7105C154.467 65.7105 155.994 72.6613 152.287 73.094Z" fill="#F2668B"/>
<g opacity="0.2">
<path d="M140.98 44.262C140.821 44.2636 140.661 44.255 140.503 44.2362C140.488 44.2341 140.475 44.2292 140.462 44.2218C140.45 44.2143 140.439 44.2046 140.43 44.193C140.422 44.1814 140.415 44.1682 140.412 44.1542C140.408 44.1402 140.408 44.1256 140.41 44.1113C140.412 44.0972 140.416 44.0836 140.424 44.0713C140.431 44.0591 140.441 44.0484 140.452 44.0399C140.464 44.0315 140.477 44.0254 140.491 44.0222C140.505 44.0189 140.519 44.0185 140.533 44.0209C140.548 44.0209 141.965 44.2147 143.918 43.4096C143.931 43.4023 143.946 43.3979 143.962 43.3968C143.977 43.3956 143.993 43.3978 144.007 43.403C144.022 43.4083 144.035 43.4165 144.046 43.4272C144.057 43.4379 144.066 43.4508 144.072 43.4651C144.078 43.4794 144.08 43.4948 144.08 43.5102C144.079 43.5256 144.076 43.5408 144.069 43.5546C144.062 43.5685 144.052 43.5807 144.04 43.5906C144.028 43.6005 144.015 43.6077 144 43.6119C143.045 44.0211 142.019 44.2419 140.98 44.262Z" fill="black"/>
</g>
<path opacity="0.2" d="M145.825 66.4836C145.825 66.4836 146.715 65.6225 146.289 61.3969C146.244 60.9384 146.177 60.4821 146.093 60.03C145.907 59.0463 145.544 56.7796 145.935 55.9401C145.966 55.876 146.016 55.8227 146.077 55.7869C146.139 55.7511 146.21 55.7344 146.281 55.739C146.352 55.7437 146.421 55.7694 146.477 55.8128C146.533 55.8563 146.576 55.9156 146.598 55.9831C146.764 56.4739 147.03 57.6191 147.274 60.2883C147.69 62.4438 147.948 64.6266 148.045 66.8194C148.045 66.8194 146.991 66.6041 145.825 66.4836Z" fill="black"/>
<g opacity="0.2">
<path d="M146.404 54.7409C146.375 54.7382 146.348 54.7242 146.33 54.7021C146.311 54.6799 146.302 54.6513 146.304 54.6225C146.736 50.3388 147.559 49.8717 147.652 49.833C147.665 49.8273 147.679 49.8243 147.694 49.8242C147.708 49.8241 147.722 49.8268 147.736 49.8322C147.749 49.8376 147.761 49.8456 147.771 49.8557C147.781 49.8658 147.789 49.8778 147.795 49.8911C147.8 49.9038 147.804 49.9175 147.804 49.9314C147.804 49.9454 147.802 49.9592 147.797 49.9723C147.792 49.9853 147.784 49.9972 147.775 50.0072C147.765 50.0173 147.754 50.0254 147.741 50.031C147.719 50.0439 146.935 50.5369 146.522 54.644C146.519 54.6722 146.504 54.6979 146.482 54.7159C146.46 54.7338 146.432 54.7428 146.404 54.7409Z" fill="black"/>
</g>
<path opacity="0.2" d="M128.966 59.1923L129.29 58.7144L131.252 61.9218C131.346 62.0762 131.48 62.2021 131.641 62.286C131.801 62.3699 131.982 62.4086 132.163 62.398C132.344 62.3874 132.519 62.3278 132.668 62.2257C132.818 62.1236 132.937 61.9828 133.012 61.8185C133.089 61.6497 133.152 61.4747 133.2 61.2954C133.277 61.007 133.328 60.7124 133.353 60.415C133.455 59.3387 133.837 55.7417 134.407 54.7967C134.415 54.7857 134.426 54.7776 134.438 54.7735C134.451 54.7694 134.465 54.7695 134.477 54.7739C134.49 54.7784 134.5 54.7868 134.508 54.7979C134.515 54.809 134.518 54.8222 134.517 54.8354C134.409 55.9612 133.869 61.431 133.617 63.0433C133.256 63.2592 132.958 63.5652 132.752 63.931C132.546 64.2967 132.439 64.7097 132.442 65.1292L128.966 59.1923Z" fill="black"/>
<path d="M121.337 68.0996C121.337 68.0996 114.473 69.727 116.108 74.833C116.108 74.833 119.158 89.1694 123.299 98.2965H127.476C127.476 98.2965 129.839 87.4344 129.403 78.3116L146.898 78.3676C146.898 78.3676 150.063 77.3128 149.43 73.2508L138.76 68.1082L121.337 68.0996Z" fill="#2F2E41"/>
<path d="M121.337 68.0998C121.337 68.0998 101.613 67.99 101.466 73.2661C101.466 73.2661 100.842 79.1728 113.702 85.0366L119.581 88.1363L116.108 74.8439C116.108 74.8439 114.363 70.0544 121.337 68.0998Z" fill="#2F2E41"/>
<path opacity="0.2" d="M121.337 68.0998C121.337 68.0998 101.613 67.99 101.466 73.2661C101.466 73.2661 100.842 79.1728 113.702 85.0366L119.581 88.1363L116.108 74.8439C116.108 74.8439 114.363 70.0544 121.337 68.0998Z" fill="black"/>
<path opacity="0.2" d="M115.92 73.3113C115.92 73.3113 110.548 72.5686 111.367 73.5911C111.367 73.5911 111.873 74.3682 116.387 75.903C116.387 75.903 115.732 74.181 115.92 73.3113Z" fill="black"/>
<path opacity="0.2" d="M114.205 75.1025C114.205 75.1025 117.825 81.6529 115.441 85.9539L119.59 88.1409C119.59 88.1409 116.668 78.0602 116.387 75.9033L114.205 75.1025Z" fill="black"/>
<path opacity="0.2" d="M129.403 78.3073C129.403 78.3073 129.187 76.7294 127.988 74.4778C128.751 74.9245 129.36 75.592 129.733 76.3915L143.265 77.1557C144.449 77.2324 145.635 77.0472 146.738 76.6132C147.834 76.1719 148.827 75.4551 148.415 74.353C148.297 74.0584 148.108 73.7974 147.865 73.5935C147.621 73.3895 147.331 73.2488 147.019 73.1841C145.911 72.9365 143.619 72.2778 141.639 70.7559C140.071 69.5693 138.2 68.8471 136.239 68.6722C135.162 68.5704 134.08 68.5395 132.999 68.5796L119.583 68.7325C119.583 68.7325 120.679 68.0996 121.331 68.0996H138.757L149.428 73.2422C149.428 73.2422 150.447 76.6864 146.896 78.359L129.403 78.3073Z" fill="black"/>
<path d="M133.543 95.6858C132.463 93.5138 128.575 91.824 128.575 91.824L129.057 87.833L131.077 88.1387L133.969 92.8615C135.068 95.0335 133.543 95.6858 133.543 95.6858Z" fill="#F9B499"/>
<path d="M129.068 87.833L129.662 87.9234V92.36L128.588 91.824L129.068 87.833Z" fill="#F7A48B"/>
<path d="M137.829 97.462C137.709 97.7737 137.483 98.0332 137.19 98.1944C136.897 98.3556 136.556 98.4081 136.228 98.3424C135.507 98.1853 134.5 97.5825 133.543 95.6861C133.543 95.6861 135.068 95.0403 133.975 92.8619L131.094 88.139C131.094 88.139 130.934 87.6482 132.025 87.6482C132.477 87.5809 132.939 87.6441 133.356 87.8303C133.773 88.0164 134.128 88.3178 134.379 88.6987C134.379 88.6987 138.991 94.5581 137.829 97.462Z" fill="#F2668B"/>
<path opacity="0.2" d="M137.829 97.462C137.709 97.7737 137.483 98.0332 137.19 98.1944C136.897 98.3556 136.556 98.4081 136.228 98.3424C135.507 98.1853 134.5 97.5825 133.543 95.6861C133.543 95.6861 135.068 95.0403 133.975 92.8619L131.094 88.139C131.094 88.139 130.934 87.6482 132.025 87.6482C132.477 87.5809 132.939 87.6441 133.356 87.8303C133.773 88.0164 134.128 88.3178 134.379 88.6987C134.379 88.6987 138.991 94.5581 137.829 97.462Z" fill="black"/>
<path d="M127.493 101.226C127.483 101.415 127.406 101.594 127.277 101.732L124.83 104.373C123.34 106.024 121.972 105.792 121.404 105.587C121.369 105.574 121.337 105.553 121.311 105.526C121.284 105.499 121.264 105.467 121.252 105.431C121.239 105.396 121.235 105.358 121.239 105.321C121.243 105.283 121.255 105.247 121.275 105.215L121.46 104.914L123.882 100.987C123.966 100.851 124.01 100.693 124.009 100.533V98.3804L127.161 98.3008C127.137 98.671 127.139 98.9939 127.148 99.2565C127.159 99.6183 127.226 99.9762 127.346 100.318C127.409 100.482 127.453 100.653 127.476 100.828C127.494 100.96 127.5 101.093 127.493 101.226Z" fill="#F9B499"/>
<path d="M129.184 104.591C127.498 106.286 125.693 107.86 123.785 109.301C123.268 109.691 122.705 110.014 122.108 110.266C120 111.14 118.782 110.825 118.162 110.468C117.954 110.344 117.788 110.159 117.688 109.939C117.588 109.718 117.558 109.473 117.603 109.235C117.961 107.237 121.353 104.985 121.46 104.914L121.275 105.216C121.255 105.248 121.243 105.284 121.239 105.321C121.235 105.359 121.239 105.397 121.252 105.432C121.264 105.468 121.284 105.5 121.311 105.527C121.337 105.554 121.369 105.575 121.404 105.588C121.972 105.793 123.348 106.019 124.83 104.374L127.275 101.733C127.404 101.595 127.481 101.416 127.491 101.227C127.498 101.091 127.491 100.955 127.472 100.82L127.493 100.807C127.493 100.807 127.657 100.03 128.31 101.332C128.312 101.332 130.057 103.722 129.184 104.591Z" fill="#F2668B"/>
<path opacity="0.2" d="M129.184 104.591C127.498 106.286 125.693 107.86 123.785 109.301C123.268 109.691 122.705 110.014 122.108 110.266C120 111.14 118.782 110.825 118.162 110.468C117.954 110.344 117.788 110.159 117.688 109.939C117.588 109.718 117.558 109.473 117.603 109.235C117.961 107.237 121.353 104.985 121.46 104.914L121.275 105.216C121.255 105.248 121.243 105.284 121.239 105.321C121.235 105.359 121.239 105.397 121.252 105.432C121.264 105.468 121.284 105.5 121.311 105.527C121.337 105.554 121.369 105.575 121.404 105.588C121.972 105.793 123.348 106.019 124.83 104.374L127.275 101.733C127.404 101.595 127.481 101.416 127.491 101.227C127.498 101.091 127.491 100.955 127.472 100.82L127.493 100.807C127.493 100.807 127.657 100.03 128.31 101.332C128.312 101.332 130.057 103.722 129.184 104.591Z" fill="black"/>
<path d="M124.007 98.372V99.2331C124.007 99.2331 125.318 100.032 127.141 99.0501L127.158 98.2881L124.007 98.372Z" fill="#F7A48B"/>
<path d="M105.427 53.7637L113.834 68.4746L133.275 68.1001L124.949 53.7637H105.427Z" fill="#F2668B"/>
<path opacity="0.2" d="M105.427 53.7637L113.834 68.4746L133.275 68.1001L124.949 53.7637H105.427Z" fill="black"/>
<path d="M107.17 52.8877L105.427 53.7487H124.949L133.275 68.0852H138.764L138.313 67.7816C138.313 67.7816 137.032 67.2112 136.595 66.9938H133.543L125.4 52.8877H107.17Z" fill="#F2668B"/>
<path opacity="0.4" d="M107.17 52.8877L105.427 53.7487H124.949L133.275 68.0852H138.764L138.313 67.7816C138.313 67.7816 137.032 67.2112 136.595 66.9938H133.543L125.4 52.8877H107.17Z" fill="white"/>
<path opacity="0.2" d="M118.288 62.0186C119.371 62.0186 120.249 61.6293 120.249 61.149C120.249 60.6687 119.371 60.2793 118.288 60.2793C117.204 60.2793 116.326 60.6687 116.326 61.149C116.326 61.6293 117.204 62.0186 118.288 62.0186Z" fill="black"/>
<path d="M148.688 36.79C148.968 36.1268 148.744 35.4008 148.188 35.1685C147.633 34.9361 146.956 35.2854 146.677 35.9486C146.398 36.6118 146.621 37.3378 147.177 37.5701C147.732 37.8025 148.409 37.4532 148.688 36.79Z" fill="#F7A48B"/>
<path d="M147.684 34.3064C147.684 35.9285 147.067 37.4902 145.956 38.6762C145.353 39.3186 144.623 39.8309 143.813 40.1815C143.003 40.5321 142.129 40.7136 141.246 40.7147C139.851 40.7112 138.496 40.2557 137.384 39.4172C136.272 38.5786 135.463 37.4024 135.081 36.066C134.698 34.7296 134.762 33.3054 135.263 32.0083C135.764 30.7113 136.674 29.6117 137.857 28.8754C138.83 28.2736 139.948 27.942 141.093 27.9149C142.239 27.8878 143.37 28.1662 144.372 28.7213C145.373 29.2764 146.207 30.0881 146.788 31.0723C147.369 32.0565 147.675 33.1775 147.676 34.3193L147.684 34.3064Z" fill="#F9B499"/>
<path d="M147.684 34.3066C147.684 35.9287 147.067 37.4904 145.956 38.6764C147.583 34.1258 146.075 31.9323 146.075 31.9323C144.55 27.5883 137.867 28.8627 137.867 28.8627C138.841 28.2609 139.958 27.9293 141.104 27.9022C142.249 27.8751 143.381 28.1535 144.382 28.7086C145.384 29.2637 146.218 30.0754 146.799 31.0596C147.38 32.0438 147.686 33.1648 147.687 34.3066H147.684Z" fill="#F7A48B"/>
<path d="M151.769 72.3576C151.57 72.5524 151.353 72.7282 151.121 72.8828C150.624 73.2011 150.028 73.3302 149.443 73.2466C148.302 73.0938 147.183 73.182 143.46 71.1327C142.758 70.7539 142.073 70.3234 141.414 69.8928L138.312 67.8048C138.312 67.8048 135.936 67.0169 135.504 65.9299C135.504 65.9299 133.977 66.7651 133.215 66.4573L132.999 66.0978L132.435 65.1334C132.435 65.1334 132.219 63.7579 134.191 62.673C134.191 62.673 136.807 60.7184 137.459 62.2424L138.768 64.4144C138.873 64.7161 139.045 64.9902 139.271 65.2161C139.498 65.442 139.772 65.6139 140.075 65.7189L147.341 66.6962C148.422 66.8326 149.465 67.1801 150.41 67.7187C150.948 68.0213 151.433 68.4071 151.849 68.8617C151.968 68.9932 152.071 69.1376 152.158 69.2923C152.437 69.7755 152.551 70.3366 152.48 70.89C152.41 71.4435 152.16 71.9588 151.769 72.3576Z" fill="#F9B499"/>
<path d="M135.941 63.5361C134.851 63.9727 133.709 64.2679 132.543 64.4144C133.634 63.9786 134.775 63.6834 135.941 63.5361Z" fill="#F7A48B"/>
<path d="M135.723 64.8408C134.743 65.2126 133.716 65.4424 132.671 65.5232C133.65 65.1519 134.678 64.9221 135.723 64.8408Z" fill="#F7A48B"/>
<path d="M136.377 62.4512C135.541 62.7578 134.659 62.9215 133.768 62.9355C134.604 62.6277 135.486 62.4639 136.377 62.4512Z" fill="#F7A48B"/>
</svg>
