<svg width="267" height="212" viewBox="0 0 267 212" fill="none" xmlns="http://www.w3.org/2000/svg">
<path d="M265.03 187.533H1.23877V187.666H265.03V187.533Z" fill="#EBEBEB"/>
<path d="M238.598 196.07H221.125V196.203H238.598V196.07Z" fill="#EBEBEB"/>
<path d="M175.984 197.513H171.4V197.646H175.984V197.513Z" fill="#EBEBEB"/>
<path d="M220.596 191.145H210.472V191.277H220.596V191.145Z" fill="#EBEBEB"/>
<path d="M51.7008 192.038H28.9155V192.171H51.7008V192.038Z" fill="#EBEBEB"/>
<path d="M59.7411 192.038H56.4014V192.171H59.7411V192.038Z" fill="#EBEBEB"/>
<path d="M120.022 194.275H70.5991V194.408H120.022V194.275Z" fill="#EBEBEB"/>
<path d="M126.275 163.868H24.4049C23.6069 163.867 22.8418 163.548 22.2778 162.98C21.7138 162.413 21.397 161.643 21.397 160.84V16.8335C21.4018 16.0345 21.7209 15.2698 22.2845 14.7066C22.848 14.1433 23.6103 13.8271 24.4049 13.8271H126.275C127.073 13.8271 127.839 14.1462 128.404 14.714C128.969 15.2819 129.286 16.0521 129.286 16.8552V160.84C129.286 161.643 128.969 162.414 128.404 162.981C127.839 163.549 127.073 163.868 126.275 163.868ZM24.4049 13.9322C24.0266 13.9326 23.652 14.008 23.3027 14.1541C22.9534 14.3001 22.6361 14.514 22.369 14.7834C22.1019 15.0529 21.8903 15.3727 21.7462 15.7244C21.602 16.0762 21.5283 16.4531 21.5291 16.8335V160.84C21.5291 161.608 21.832 162.344 22.3712 162.886C22.9104 163.429 23.6419 163.735 24.4049 163.735H126.275C127.038 163.735 127.77 163.429 128.31 162.887C128.849 162.344 129.153 161.608 129.154 160.84V16.8335C129.153 16.0659 128.849 15.33 128.31 14.7873C127.77 14.2445 127.038 13.9392 126.275 13.9384L24.4049 13.9322Z" fill="#EBEBEB"/>
<path d="M240.398 163.868H138.519C137.721 163.866 136.956 163.547 136.392 162.979C135.827 162.412 135.509 161.643 135.508 160.84V16.8332C135.517 16.0355 135.838 15.2733 136.401 14.7118C136.965 14.1503 137.726 13.8346 138.519 13.833H240.398C241.19 13.8354 241.949 14.1518 242.51 14.7135C243.072 15.2752 243.39 16.0368 243.397 16.8332V160.84C243.397 161.641 243.081 162.409 242.519 162.977C241.957 163.544 241.194 163.865 240.398 163.868ZM138.519 13.9319C138.139 13.9311 137.764 14.0055 137.413 14.151C137.062 14.2964 136.743 14.51 136.475 14.7795C136.206 15.049 135.993 15.3691 135.848 15.7215C135.702 16.0739 135.628 16.4517 135.628 16.8332V160.84C135.629 161.607 135.933 162.343 136.473 162.885C137.012 163.428 137.743 163.733 138.507 163.735H240.398C241.162 163.734 241.894 163.429 242.434 162.886C242.974 162.344 243.278 161.608 243.28 160.84V16.8332C243.28 16.0643 242.976 15.3268 242.436 14.7828C241.896 14.2387 241.163 13.9327 240.398 13.9319H138.519Z" fill="#EBEBEB"/>
<path d="M236.235 46.8174H108.412V170.725H236.235V46.8174Z" fill="#E0E0E0"/>
<path d="M236.235 49.0664H110.464V168.559H236.235V49.0664Z" fill="#F5F5F5"/>
<path d="M111.392 139.622V103.675H115.101V98.9263L123.458 95.0022V90.142H124.85V103.675H126.244V139.622H128.1V120.947H132.279V111.146H133.671V139.622H136.915V128.882H139.238V126.083H144.344V116.282H147.131V109.747H150.378V99.9428H151.773V109.747H155.024V116.282H157.805V126.083H162.911V128.882H165.231V139.622H168.017V126.083H173.124V96.2103H174.519V92.9413H185.653V96.2103H187.976V117.685H197.261V120.011H200.505V121.414H197.261V129.818H207.007V101.809H208.862V96.2103H213.505V74.7393H214.897V96.2103H218.147V101.809H236.235V168.558H110.464V139.622H111.392Z" fill="#E6E6E6"/>
<path d="M226.569 103.273H225.254V104.596H226.569V103.273Z" fill="#F0F0F0"/>
<path d="M226.569 105.492H225.254V106.815H226.569V105.492Z" fill="#F0F0F0"/>
<path d="M226.569 114.363H225.254V115.686H226.569V114.363Z" fill="#F0F0F0"/>
<path d="M226.569 116.575H225.254V117.898H226.569V116.575Z" fill="#F0F0F0"/>
<path d="M226.569 118.791H225.254V120.113H226.569V118.791Z" fill="#F0F0F0"/>
<path d="M226.569 125.446H225.254V126.769H226.569V125.446Z" fill="#F0F0F0"/>
<path d="M226.569 127.665H225.254V128.987H226.569V127.665Z" fill="#F0F0F0"/>
<path d="M224.48 112.145H223.165V113.467H224.48V112.145Z" fill="#F0F0F0"/>
<path d="M224.48 114.363H223.165V115.686H224.48V114.363Z" fill="#F0F0F0"/>
<path d="M224.48 116.575H223.165V117.898H224.48V116.575Z" fill="#F0F0F0"/>
<path d="M224.48 118.791H223.165V120.113H224.48V118.791Z" fill="#F0F0F0"/>
<path d="M224.48 121.01H223.165V122.332H224.48V121.01Z" fill="#F0F0F0"/>
<path d="M224.48 125.446H223.165V126.769H224.48V125.446Z" fill="#F0F0F0"/>
<path d="M224.48 127.665H223.165V128.987H224.48V127.665Z" fill="#F0F0F0"/>
<path d="M222.39 103.273H221.075V104.596H222.39V103.273Z" fill="#F0F0F0"/>
<path d="M222.39 105.492H221.075V106.815H222.39V105.492Z" fill="#F0F0F0"/>
<path d="M222.39 107.708H221.075V109.03H222.39V107.708Z" fill="#F0F0F0"/>
<path d="M222.39 109.927H221.075V111.249H222.39V109.927Z" fill="#F0F0F0"/>
<path d="M222.39 112.145H221.075V113.467H222.39V112.145Z" fill="#F0F0F0"/>
<path d="M222.39 114.363H221.075V115.686H222.39V114.363Z" fill="#F0F0F0"/>
<path d="M222.39 116.575H221.075V117.898H222.39V116.575Z" fill="#F0F0F0"/>
<path d="M222.39 118.791H221.075V120.113H222.39V118.791Z" fill="#F0F0F0"/>
<path d="M222.39 121.01H221.075V122.332H222.39V121.01Z" fill="#F0F0F0"/>
<path d="M222.39 123.228H221.075V124.55H222.39V123.228Z" fill="#F0F0F0"/>
<path d="M222.39 127.665H221.075V128.987H222.39V127.665Z" fill="#F0F0F0"/>
<path d="M220.301 103.273H218.986V104.596H220.301V103.273Z" fill="#F0F0F0"/>
<path d="M220.301 105.492H218.986V106.815H220.301V105.492Z" fill="#F0F0F0"/>
<path d="M220.301 107.708H218.986V109.03H220.301V107.708Z" fill="#F0F0F0"/>
<path d="M220.301 109.927H218.986V111.249H220.301V109.927Z" fill="#F0F0F0"/>
<path d="M220.301 112.145H218.986V113.467H220.301V112.145Z" fill="#F0F0F0"/>
<path d="M220.301 114.363H218.986V115.686H220.301V114.363Z" fill="#F0F0F0"/>
<path d="M220.301 116.575H218.986V117.898H220.301V116.575Z" fill="#F0F0F0"/>
<path d="M220.301 136.536H218.986V137.859H220.301V136.536Z" fill="#F0F0F0"/>
<path d="M218.212 103.273H216.897V104.596H218.212V103.273Z" fill="#F0F0F0"/>
<path d="M218.212 105.492H216.897V106.815H218.212V105.492Z" fill="#F0F0F0"/>
<path d="M218.212 107.708H216.897V109.03H218.212V107.708Z" fill="#F0F0F0"/>
<path d="M218.212 109.927H216.897V111.249H218.212V109.927Z" fill="#F0F0F0"/>
<path d="M218.212 112.145H216.897V113.467H218.212V112.145Z" fill="#F0F0F0"/>
<path d="M218.212 114.363H216.897V115.686H218.212V114.363Z" fill="#F0F0F0"/>
<path d="M218.212 116.575H216.897V117.898H218.212V116.575Z" fill="#F0F0F0"/>
<path d="M218.212 118.791H216.897V120.113H218.212V118.791Z" fill="#F0F0F0"/>
<path d="M218.212 132.099H216.897V133.421H218.212V132.099Z" fill="#F0F0F0"/>
<path d="M218.212 134.317H216.897V135.64H218.212V134.317Z" fill="#F0F0F0"/>
<path d="M218.212 136.536H216.897V137.859H218.212V136.536Z" fill="#F0F0F0"/>
<path d="M218.212 138.748H216.897V140.07H218.212V138.748Z" fill="#F0F0F0"/>
<path d="M218.212 147.619H216.897V148.942H218.212V147.619Z" fill="#F0F0F0"/>
<path d="M216.123 103.273H214.808V104.596H216.123V103.273Z" fill="#F0F0F0"/>
<path d="M216.123 105.492H214.808V106.815H216.123V105.492Z" fill="#F0F0F0"/>
<path d="M216.123 107.708H214.808V109.03H216.123V107.708Z" fill="#F0F0F0"/>
<path d="M216.123 109.927H214.808V111.249H216.123V109.927Z" fill="#F0F0F0"/>
<path d="M216.123 112.145H214.808V113.467H216.123V112.145Z" fill="#F0F0F0"/>
<path d="M216.123 114.363H214.808V115.686H216.123V114.363Z" fill="#F0F0F0"/>
<path d="M216.123 116.575H214.808V117.898H216.123V116.575Z" fill="#F0F0F0"/>
<path d="M216.123 118.791H214.808V120.113H216.123V118.791Z" fill="#F0F0F0"/>
<path d="M216.123 121.01H214.808V122.332H216.123V121.01Z" fill="#F0F0F0"/>
<path d="M216.123 123.228H214.808V124.55H216.123V123.228Z" fill="#F0F0F0"/>
<path d="M216.123 129.88H214.808V131.202H216.123V129.88Z" fill="#F0F0F0"/>
<path d="M216.123 132.099H214.808V133.421H216.123V132.099Z" fill="#F0F0F0"/>
<path d="M216.123 134.317H214.808V135.64H216.123V134.317Z" fill="#F0F0F0"/>
<path d="M216.123 136.536H214.808V137.859H216.123V136.536Z" fill="#F0F0F0"/>
<path d="M216.123 138.748H214.808V140.07H216.123V138.748Z" fill="#F0F0F0"/>
<path d="M216.123 147.619H214.808V148.942H216.123V147.619Z" fill="#F0F0F0"/>
<path d="M214.033 103.273H212.718V104.596H214.033V103.273Z" fill="#F0F0F0"/>
<path d="M214.033 105.492H212.718V106.815H214.033V105.492Z" fill="#F0F0F0"/>
<path d="M214.033 107.708H212.718V109.03H214.033V107.708Z" fill="#F0F0F0"/>
<path d="M214.033 109.927H212.718V111.249H214.033V109.927Z" fill="#F0F0F0"/>
<path d="M214.033 112.145H212.718V113.467H214.033V112.145Z" fill="#F0F0F0"/>
<path d="M214.033 114.363H212.718V115.686H214.033V114.363Z" fill="#F0F0F0"/>
<path d="M214.033 116.575H212.718V117.898H214.033V116.575Z" fill="#F0F0F0"/>
<path d="M214.033 118.791H212.718V120.113H214.033V118.791Z" fill="#F0F0F0"/>
<path d="M214.033 121.01H212.718V122.332H214.033V121.01Z" fill="#F0F0F0"/>
<path d="M214.033 123.228H212.718V124.55H214.033V123.228Z" fill="#F0F0F0"/>
<path d="M214.033 125.446H212.718V126.769H214.033V125.446Z" fill="#F0F0F0"/>
<path d="M214.033 127.665H212.718V128.987H214.033V127.665Z" fill="#F0F0F0"/>
<path d="M214.033 129.88H212.718V131.202H214.033V129.88Z" fill="#F0F0F0"/>
<path d="M214.033 132.099H212.718V133.421H214.033V132.099Z" fill="#F0F0F0"/>
<path d="M214.033 134.317H212.718V135.64H214.033V134.317Z" fill="#F0F0F0"/>
<path d="M214.033 136.536H212.718V137.859H214.033V136.536Z" fill="#F0F0F0"/>
<path d="M214.033 138.748H212.718V140.07H214.033V138.748Z" fill="#F0F0F0"/>
<path d="M214.033 140.964H212.718V142.286H214.033V140.964Z" fill="#F0F0F0"/>
<path d="M211.944 103.273H210.629V104.596H211.944V103.273Z" fill="#F0F0F0"/>
<path d="M211.944 105.492H210.629V106.815H211.944V105.492Z" fill="#F0F0F0"/>
<path d="M211.944 107.708H210.629V109.03H211.944V107.708Z" fill="#F0F0F0"/>
<path d="M211.944 109.927H210.629V111.249H211.944V109.927Z" fill="#F0F0F0"/>
<path d="M211.944 112.145H210.629V113.467H211.944V112.145Z" fill="#F0F0F0"/>
<path d="M211.944 114.363H210.629V115.686H211.944V114.363Z" fill="#F0F0F0"/>
<path d="M211.944 116.575H210.629V117.898H211.944V116.575Z" fill="#F0F0F0"/>
<path d="M211.944 118.791H210.629V120.113H211.944V118.791Z" fill="#F0F0F0"/>
<path d="M211.944 121.01H210.629V122.332H211.944V121.01Z" fill="#F0F0F0"/>
<path d="M211.944 123.228H210.629V124.55H211.944V123.228Z" fill="#F0F0F0"/>
<path d="M211.944 129.88H210.629V131.202H211.944V129.88Z" fill="#F0F0F0"/>
<path d="M211.944 132.099H210.629V133.421H211.944V132.099Z" fill="#F0F0F0"/>
<path d="M211.944 134.317H210.629V135.64H211.944V134.317Z" fill="#F0F0F0"/>
<path d="M211.944 136.536H210.629V137.859H211.944V136.536Z" fill="#F0F0F0"/>
<path d="M209.861 103.273H208.546V104.596H209.861V103.273Z" fill="#F0F0F0"/>
<path d="M209.861 105.492H208.546V106.815H209.861V105.492Z" fill="#F0F0F0"/>
<path d="M209.861 107.708H208.546V109.03H209.861V107.708Z" fill="#F0F0F0"/>
<path d="M209.861 109.927H208.546V111.249H209.861V109.927Z" fill="#F0F0F0"/>
<path d="M209.861 112.145H208.546V113.467H209.861V112.145Z" fill="#F0F0F0"/>
<path d="M209.861 114.363H208.546V115.686H209.861V114.363Z" fill="#F0F0F0"/>
<path d="M209.861 116.575H208.546V117.898H209.861V116.575Z" fill="#F0F0F0"/>
<path d="M209.861 118.791H208.546V120.113H209.861V118.791Z" fill="#F0F0F0"/>
<path d="M209.861 121.01H208.546V122.332H209.861V121.01Z" fill="#F0F0F0"/>
<path d="M209.861 123.228H208.546V124.55H209.861V123.228Z" fill="#F0F0F0"/>
<path d="M209.861 129.88H208.546V131.202H209.861V129.88Z" fill="#F0F0F0"/>
<path d="M209.861 132.099H208.546V133.421H209.861V132.099Z" fill="#F0F0F0"/>
<path d="M209.861 134.317H208.546V135.64H209.861V134.317Z" fill="#F0F0F0"/>
<path d="M186.341 97.5176H185.026V98.84H186.341V97.5176Z" fill="#F0F0F0"/>
<path d="M186.341 99.7334H185.026V101.056H186.341V99.7334Z" fill="#F0F0F0"/>
<path d="M186.341 101.951H185.026V103.274H186.341V101.951Z" fill="#F0F0F0"/>
<path d="M186.341 104.17H185.026V105.492H186.341V104.17Z" fill="#F0F0F0"/>
<path d="M186.341 106.389H185.026V107.711H186.341V106.389Z" fill="#F0F0F0"/>
<path d="M186.341 108.606H185.026V109.929H186.341V108.606Z" fill="#F0F0F0"/>
<path d="M186.341 110.819H185.026V112.142H186.341V110.819Z" fill="#F0F0F0"/>
<path d="M186.341 113.034H185.026V114.357H186.341V113.034Z" fill="#F0F0F0"/>
<path d="M186.341 119.69H185.026V121.013H186.341V119.69Z" fill="#F0F0F0"/>
<path d="M186.341 121.905H185.026V123.228H186.341V121.905Z" fill="#F0F0F0"/>
<path d="M184.252 97.5176H182.937V98.84H184.252V97.5176Z" fill="#F0F0F0"/>
<path d="M184.252 99.7334H182.937V101.056H184.252V99.7334Z" fill="#F0F0F0"/>
<path d="M184.252 101.951H182.937V103.274H184.252V101.951Z" fill="#F0F0F0"/>
<path d="M184.252 104.17H182.937V105.492H184.252V104.17Z" fill="#F0F0F0"/>
<path d="M184.252 106.389H182.937V107.711H184.252V106.389Z" fill="#F0F0F0"/>
<path d="M184.252 108.606H182.937V109.929H184.252V108.606Z" fill="#F0F0F0"/>
<path d="M184.252 110.819H182.937V112.142H184.252V110.819Z" fill="#F0F0F0"/>
<path d="M184.252 113.034H182.937V114.357H184.252V113.034Z" fill="#F0F0F0"/>
<path d="M184.252 121.905H182.937V123.228H184.252V121.905Z" fill="#F0F0F0"/>
<path d="M182.163 97.5176H180.848V98.84H182.163V97.5176Z" fill="#F0F0F0"/>
<path d="M182.163 99.7334H180.848V101.056H182.163V99.7334Z" fill="#F0F0F0"/>
<path d="M182.163 101.951H180.848V103.274H182.163V101.951Z" fill="#F0F0F0"/>
<path d="M182.163 104.17H180.848V105.492H182.163V104.17Z" fill="#F0F0F0"/>
<path d="M182.163 106.389H180.848V107.711H182.163V106.389Z" fill="#F0F0F0"/>
<path d="M182.163 108.606H180.848V109.929H182.163V108.606Z" fill="#F0F0F0"/>
<path d="M182.163 110.819H180.848V112.142H182.163V110.819Z" fill="#F0F0F0"/>
<path d="M182.163 113.034H180.848V114.357H182.163V113.034Z" fill="#F0F0F0"/>
<path d="M180.074 97.5176H178.759V98.84H180.074V97.5176Z" fill="#F0F0F0"/>
<path d="M180.074 99.7334H178.759V101.056H180.074V99.7334Z" fill="#F0F0F0"/>
<path d="M180.074 101.951H178.759V103.274H180.074V101.951Z" fill="#F0F0F0"/>
<path d="M180.074 104.17H178.759V105.492H180.074V104.17Z" fill="#F0F0F0"/>
<path d="M180.074 106.389H178.759V107.711H180.074V106.389Z" fill="#F0F0F0"/>
<path d="M180.074 108.606H178.759V109.929H180.074V108.606Z" fill="#F0F0F0"/>
<path d="M180.074 113.034H178.759V114.357H180.074V113.034Z" fill="#F0F0F0"/>
<path d="M180.074 115.253H178.759V116.575H180.074V115.253Z" fill="#F0F0F0"/>
<path d="M180.074 121.905H178.759V123.228H180.074V121.905Z" fill="#F0F0F0"/>
<path d="M180.074 124.124H178.759V125.446H180.074V124.124Z" fill="#F0F0F0"/>
<path d="M180.074 126.343H178.759V127.665H180.074V126.343Z" fill="#F0F0F0"/>
<path d="M180.074 128.561H178.759V129.883H180.074V128.561Z" fill="#F0F0F0"/>
<path d="M180.074 130.776H178.759V132.099H180.074V130.776Z" fill="#F0F0F0"/>
<path d="M180.074 132.992H178.759V134.315H180.074V132.992Z" fill="#F0F0F0"/>
<path d="M180.074 135.207H178.759V136.529H180.074V135.207Z" fill="#F0F0F0"/>
<path d="M177.984 97.5176H176.669V98.84H177.984V97.5176Z" fill="#F0F0F0"/>
<path d="M177.984 99.7334H176.669V101.056H177.984V99.7334Z" fill="#F0F0F0"/>
<path d="M177.984 101.951H176.669V103.274H177.984V101.951Z" fill="#F0F0F0"/>
<path d="M177.984 104.17H176.669V105.492H177.984V104.17Z" fill="#F0F0F0"/>
<path d="M177.984 106.389H176.669V107.711H177.984V106.389Z" fill="#F0F0F0"/>
<path d="M177.984 108.606H176.669V109.929H177.984V108.606Z" fill="#F0F0F0"/>
<path d="M177.984 115.253H176.669V116.575H177.984V115.253Z" fill="#F0F0F0"/>
<path d="M177.984 117.472H176.669V118.794H177.984V117.472Z" fill="#F0F0F0"/>
<path d="M177.984 119.69H176.669V121.013H177.984V119.69Z" fill="#F0F0F0"/>
<path d="M177.984 121.905H176.669V123.228H177.984V121.905Z" fill="#F0F0F0"/>
<path d="M177.984 124.124H176.669V125.446H177.984V124.124Z" fill="#F0F0F0"/>
<path d="M177.984 126.343H176.669V127.665H177.984V126.343Z" fill="#F0F0F0"/>
<path d="M177.984 128.561H176.669V129.883H177.984V128.561Z" fill="#F0F0F0"/>
<path d="M177.984 130.776H176.669V132.099H177.984V130.776Z" fill="#F0F0F0"/>
<path d="M177.984 132.992H176.669V134.315H177.984V132.992Z" fill="#F0F0F0"/>
<path d="M177.984 135.207H176.669V136.529H177.984V135.207Z" fill="#F0F0F0"/>
<path d="M177.984 137.426H176.669V138.748H177.984V137.426Z" fill="#F0F0F0"/>
<path d="M177.984 141.862H176.669V143.185H177.984V141.862Z" fill="#F0F0F0"/>
<path d="M175.895 97.5176H174.58V98.84H175.895V97.5176Z" fill="#F0F0F0"/>
<path d="M175.895 99.7334H174.58V101.056H175.895V99.7334Z" fill="#F0F0F0"/>
<path d="M175.895 101.951H174.58V103.274H175.895V101.951Z" fill="#F0F0F0"/>
<path d="M175.895 104.17H174.58V105.492H175.895V104.17Z" fill="#F0F0F0"/>
<path d="M175.895 106.389H174.58V107.711H175.895V106.389Z" fill="#F0F0F0"/>
<path d="M175.895 108.606H174.58V109.929H175.895V108.606Z" fill="#F0F0F0"/>
<path d="M175.895 115.253H174.58V116.575H175.895V115.253Z" fill="#F0F0F0"/>
<path d="M175.895 117.472H174.58V118.794H175.895V117.472Z" fill="#F0F0F0"/>
<path d="M175.895 119.69H174.58V121.013H175.895V119.69Z" fill="#F0F0F0"/>
<path d="M175.895 121.905H174.58V123.228H175.895V121.905Z" fill="#F0F0F0"/>
<path d="M175.895 128.561H174.58V129.883H175.895V128.561Z" fill="#F0F0F0"/>
<path d="M175.895 130.776H174.58V132.099H175.895V130.776Z" fill="#F0F0F0"/>
<path d="M175.895 132.992H174.58V134.315H175.895V132.992Z" fill="#F0F0F0"/>
<path d="M175.895 135.207H174.58V136.529H175.895V135.207Z" fill="#F0F0F0"/>
<path d="M175.895 137.426H174.58V138.748H175.895V137.426Z" fill="#F0F0F0"/>
<path d="M175.895 141.862H174.58V143.185H175.895V141.862Z" fill="#F0F0F0"/>
<path d="M175.895 144.078H174.58V145.401H175.895V144.078Z" fill="#F0F0F0"/>
<path d="M156.944 118.136H155.629V119.458H156.944V118.136Z" fill="#F0F0F0"/>
<path d="M156.944 120.352H155.629V121.674H156.944V120.352Z" fill="#F0F0F0"/>
<path d="M156.944 122.569H155.629V123.892H156.944V122.569Z" fill="#F0F0F0"/>
<path d="M156.944 124.782H155.629V126.105H156.944V124.782Z" fill="#F0F0F0"/>
<path d="M156.944 127.001H155.629V128.323H156.944V127.001Z" fill="#F0F0F0"/>
<path d="M156.944 129.219H155.629V130.541H156.944V129.219Z" fill="#F0F0F0"/>
<path d="M156.944 131.435H155.629V132.757H156.944V131.435Z" fill="#F0F0F0"/>
<path d="M156.944 138.09H155.629V139.412H156.944V138.09Z" fill="#F0F0F0"/>
<path d="M156.944 140.306H155.629V141.628H156.944V140.306Z" fill="#F0F0F0"/>
<path d="M156.944 142.523H155.629V143.846H156.944V142.523Z" fill="#F0F0F0"/>
<path d="M154.855 118.136H153.54V119.458H154.855V118.136Z" fill="#F0F0F0"/>
<path d="M154.855 120.352H153.54V121.674H154.855V120.352Z" fill="#F0F0F0"/>
<path d="M154.855 122.569H153.54V123.892H154.855V122.569Z" fill="#F0F0F0"/>
<path d="M154.855 124.782H153.54V126.105H154.855V124.782Z" fill="#F0F0F0"/>
<path d="M154.855 127.001H153.54V128.323H154.855V127.001Z" fill="#F0F0F0"/>
<path d="M154.855 129.219H153.54V130.541H154.855V129.219Z" fill="#F0F0F0"/>
<path d="M154.855 131.435H153.54V132.757H154.855V131.435Z" fill="#F0F0F0"/>
<path d="M152.766 118.136H151.451V119.458H152.766V118.136Z" fill="#F0F0F0"/>
<path d="M152.766 120.352H151.451V121.674H152.766V120.352Z" fill="#F0F0F0"/>
<path d="M152.766 122.569H151.451V123.892H152.766V122.569Z" fill="#F0F0F0"/>
<path d="M152.766 124.782H151.451V126.105H152.766V124.782Z" fill="#F0F0F0"/>
<path d="M152.766 127.001H151.451V128.323H152.766V127.001Z" fill="#F0F0F0"/>
<path d="M152.766 129.219H151.451V130.541H152.766V129.219Z" fill="#F0F0F0"/>
<path d="M152.766 131.435H151.451V132.757H152.766V131.435Z" fill="#F0F0F0"/>
<path d="M150.676 118.136H149.361V119.458H150.676V118.136Z" fill="#F0F0F0"/>
<path d="M150.676 120.352H149.361V121.674H150.676V120.352Z" fill="#F0F0F0"/>
<path d="M150.676 122.569H149.361V123.892H150.676V122.569Z" fill="#F0F0F0"/>
<path d="M150.676 124.782H149.361V126.105H150.676V124.782Z" fill="#F0F0F0"/>
<path d="M150.676 127.001H149.361V128.323H150.676V127.001Z" fill="#F0F0F0"/>
<path d="M150.676 129.219H149.361V130.541H150.676V129.219Z" fill="#F0F0F0"/>
<path d="M150.676 131.435H149.361V132.757H150.676V131.435Z" fill="#F0F0F0"/>
<path d="M150.676 133.653H149.361V134.976H150.676V133.653Z" fill="#F0F0F0"/>
<path d="M150.676 135.871H149.361V137.194H150.676V135.871Z" fill="#F0F0F0"/>
<path d="M150.676 138.09H149.361V139.412H150.676V138.09Z" fill="#F0F0F0"/>
<path d="M150.676 140.306H149.361V141.628H150.676V140.306Z" fill="#F0F0F0"/>
<path d="M148.587 118.136H147.272V119.458H148.587V118.136Z" fill="#F0F0F0"/>
<path d="M148.587 120.352H147.272V121.674H148.587V120.352Z" fill="#F0F0F0"/>
<path d="M148.587 122.569H147.272V123.892H148.587V122.569Z" fill="#F0F0F0"/>
<path d="M148.587 124.782H147.272V126.105H148.587V124.782Z" fill="#F0F0F0"/>
<path d="M148.587 127.001H147.272V128.323H148.587V127.001Z" fill="#F0F0F0"/>
<path d="M148.587 129.219H147.272V130.541H148.587V129.219Z" fill="#F0F0F0"/>
<path d="M148.587 131.435H147.272V132.757H148.587V131.435Z" fill="#F0F0F0"/>
<path d="M148.587 133.653H147.272V134.976H148.587V133.653Z" fill="#F0F0F0"/>
<path d="M148.587 135.871H147.272V137.194H148.587V135.871Z" fill="#F0F0F0"/>
<path d="M148.587 138.09H147.272V139.412H148.587V138.09Z" fill="#F0F0F0"/>
<path d="M148.587 140.306H147.272V141.628H148.587V140.306Z" fill="#F0F0F0"/>
<path d="M148.587 142.523H147.272V143.846H148.587V142.523Z" fill="#F0F0F0"/>
<path d="M148.587 149.173H147.272V150.495H148.587V149.173Z" fill="#F0F0F0"/>
<path d="M148.587 151.392H147.272V152.714H148.587V151.392Z" fill="#F0F0F0"/>
<path d="M146.498 118.136H145.183V119.458H146.498V118.136Z" fill="#F0F0F0"/>
<path d="M146.498 120.352H145.183V121.674H146.498V120.352Z" fill="#F0F0F0"/>
<path d="M146.498 122.569H145.183V123.892H146.498V122.569Z" fill="#F0F0F0"/>
<path d="M146.498 129.219H145.183V130.541H146.498V129.219Z" fill="#F0F0F0"/>
<path d="M146.498 131.435H145.183V132.757H146.498V131.435Z" fill="#F0F0F0"/>
<path d="M146.498 133.653H145.183V134.976H146.498V133.653Z" fill="#F0F0F0"/>
<path d="M146.498 135.871H145.183V137.194H146.498V135.871Z" fill="#F0F0F0"/>
<path d="M146.498 138.09H145.183V139.412H146.498V138.09Z" fill="#F0F0F0"/>
<path d="M146.498 140.306H145.183V141.628H146.498V140.306Z" fill="#F0F0F0"/>
<path d="M146.498 142.523H145.183V143.846H146.498V142.523Z" fill="#F0F0F0"/>
<path d="M146.498 149.173H145.183V150.495H146.498V149.173Z" fill="#F0F0F0"/>
<path d="M146.498 151.392H145.183V152.714H146.498V151.392Z" fill="#F0F0F0"/>
<path d="M146.498 153.606H145.183V154.929H146.498V153.606Z" fill="#F0F0F0"/>
<path d="M124.61 104.828H123.295V106.151H124.61V104.828Z" fill="#F0F0F0"/>
<path d="M124.61 107.047H123.295V108.369H124.61V107.047Z" fill="#F0F0F0"/>
<path d="M124.61 109.262H123.295V110.584H124.61V109.262Z" fill="#F0F0F0"/>
<path d="M124.61 111.48H123.295V112.803H124.61V111.48Z" fill="#F0F0F0"/>
<path d="M124.61 113.699H123.295V115.022H124.61V113.699Z" fill="#F0F0F0"/>
<path d="M124.61 115.917H123.295V117.239H124.61V115.917Z" fill="#F0F0F0"/>
<path d="M124.61 118.136H123.295V119.458H124.61V118.136Z" fill="#F0F0F0"/>
<path d="M124.61 120.352H123.295V121.674H124.61V120.352Z" fill="#F0F0F0"/>
<path d="M124.61 122.569H123.295V123.892H124.61V122.569Z" fill="#F0F0F0"/>
<path d="M124.61 124.782H123.295V126.105H124.61V124.782Z" fill="#F0F0F0"/>
<path d="M124.61 127.001H123.295V128.323H124.61V127.001Z" fill="#F0F0F0"/>
<path d="M124.61 129.219H123.295V130.541H124.61V129.219Z" fill="#F0F0F0"/>
<path d="M124.61 131.435H123.295V132.757H124.61V131.435Z" fill="#F0F0F0"/>
<path d="M124.61 133.653H123.295V134.976H124.61V133.653Z" fill="#F0F0F0"/>
<path d="M124.61 135.871H123.295V137.194H124.61V135.871Z" fill="#F0F0F0"/>
<path d="M124.61 138.09H123.295V139.412H124.61V138.09Z" fill="#F0F0F0"/>
<path d="M124.61 140.306H123.295V141.628H124.61V140.306Z" fill="#F0F0F0"/>
<path d="M124.61 142.523H123.295V143.846H124.61V142.523Z" fill="#F0F0F0"/>
<path d="M124.61 144.742H123.295V146.065H124.61V144.742Z" fill="#F0F0F0"/>
<path d="M124.61 146.954H123.295V148.277H124.61V146.954Z" fill="#F0F0F0"/>
<path d="M124.61 149.173H123.295V150.495H124.61V149.173Z" fill="#F0F0F0"/>
<path d="M124.61 151.392H123.295V152.714H124.61V151.392Z" fill="#F0F0F0"/>
<path d="M124.61 153.606H123.295V154.929H124.61V153.606Z" fill="#F0F0F0"/>
<path d="M122.521 104.828H121.206V106.151H122.521V104.828Z" fill="#F0F0F0"/>
<path d="M122.521 107.047H121.206V108.369H122.521V107.047Z" fill="#F0F0F0"/>
<path d="M122.521 109.262H121.206V110.584H122.521V109.262Z" fill="#F0F0F0"/>
<path d="M122.521 111.48H121.206V112.803H122.521V111.48Z" fill="#F0F0F0"/>
<path d="M122.521 113.699H121.206V115.022H122.521V113.699Z" fill="#F0F0F0"/>
<path d="M122.521 115.917H121.206V117.239H122.521V115.917Z" fill="#F0F0F0"/>
<path d="M122.521 118.136H121.206V119.458H122.521V118.136Z" fill="#F0F0F0"/>
<path d="M122.521 120.352H121.206V121.674H122.521V120.352Z" fill="#F0F0F0"/>
<path d="M122.521 122.569H121.206V123.892H122.521V122.569Z" fill="#F0F0F0"/>
<path d="M122.521 124.782H121.206V126.105H122.521V124.782Z" fill="#F0F0F0"/>
<path d="M122.521 127.001H121.206V128.323H122.521V127.001Z" fill="#F0F0F0"/>
<path d="M122.521 129.219H121.206V130.541H122.521V129.219Z" fill="#F0F0F0"/>
<path d="M122.521 131.435H121.206V132.757H122.521V131.435Z" fill="#F0F0F0"/>
<path d="M122.521 133.653H121.206V134.976H122.521V133.653Z" fill="#F0F0F0"/>
<path d="M122.521 135.871H121.206V137.194H122.521V135.871Z" fill="#F0F0F0"/>
<path d="M122.521 138.09H121.206V139.412H122.521V138.09Z" fill="#F0F0F0"/>
<path d="M122.521 140.306H121.206V141.628H122.521V140.306Z" fill="#F0F0F0"/>
<path d="M122.521 142.523H121.206V143.846H122.521V142.523Z" fill="#F0F0F0"/>
<path d="M122.521 144.742H121.206V146.065H122.521V144.742Z" fill="#F0F0F0"/>
<path d="M120.431 104.828H119.116V106.151H120.431V104.828Z" fill="#F0F0F0"/>
<path d="M120.431 107.047H119.116V108.369H120.431V107.047Z" fill="#F0F0F0"/>
<path d="M120.431 109.262H119.116V110.584H120.431V109.262Z" fill="#F0F0F0"/>
<path d="M120.431 111.48H119.116V112.803H120.431V111.48Z" fill="#F0F0F0"/>
<path d="M120.431 113.699H119.116V115.022H120.431V113.699Z" fill="#F0F0F0"/>
<path d="M120.431 115.917H119.116V117.239H120.431V115.917Z" fill="#F0F0F0"/>
<path d="M120.431 118.136H119.116V119.458H120.431V118.136Z" fill="#F0F0F0"/>
<path d="M120.431 120.352H119.116V121.674H120.431V120.352Z" fill="#F0F0F0"/>
<path d="M120.431 122.569H119.116V123.892H120.431V122.569Z" fill="#F0F0F0"/>
<path d="M120.431 124.782H119.116V126.105H120.431V124.782Z" fill="#F0F0F0"/>
<path d="M120.431 127.001H119.116V128.323H120.431V127.001Z" fill="#F0F0F0"/>
<path d="M120.431 129.219H119.116V130.541H120.431V129.219Z" fill="#F0F0F0"/>
<path d="M120.431 131.435H119.116V132.757H120.431V131.435Z" fill="#F0F0F0"/>
<path d="M120.431 133.653H119.116V134.976H120.431V133.653Z" fill="#F0F0F0"/>
<path d="M120.431 135.871H119.116V137.194H120.431V135.871Z" fill="#F0F0F0"/>
<path d="M120.431 138.09H119.116V139.412H120.431V138.09Z" fill="#F0F0F0"/>
<path d="M120.431 140.306H119.116V141.628H120.431V140.306Z" fill="#F0F0F0"/>
<path d="M120.431 142.523H119.116V143.846H120.431V142.523Z" fill="#F0F0F0"/>
<path d="M120.431 144.742H119.116V146.065H120.431V144.742Z" fill="#F0F0F0"/>
<path d="M118.342 104.828H117.027V106.151H118.342V104.828Z" fill="#F0F0F0"/>
<path d="M118.342 107.047H117.027V108.369H118.342V107.047Z" fill="#F0F0F0"/>
<path d="M118.342 109.262H117.027V110.584H118.342V109.262Z" fill="#F0F0F0"/>
<path d="M118.342 111.48H117.027V112.803H118.342V111.48Z" fill="#F0F0F0"/>
<path d="M118.342 113.699H117.027V115.022H118.342V113.699Z" fill="#F0F0F0"/>
<path d="M118.342 115.917H117.027V117.239H118.342V115.917Z" fill="#F0F0F0"/>
<path d="M118.342 118.136H117.027V119.458H118.342V118.136Z" fill="#F0F0F0"/>
<path d="M118.342 120.352H117.027V121.674H118.342V120.352Z" fill="#F0F0F0"/>
<path d="M118.342 122.569H117.027V123.892H118.342V122.569Z" fill="#F0F0F0"/>
<path d="M118.342 124.782H117.027V126.105H118.342V124.782Z" fill="#F0F0F0"/>
<path d="M118.342 127.001H117.027V128.323H118.342V127.001Z" fill="#F0F0F0"/>
<path d="M118.342 129.219H117.027V130.541H118.342V129.219Z" fill="#F0F0F0"/>
<path d="M118.342 131.435H117.027V132.757H118.342V131.435Z" fill="#F0F0F0"/>
<path d="M118.342 133.653H117.027V134.976H118.342V133.653Z" fill="#F0F0F0"/>
<path d="M118.342 135.871H117.027V137.194H118.342V135.871Z" fill="#F0F0F0"/>
<path d="M116.253 104.828H114.938V106.151H116.253V104.828Z" fill="#F0F0F0"/>
<path d="M116.253 107.047H114.938V108.369H116.253V107.047Z" fill="#F0F0F0"/>
<path d="M116.253 109.262H114.938V110.584H116.253V109.262Z" fill="#F0F0F0"/>
<path d="M116.253 111.48H114.938V112.803H116.253V111.48Z" fill="#F0F0F0"/>
<path d="M116.253 113.699H114.938V115.022H116.253V113.699Z" fill="#F0F0F0"/>
<path d="M116.253 115.917H114.938V117.239H116.253V115.917Z" fill="#F0F0F0"/>
<path d="M116.253 118.136H114.938V119.458H116.253V118.136Z" fill="#F0F0F0"/>
<path d="M116.253 120.352H114.938V121.674H116.253V120.352Z" fill="#F0F0F0"/>
<path d="M116.253 122.569H114.938V123.892H116.253V122.569Z" fill="#F0F0F0"/>
<path d="M116.253 124.782H114.938V126.105H116.253V124.782Z" fill="#F0F0F0"/>
<path d="M116.253 127.001H114.938V128.323H116.253V127.001Z" fill="#F0F0F0"/>
<path d="M116.253 129.219H114.938V130.541H116.253V129.219Z" fill="#F0F0F0"/>
<path d="M116.253 131.435H114.938V132.757H116.253V131.435Z" fill="#F0F0F0"/>
<path d="M114.164 104.828H112.849V106.151H114.164V104.828Z" fill="#F0F0F0"/>
<path d="M114.164 107.047H112.849V108.369H114.164V107.047Z" fill="#F0F0F0"/>
<path d="M114.164 109.262H112.849V110.584H114.164V109.262Z" fill="#F0F0F0"/>
<path d="M114.164 111.48H112.849V112.803H114.164V111.48Z" fill="#F0F0F0"/>
<path d="M114.164 113.699H112.849V115.022H114.164V113.699Z" fill="#F0F0F0"/>
<path d="M114.164 115.917H112.849V117.239H114.164V115.917Z" fill="#F0F0F0"/>
<path d="M114.164 118.136H112.849V119.458H114.164V118.136Z" fill="#F0F0F0"/>
<path d="M114.164 120.352H112.849V121.674H114.164V120.352Z" fill="#F0F0F0"/>
<path d="M114.164 122.569H112.849V123.892H114.164V122.569Z" fill="#F0F0F0"/>
<path d="M114.164 124.782H112.849V126.105H114.164V124.782Z" fill="#F0F0F0"/>
<path d="M114.164 127.001H112.849V128.323H114.164V127.001Z" fill="#F0F0F0"/>
<path d="M114.164 129.219H112.849V130.541H114.164V129.219Z" fill="#F0F0F0"/>
<path d="M236.081 104.17H234.766V105.492H236.081V104.17Z" fill="#F0F0F0"/>
<path d="M236.081 106.389H234.766V107.711H236.081V106.389Z" fill="#F0F0F0"/>
<path d="M236.081 108.606H234.766V109.929H236.081V108.606Z" fill="#F0F0F0"/>
<path d="M236.081 110.819H234.766V112.142H236.081V110.819Z" fill="#F0F0F0"/>
<path d="M236.081 113.034H234.766V114.357H236.081V113.034Z" fill="#F0F0F0"/>
<path d="M236.081 115.253H234.766V116.575H236.081V115.253Z" fill="#F0F0F0"/>
<path d="M236.081 117.472H234.766V118.794H236.081V117.472Z" fill="#F0F0F0"/>
<path d="M236.081 119.69H234.766V121.013H236.081V119.69Z" fill="#F0F0F0"/>
<path d="M236.081 121.905H234.766V123.228H236.081V121.905Z" fill="#F0F0F0"/>
<path d="M236.081 124.124H234.766V125.446H236.081V124.124Z" fill="#F0F0F0"/>
<path d="M236.081 126.343H234.766V127.665H236.081V126.343Z" fill="#F0F0F0"/>
<path d="M236.081 128.561H234.766V129.883H236.081V128.561Z" fill="#F0F0F0"/>
<path d="M236.081 130.776H234.766V132.099H236.081V130.776Z" fill="#F0F0F0"/>
<path d="M236.081 132.992H234.766V134.315H236.081V132.992Z" fill="#F0F0F0"/>
<path d="M236.081 135.207H234.766V136.529H236.081V135.207Z" fill="#F0F0F0"/>
<path d="M236.081 137.426H234.766V138.748H236.081V137.426Z" fill="#F0F0F0"/>
<path d="M236.081 139.645H234.766V140.967H236.081V139.645Z" fill="#F0F0F0"/>
<path d="M236.081 144.078H234.766V145.401H236.081V144.078Z" fill="#F0F0F0"/>
<path d="M236.081 146.297H234.766V147.619H236.081V146.297Z" fill="#F0F0F0"/>
<path d="M236.081 148.515H234.766V149.837H236.081V148.515Z" fill="#F0F0F0"/>
<path d="M236.081 150.733H234.766V152.056H236.081V150.733Z" fill="#F0F0F0"/>
<path d="M236.081 152.945H234.766V154.268H236.081V152.945Z" fill="#F0F0F0"/>
<path d="M233.992 104.17H232.677V105.492H233.992V104.17Z" fill="#F0F0F0"/>
<path d="M233.992 106.389H232.677V107.711H233.992V106.389Z" fill="#F0F0F0"/>
<path d="M233.992 108.606H232.677V109.929H233.992V108.606Z" fill="#F0F0F0"/>
<path d="M233.992 110.819H232.677V112.142H233.992V110.819Z" fill="#F0F0F0"/>
<path d="M233.992 113.034H232.677V114.357H233.992V113.034Z" fill="#F0F0F0"/>
<path d="M233.992 115.253H232.677V116.575H233.992V115.253Z" fill="#F0F0F0"/>
<path d="M233.992 117.472H232.677V118.794H233.992V117.472Z" fill="#F0F0F0"/>
<path d="M233.992 119.69H232.677V121.013H233.992V119.69Z" fill="#F0F0F0"/>
<path d="M233.992 121.905H232.677V123.228H233.992V121.905Z" fill="#F0F0F0"/>
<path d="M233.992 124.124H232.677V125.446H233.992V124.124Z" fill="#F0F0F0"/>
<path d="M233.992 126.343H232.677V127.665H233.992V126.343Z" fill="#F0F0F0"/>
<path d="M233.992 128.561H232.677V129.883H233.992V128.561Z" fill="#F0F0F0"/>
<path d="M233.992 130.776H232.677V132.099H233.992V130.776Z" fill="#F0F0F0"/>
<path d="M233.992 132.992H232.677V134.315H233.992V132.992Z" fill="#F0F0F0"/>
<path d="M233.992 135.207H232.677V136.529H233.992V135.207Z" fill="#F0F0F0"/>
<path d="M233.992 137.426H232.677V138.748H233.992V137.426Z" fill="#F0F0F0"/>
<path d="M233.992 150.733H232.677V152.056H233.992V150.733Z" fill="#F0F0F0"/>
<path d="M233.992 152.945H232.677V154.268H233.992V152.945Z" fill="#F0F0F0"/>
<path d="M231.909 104.17H230.594V105.492H231.909V104.17Z" fill="#F0F0F0"/>
<path d="M231.909 106.389H230.594V107.711H231.909V106.389Z" fill="#F0F0F0"/>
<path d="M231.909 108.606H230.594V109.929H231.909V108.606Z" fill="#F0F0F0"/>
<path d="M231.909 110.819H230.594V112.142H231.909V110.819Z" fill="#F0F0F0"/>
<path d="M231.909 113.034H230.594V114.357H231.909V113.034Z" fill="#F0F0F0"/>
<path d="M231.909 115.253H230.594V116.575H231.909V115.253Z" fill="#F0F0F0"/>
<path d="M231.909 117.472H230.594V118.794H231.909V117.472Z" fill="#F0F0F0"/>
<path d="M231.909 119.69H230.594V121.013H231.909V119.69Z" fill="#F0F0F0"/>
<path d="M231.909 121.905H230.594V123.228H231.909V121.905Z" fill="#F0F0F0"/>
<path d="M231.909 124.124H230.594V125.446H231.909V124.124Z" fill="#F0F0F0"/>
<path d="M231.909 126.343H230.594V127.665H231.909V126.343Z" fill="#F0F0F0"/>
<path d="M231.909 128.561H230.594V129.883H231.909V128.561Z" fill="#F0F0F0"/>
<path d="M231.909 130.776H230.594V132.099H231.909V130.776Z" fill="#F0F0F0"/>
<path d="M231.909 132.992H230.594V134.315H231.909V132.992Z" fill="#F0F0F0"/>
<path d="M231.909 135.207H230.594V136.529H231.909V135.207Z" fill="#F0F0F0"/>
<path d="M231.909 137.426H230.594V138.748H231.909V137.426Z" fill="#F0F0F0"/>
<path d="M231.909 141.862H230.594V143.185H231.909V141.862Z" fill="#F0F0F0"/>
<path d="M231.909 144.078H230.594V145.401H231.909V144.078Z" fill="#F0F0F0"/>
<path d="M231.909 146.297H230.594V147.619H231.909V146.297Z" fill="#F0F0F0"/>
<path d="M231.909 148.515H230.594V149.837H231.909V148.515Z" fill="#F0F0F0"/>
<path d="M231.909 152.945H230.594V154.268H231.909V152.945Z" fill="#F0F0F0"/>
<path d="M195.47 119.69H194.155V121.013H195.47V119.69Z" fill="#F0F0F0"/>
<path d="M195.47 121.905H194.155V123.228H195.47V121.905Z" fill="#F0F0F0"/>
<path d="M195.47 124.124H194.155V125.446H195.47V124.124Z" fill="#F0F0F0"/>
<path d="M195.47 126.343H194.155V127.665H195.47V126.343Z" fill="#F0F0F0"/>
<path d="M195.47 128.561H194.155V129.883H195.47V128.561Z" fill="#F0F0F0"/>
<path d="M195.47 130.776H194.155V132.099H195.47V130.776Z" fill="#F0F0F0"/>
<path d="M195.47 132.992H194.155V134.315H195.47V132.992Z" fill="#F0F0F0"/>
<path d="M195.47 135.207H194.155V136.529H195.47V135.207Z" fill="#F0F0F0"/>
<path d="M195.47 137.426H194.155V138.748H195.47V137.426Z" fill="#F0F0F0"/>
<path d="M195.47 139.645H194.155V140.967H195.47V139.645Z" fill="#F0F0F0"/>
<path d="M195.47 141.862H194.155V143.185H195.47V141.862Z" fill="#F0F0F0"/>
<path d="M195.47 144.078H194.155V145.401H195.47V144.078Z" fill="#F0F0F0"/>
<path d="M195.47 146.297H194.155V147.619H195.47V146.297Z" fill="#F0F0F0"/>
<path d="M195.47 150.733H194.155V152.056H195.47V150.733Z" fill="#F0F0F0"/>
<path d="M195.47 152.945H194.155V154.268H195.47V152.945Z" fill="#F0F0F0"/>
<path d="M195.47 155.161H194.155V156.484H195.47V155.161Z" fill="#F0F0F0"/>
<path d="M195.47 157.38H194.155V158.702H195.47V157.38Z" fill="#F0F0F0"/>
<path d="M195.47 161.816H194.155V163.139H195.47V161.816Z" fill="#F0F0F0"/>
<path d="M195.47 164.035H194.155V165.358H195.47V164.035Z" fill="#F0F0F0"/>
<path d="M195.47 166.25H194.155V167.572H195.47V166.25Z" fill="#F0F0F0"/>
<path d="M193.38 119.69H192.065V121.013H193.38V119.69Z" fill="#F0F0F0"/>
<path d="M193.38 121.905H192.065V123.228H193.38V121.905Z" fill="#F0F0F0"/>
<path d="M193.38 124.124H192.065V125.446H193.38V124.124Z" fill="#F0F0F0"/>
<path d="M193.38 126.343H192.065V127.665H193.38V126.343Z" fill="#F0F0F0"/>
<path d="M193.38 128.561H192.065V129.883H193.38V128.561Z" fill="#F0F0F0"/>
<path d="M193.38 130.776H192.065V132.099H193.38V130.776Z" fill="#F0F0F0"/>
<path d="M193.38 132.992H192.065V134.315H193.38V132.992Z" fill="#F0F0F0"/>
<path d="M193.38 135.207H192.065V136.529H193.38V135.207Z" fill="#F0F0F0"/>
<path d="M193.38 137.426H192.065V138.748H193.38V137.426Z" fill="#F0F0F0"/>
<path d="M193.38 139.645H192.065V140.967H193.38V139.645Z" fill="#F0F0F0"/>
<path d="M193.38 141.862H192.065V143.185H193.38V141.862Z" fill="#F0F0F0"/>
<path d="M193.38 144.078H192.065V145.401H193.38V144.078Z" fill="#F0F0F0"/>
<path d="M193.38 146.297H192.065V147.619H193.38V146.297Z" fill="#F0F0F0"/>
<path d="M193.38 152.945H192.065V154.268H193.38V152.945Z" fill="#F0F0F0"/>
<path d="M193.38 155.161H192.065V156.484H193.38V155.161Z" fill="#F0F0F0"/>
<path d="M193.38 159.598H192.065V160.92H193.38V159.598Z" fill="#F0F0F0"/>
<path d="M193.38 161.816H192.065V163.139H193.38V161.816Z" fill="#F0F0F0"/>
<path d="M193.38 164.035H192.065V165.358H193.38V164.035Z" fill="#F0F0F0"/>
<path d="M193.38 166.25H192.065V167.572H193.38V166.25Z" fill="#F0F0F0"/>
<path d="M191.291 119.69H189.976V121.013H191.291V119.69Z" fill="#F0F0F0"/>
<path d="M191.291 121.905H189.976V123.228H191.291V121.905Z" fill="#F0F0F0"/>
<path d="M191.291 124.124H189.976V125.446H191.291V124.124Z" fill="#F0F0F0"/>
<path d="M191.291 126.343H189.976V127.665H191.291V126.343Z" fill="#F0F0F0"/>
<path d="M191.291 128.561H189.976V129.883H191.291V128.561Z" fill="#F0F0F0"/>
<path d="M191.291 130.776H189.976V132.099H191.291V130.776Z" fill="#F0F0F0"/>
<path d="M191.291 132.992H189.976V134.315H191.291V132.992Z" fill="#F0F0F0"/>
<path d="M191.291 135.207H189.976V136.529H191.291V135.207Z" fill="#F0F0F0"/>
<path d="M191.291 137.426H189.976V138.748H191.291V137.426Z" fill="#F0F0F0"/>
<path d="M191.291 139.645H189.976V140.967H191.291V139.645Z" fill="#F0F0F0"/>
<path d="M191.291 141.862H189.976V143.185H191.291V141.862Z" fill="#F0F0F0"/>
<path d="M191.291 144.078H189.976V145.401H191.291V144.078Z" fill="#F0F0F0"/>
<path d="M191.291 146.297H189.976V147.619H191.291V146.297Z" fill="#F0F0F0"/>
<path d="M191.291 148.515H189.976V149.837H191.291V148.515Z" fill="#F0F0F0"/>
<path d="M191.291 152.945H189.976V154.268H191.291V152.945Z" fill="#F0F0F0"/>
<path d="M191.291 157.38H189.976V158.702H191.291V157.38Z" fill="#F0F0F0"/>
<path d="M191.291 159.598H189.976V160.92H191.291V159.598Z" fill="#F0F0F0"/>
<path d="M191.291 161.816H189.976V163.139H191.291V161.816Z" fill="#F0F0F0"/>
<path d="M191.291 164.035H189.976V165.358H191.291V164.035Z" fill="#F0F0F0"/>
<path d="M191.291 166.25H189.976V167.572H191.291V166.25Z" fill="#F0F0F0"/>
<path d="M203.977 132.334H202.662V133.656H203.977V132.334Z" fill="#F0F0F0"/>
<path d="M203.977 134.549H202.662V135.871H203.977V134.549Z" fill="#F0F0F0"/>
<path d="M203.977 136.768H202.662V138.09H203.977V136.768Z" fill="#F0F0F0"/>
<path d="M203.977 138.979H202.662V140.302H203.977V138.979Z" fill="#F0F0F0"/>
<path d="M203.977 141.198H202.662V142.521H203.977V141.198Z" fill="#F0F0F0"/>
<path d="M203.977 143.417H202.662V144.739H203.977V143.417Z" fill="#F0F0F0"/>
<path d="M203.977 150.069H202.662V151.392H203.977V150.069Z" fill="#F0F0F0"/>
<path d="M203.977 152.287H202.662V153.61H203.977V152.287Z" fill="#F0F0F0"/>
<path d="M203.977 154.506H202.662V155.828H203.977V154.506Z" fill="#F0F0F0"/>
<path d="M203.977 156.722H202.662V158.044H203.977V156.722Z" fill="#F0F0F0"/>
<path d="M203.977 158.939H202.662V160.262H203.977V158.939Z" fill="#F0F0F0"/>
<path d="M203.977 161.152H202.662V162.475H203.977V161.152Z" fill="#F0F0F0"/>
<path d="M203.977 163.371H202.662V164.694H203.977V163.371Z" fill="#F0F0F0"/>
<path d="M201.888 132.334H200.573V133.656H201.888V132.334Z" fill="#F0F0F0"/>
<path d="M201.888 134.549H200.573V135.871H201.888V134.549Z" fill="#F0F0F0"/>
<path d="M201.888 136.768H200.573V138.09H201.888V136.768Z" fill="#F0F0F0"/>
<path d="M201.888 138.979H200.573V140.302H201.888V138.979Z" fill="#F0F0F0"/>
<path d="M201.888 141.198H200.573V142.521H201.888V141.198Z" fill="#F0F0F0"/>
<path d="M201.888 143.417H200.573V144.739H201.888V143.417Z" fill="#F0F0F0"/>
<path d="M201.888 150.069H200.573V151.392H201.888V150.069Z" fill="#F0F0F0"/>
<path d="M201.888 152.287H200.573V153.61H201.888V152.287Z" fill="#F0F0F0"/>
<path d="M201.888 154.506H200.573V155.828H201.888V154.506Z" fill="#F0F0F0"/>
<path d="M201.888 156.722H200.573V158.044H201.888V156.722Z" fill="#F0F0F0"/>
<path d="M201.888 158.939H200.573V160.262H201.888V158.939Z" fill="#F0F0F0"/>
<path d="M201.888 161.152H200.573V162.475H201.888V161.152Z" fill="#F0F0F0"/>
<path d="M201.888 165.589H200.573V166.911H201.888V165.589Z" fill="#F0F0F0"/>
<path d="M132.497 122.569H131.182V123.892H132.497V122.569Z" fill="#F0F0F0"/>
<path d="M132.497 124.782H131.182V126.105H132.497V124.782Z" fill="#F0F0F0"/>
<path d="M132.497 127.001H131.182V128.323H132.497V127.001Z" fill="#F0F0F0"/>
<path d="M132.497 129.219H131.182V130.541H132.497V129.219Z" fill="#F0F0F0"/>
<path d="M132.497 131.435H131.182V132.757H132.497V131.435Z" fill="#F0F0F0"/>
<path d="M132.497 133.653H131.182V134.976H132.497V133.653Z" fill="#F0F0F0"/>
<path d="M132.497 135.871H131.182V137.194H132.497V135.871Z" fill="#F0F0F0"/>
<path d="M132.497 138.09H131.182V139.412H132.497V138.09Z" fill="#F0F0F0"/>
<path d="M132.497 140.306H131.182V141.628H132.497V140.306Z" fill="#F0F0F0"/>
<path d="M132.497 142.523H131.182V143.846H132.497V142.523Z" fill="#F0F0F0"/>
<path d="M132.497 144.742H131.182V146.065H132.497V144.742Z" fill="#F0F0F0"/>
<path d="M132.497 149.173H131.182V150.495H132.497V149.173Z" fill="#F0F0F0"/>
<path d="M132.497 151.392H131.182V152.714H132.497V151.392Z" fill="#F0F0F0"/>
<path d="M132.497 153.606H131.182V154.929H132.497V153.606Z" fill="#F0F0F0"/>
<path d="M132.497 155.825H131.182V157.148H132.497V155.825Z" fill="#F0F0F0"/>
<path d="M132.497 158.044H131.182V159.366H132.497V158.044Z" fill="#F0F0F0"/>
<path d="M132.497 160.263H131.182V161.585H132.497V160.263Z" fill="#F0F0F0"/>
<path d="M132.497 162.478H131.182V163.8H132.497V162.478Z" fill="#F0F0F0"/>
<path d="M132.497 164.696H131.182V166.019H132.497V164.696Z" fill="#F0F0F0"/>
<path d="M130.414 122.569H129.099V123.892H130.414V122.569Z" fill="#F0F0F0"/>
<path d="M130.414 124.782H129.099V126.105H130.414V124.782Z" fill="#F0F0F0"/>
<path d="M130.414 127.001H129.099V128.323H130.414V127.001Z" fill="#F0F0F0"/>
<path d="M130.414 129.219H129.099V130.541H130.414V129.219Z" fill="#F0F0F0"/>
<path d="M130.414 131.435H129.099V132.757H130.414V131.435Z" fill="#F0F0F0"/>
<path d="M130.414 133.653H129.099V134.976H130.414V133.653Z" fill="#F0F0F0"/>
<path d="M130.414 135.871H129.099V137.194H130.414V135.871Z" fill="#F0F0F0"/>
<path d="M130.414 138.09H129.099V139.412H130.414V138.09Z" fill="#F0F0F0"/>
<path d="M130.414 140.306H129.099V141.628H130.414V140.306Z" fill="#F0F0F0"/>
<path d="M130.414 142.523H129.099V143.846H130.414V142.523Z" fill="#F0F0F0"/>
<path d="M130.414 144.742H129.099V146.065H130.414V144.742Z" fill="#F0F0F0"/>
<path d="M130.414 146.954H129.099V148.277H130.414V146.954Z" fill="#F0F0F0"/>
<path d="M130.414 149.173H129.099V150.495H130.414V149.173Z" fill="#F0F0F0"/>
<path d="M130.414 151.392H129.099V152.714H130.414V151.392Z" fill="#F0F0F0"/>
<path d="M130.414 153.606H129.099V154.929H130.414V153.606Z" fill="#F0F0F0"/>
<path d="M130.414 155.825H129.099V157.148H130.414V155.825Z" fill="#F0F0F0"/>
<path d="M130.414 158.044H129.099V159.366H130.414V158.044Z" fill="#F0F0F0"/>
<path d="M130.414 160.263H129.099V161.585H130.414V160.263Z" fill="#F0F0F0"/>
<path d="M130.414 162.478H129.099V163.8H130.414V162.478Z" fill="#F0F0F0"/>
<path d="M130.414 164.696H129.099V166.019H130.414V164.696Z" fill="#F0F0F0"/>
<path d="M142.79 131.203H141.475V132.526H142.79V131.203Z" fill="#F0F0F0"/>
<path d="M142.79 133.421H141.475V134.743H142.79V133.421Z" fill="#F0F0F0"/>
<path d="M142.79 135.637H141.475V136.959H142.79V135.637Z" fill="#F0F0F0"/>
<path d="M142.79 137.855H141.475V139.178H142.79V137.855Z" fill="#F0F0F0"/>
<path d="M142.79 140.073H141.475V141.396H142.79V140.073Z" fill="#F0F0F0"/>
<path d="M142.79 142.292H141.475V143.614H142.79V142.292Z" fill="#F0F0F0"/>
<path d="M142.79 144.508H141.475V145.83H142.79V144.508Z" fill="#F0F0F0"/>
<path d="M142.79 146.723H141.475V148.045H142.79V146.723Z" fill="#F0F0F0"/>
<path d="M142.79 148.938H141.475V150.261H142.79V148.938Z" fill="#F0F0F0"/>
<path d="M142.79 151.156H141.475V152.479H142.79V151.156Z" fill="#F0F0F0"/>
<path d="M140.7 131.203H139.385V132.526H140.7V131.203Z" fill="#F0F0F0"/>
<path d="M140.7 133.421H139.385V134.743H140.7V133.421Z" fill="#F0F0F0"/>
<path d="M140.7 135.637H139.385V136.959H140.7V135.637Z" fill="#F0F0F0"/>
<path d="M140.7 137.855H139.385V139.178H140.7V137.855Z" fill="#F0F0F0"/>
<path d="M140.7 140.073H139.385V141.396H140.7V140.073Z" fill="#F0F0F0"/>
<path d="M140.7 142.292H139.385V143.614H140.7V142.292Z" fill="#F0F0F0"/>
<path d="M140.7 144.508H139.385V145.83H140.7V144.508Z" fill="#F0F0F0"/>
<path d="M140.7 146.723H139.385V148.045H140.7V146.723Z" fill="#F0F0F0"/>
<path d="M140.7 148.938H139.385V150.261H140.7V148.938Z" fill="#F0F0F0"/>
<path d="M153.125 47.0605H150.919V170.724H153.125V47.0605Z" fill="#E0E0E0"/>
<path d="M194.649 47.0605H192.443V170.724H194.649V47.0605Z" fill="#E0E0E0"/>
<path d="M236.17 47.0605H233.964V170.724H236.17V47.0605Z" fill="#E0E0E0"/>
<path d="M79.2236 158.671H92.8254C93.4422 158.671 94.0338 158.917 94.47 159.356C94.9061 159.795 95.1512 160.39 95.1512 161.01V187.446H76.9039V161.032C76.9007 160.724 76.9578 160.419 77.0719 160.134C77.186 159.849 77.355 159.59 77.569 159.37C77.7831 159.151 78.0381 158.976 78.3193 158.856C78.6006 158.736 78.9027 158.673 79.2083 158.671H79.2236Z" fill="#F0F0F0"/>
<path d="M95.1541 162.586H76.9038V164.65H95.1541V162.586Z" fill="#E6E6E6"/>
<path d="M87.2826 183.992H91.8298C92.1615 183.992 92.4795 184.125 92.714 184.361C92.9485 184.597 93.0803 184.916 93.0803 185.25V187.478H86.0137V185.228C86.0137 184.895 86.1454 184.575 86.3799 184.339C86.6144 184.103 86.9325 183.971 87.2642 183.971L87.2826 183.992Z" fill="#E0E0E0"/>
<path d="M93.1018 187.468H88.0445C87.8294 187.468 87.6231 187.382 87.471 187.229C87.3189 187.076 87.2334 186.869 87.2334 186.652C87.2342 186.437 87.32 186.23 87.4721 186.078C87.6241 185.925 87.8299 185.84 88.0445 185.84H93.1018C93.3164 185.84 93.5222 185.925 93.6742 186.078C93.8263 186.23 93.9121 186.437 93.9129 186.652C93.9129 186.869 93.8274 187.076 93.6753 187.229C93.5232 187.382 93.3169 187.468 93.1018 187.468Z" fill="#E6E6E6"/>
<path d="M174.133 41.2565C180.812 39.6713 184.948 32.9416 183.372 26.2252C181.795 19.5088 175.103 15.3492 168.425 16.9344C161.746 18.5196 157.61 25.2494 159.186 31.9657C160.762 38.6821 167.454 42.8417 174.133 41.2565Z" fill="#E0E0E0"/>
<path d="M171.277 39.7068C177.113 39.7068 181.843 34.9494 181.843 29.0809C181.843 23.2124 177.113 18.4551 171.277 18.4551C165.442 18.4551 160.711 23.2124 160.711 29.0809C160.711 34.9494 165.442 39.7068 171.277 39.7068Z" fill="#F0F0F0"/>
<path d="M171.778 21.7988V29.2267L176.669 26.4428" fill="#F0F0F0"/>
<path d="M171.778 29.7426C171.684 29.7434 171.591 29.7177 171.511 29.6685C171.432 29.6213 171.367 29.5543 171.321 29.4742C171.276 29.394 171.252 29.3034 171.252 29.2112V21.7771C171.263 21.6435 171.323 21.5188 171.42 21.4277C171.518 21.3367 171.646 21.2861 171.779 21.2861C171.913 21.2861 172.041 21.3367 172.139 21.4277C172.236 21.5188 172.296 21.6435 172.306 21.7771V28.3151L176.411 25.9792C176.533 25.9096 176.678 25.8916 176.813 25.9293C176.949 25.9669 177.064 26.0571 177.133 26.1801C177.202 26.303 177.22 26.4485 177.183 26.5847C177.145 26.7209 177.056 26.8365 176.933 26.9062L172.036 29.687C171.955 29.7255 171.867 29.7446 171.778 29.7426Z" fill="#E0E0E0"/>
<path d="M52.3645 151.052C51.4151 149.461 49.8543 150.845 49.8543 150.845C50.0755 147.829 47.3195 145.771 47.3195 145.771C47.3195 145.771 50.5241 145.771 50.9665 142.7C51.409 139.629 49.8543 141.056 48.3857 141.035C46.9171 141.013 45.3839 145.32 47.3318 147.746C49.2798 150.171 48.7452 154.309 44.2778 158.288C43.2084 159.294 42.4066 160.552 41.9458 161.95C42.2807 158.294 42.4712 153.141 41.4174 149.705C39.6016 143.868 43.0642 142.289 44.0535 139.369C45.0429 136.45 41.4174 133.978 41.4174 133.978C41.4174 133.978 44.8524 132.386 43.1748 130.61C41.4973 128.833 38.0346 129.065 38.0346 131.404C38.0346 133.743 40.382 134.651 40.382 134.651C40.382 134.651 43.0642 137.457 43.0642 138.897C43.0642 140.336 40.382 143.516 40.382 143.516C40.382 143.516 41.6109 140.828 39.153 140.717C36.695 140.605 35.9146 143.856 36.9224 145.314C37.9302 146.773 39.6016 145.543 39.6016 145.543C39.7132 147.242 39.9743 148.927 40.382 150.579C40.637 151.423 40.5202 154.716 40.3082 158.146C39.842 156.909 39.0963 155.797 38.1299 154.899C33.6595 150.919 33.1433 146.779 35.0789 144.356C37.0146 141.934 35.4661 137.624 34.022 137.645C32.578 137.667 30.9895 136.236 31.4381 139.308C31.8867 142.379 35.0881 142.397 35.0881 142.397C35.0881 142.397 32.3229 144.455 32.5503 147.468C32.5503 147.468 30.968 146.099 30.0401 147.675C28.3441 150.483 32.2769 152.223 32.9344 150.86C32.9344 150.86 41.2668 156.79 39.2667 165.327L39.7306 166.022C39.6722 166.714 39.6354 167.125 39.6354 167.125L40.2836 166.844L41.0272 167.925C41.0033 169.164 41.067 170.403 41.2177 171.633L43.2055 168.673C41.1962 160.136 49.5379 154.204 49.5379 154.204C50.1462 155.603 54.0697 153.857 52.3645 151.052Z" fill="#E0E0E0"/>
<path opacity="0.2" d="M52.3645 151.052C51.4151 149.461 49.8543 150.845 49.8543 150.845C50.0755 147.829 47.3195 145.771 47.3195 145.771C47.3195 145.771 50.5241 145.771 50.9665 142.7C51.409 139.629 49.8543 141.056 48.3857 141.035C46.9171 141.013 45.3839 145.32 47.3318 147.746C49.2798 150.171 48.7452 154.309 44.2778 158.288C43.2084 159.294 42.4066 160.552 41.9458 161.95C42.2807 158.294 42.4712 153.141 41.4174 149.705C39.6016 143.868 43.0642 142.289 44.0535 139.369C45.0429 136.45 41.4174 133.978 41.4174 133.978C41.4174 133.978 44.8524 132.386 43.1748 130.61C41.4973 128.833 38.0346 129.065 38.0346 131.404C38.0346 133.743 40.382 134.651 40.382 134.651C40.382 134.651 43.0642 137.457 43.0642 138.897C43.0642 140.336 40.382 143.516 40.382 143.516C40.382 143.516 41.6109 140.828 39.153 140.717C36.695 140.605 35.9146 143.856 36.9224 145.314C37.9302 146.773 39.6016 145.543 39.6016 145.543C39.7132 147.242 39.9743 148.927 40.382 150.579C40.637 151.423 40.5202 154.716 40.3082 158.146C39.842 156.909 39.0963 155.797 38.1299 154.899C33.6595 150.919 33.1433 146.779 35.0789 144.356C37.0146 141.934 35.4661 137.624 34.022 137.645C32.578 137.667 30.9895 136.236 31.4381 139.308C31.8867 142.379 35.0881 142.397 35.0881 142.397C35.0881 142.397 32.3229 144.455 32.5503 147.468C32.5503 147.468 30.968 146.099 30.0401 147.675C28.3441 150.483 32.2769 152.223 32.9344 150.86C32.9344 150.86 41.2668 156.79 39.2667 165.327L39.7306 166.022C39.6722 166.714 39.6354 167.125 39.6354 167.125L40.2836 166.844L41.0272 167.925C41.0033 169.164 41.067 170.403 41.2177 171.633L43.2055 168.673C41.1962 160.136 49.5379 154.204 49.5379 154.204C50.1462 155.603 54.0697 153.857 52.3645 151.052Z" fill="#E0E0E0"/>
<path d="M50.7454 187.468H31.6624L29.6069 166.457H52.81L50.7454 187.468Z" fill="#E6E6E6"/>
<path d="M53.8236 164.14H28.5835V168.777H53.8236V164.14Z" fill="#F0F0F0"/>
<path d="M145.732 58.0303L132.591 65.1488C132.237 65.3406 132.105 65.7847 132.296 66.1408L136.489 73.9697C136.68 74.3257 137.121 74.4589 137.475 74.2671L150.616 67.1486C150.97 66.9568 151.103 66.5127 150.912 66.1566L146.718 58.3277C146.528 57.9717 146.086 57.8385 145.732 58.0303Z" fill="#F2668B"/>
<path opacity="0.7" d="M145.732 58.0303L132.591 65.1488C132.237 65.3406 132.105 65.7847 132.296 66.1408L136.489 73.9697C136.68 74.3257 137.121 74.4589 137.475 74.2671L150.616 67.1486C150.97 66.9568 151.103 66.5127 150.912 66.1566L146.718 58.3277C146.528 57.9717 146.086 57.8385 145.732 58.0303Z" fill="white"/>
<path opacity="0.2" d="M143.355 66.9961C143.193 67.3467 142.923 67.6353 142.584 67.819C142.246 68.0027 141.858 68.0717 141.478 68.0157L132.773 66.7242L141.324 67.5739C141.654 67.6079 141.987 67.5423 142.281 67.3855C142.574 67.2287 142.814 66.9877 142.971 66.6933L147.06 58.9688L143.355 66.9961Z" fill="black"/>
<path d="M153.19 58.2365C151.801 54.8717 139.364 46.6003 140.255 45.8525C141.146 45.1048 143.382 46.6961 143.382 46.6961C143.382 46.6961 142.132 45.2438 143.382 45.1512C144.633 45.0585 147.349 46.7424 147.349 46.7424C147.349 46.7424 146.031 45.2253 147.349 45.1512C148.667 45.077 151.174 47.5272 151.174 47.5272C151.174 47.5272 149.432 45.0059 152.077 46.8258C154.723 48.6457 156.895 54.5936 157.036 57.5444C157.178 60.4951 154.578 61.6013 153.19 58.2365Z" fill="#F2668B"/>
<path opacity="0.4" d="M153.19 58.2365C151.801 54.8717 139.364 46.6003 140.255 45.8525C141.146 45.1048 143.382 46.6961 143.382 46.6961C143.382 46.6961 142.132 45.2438 143.382 45.1512C144.633 45.0585 147.349 46.7424 147.349 46.7424C147.349 46.7424 146.031 45.2253 147.349 45.1512C148.667 45.077 151.174 47.5272 151.174 47.5272C151.174 47.5272 149.432 45.0059 152.077 46.8258C154.723 48.6457 156.895 54.5936 157.036 57.5444C157.178 60.4951 154.578 61.6013 153.19 58.2365Z" fill="white"/>
<path d="M147.626 58.6073L146.618 59.7443C146.601 59.7626 146.581 59.7766 146.558 59.7852C146.535 59.7938 146.51 59.7967 146.486 59.7938C146.447 59.7884 146.412 59.7679 146.388 59.7367C146.363 59.7056 146.352 59.6662 146.357 59.6269L146.504 58.2798L144.759 58.4157C144.734 58.4186 144.708 58.4141 144.685 58.4025C144.662 58.391 144.643 58.3731 144.63 58.3508C144.621 58.3354 144.614 58.3183 144.612 58.3005C144.609 58.2826 144.609 58.2644 144.614 58.2469C144.618 58.2293 144.626 58.2128 144.637 58.1983C144.647 58.1838 144.661 58.1716 144.676 58.1623L146.338 57.1025L147.626 58.6073Z" fill="#F2668B"/>
<path opacity="0.3" d="M147.626 58.6073L146.618 59.7443C146.601 59.7626 146.581 59.7766 146.558 59.7852C146.535 59.7938 146.51 59.7967 146.486 59.7938C146.447 59.7884 146.412 59.7679 146.388 59.7367C146.363 59.7056 146.352 59.6662 146.357 59.6269L146.504 58.2798L144.759 58.4157C144.734 58.4186 144.708 58.4141 144.685 58.4025C144.662 58.391 144.643 58.3731 144.63 58.3508C144.621 58.3354 144.614 58.3183 144.612 58.3005C144.609 58.2826 144.609 58.2644 144.614 58.2469C144.618 58.2293 144.626 58.2128 144.637 58.1983C144.647 58.1838 144.661 58.1716 144.676 58.1623L146.338 57.1025L147.626 58.6073Z" fill="white"/>
<path d="M164.671 55.6258C165.879 59.8712 163.335 64.7037 158.551 64.645C153.767 64.5863 151.659 59.9732 149.026 59.3398C146.393 58.7063 145.687 57.3561 146.313 56.0553C146.94 54.7545 148.63 54.7576 152.087 55.8823C154.999 56.8247 158.674 56.8988 160.179 56.0553C162.908 54.5289 163.894 49.8942 163.894 49.8942C167.369 48.8653 169.67 50.4566 169.67 50.4566C167.545 51.6619 165.81 53.4563 164.671 55.6258Z" fill="#F2668B"/>
<path opacity="0.5" d="M164.671 55.6258C165.879 59.8712 163.335 64.7037 158.551 64.645C153.767 64.5863 151.659 59.9732 149.026 59.3398C146.393 58.7063 145.687 57.3561 146.313 56.0553C146.94 54.7545 148.63 54.7576 152.087 55.8823C154.999 56.8247 158.674 56.8988 160.179 56.0553C162.908 54.5289 163.894 49.8942 163.894 49.8942C167.369 48.8653 169.67 50.4566 169.67 50.4566C167.545 51.6619 165.81 53.4563 164.671 55.6258Z" fill="white"/>
<path d="M147.862 56.6924C147.92 56.6991 147.974 56.7272 148.014 56.7713C148.053 56.8155 148.075 56.8726 148.075 56.9318C148.075 56.991 148.053 57.0482 148.014 57.0923C147.974 57.1365 147.92 57.1646 147.862 57.1713C147.803 57.1646 147.749 57.1365 147.71 57.0923C147.671 57.0482 147.649 56.991 147.649 56.9318C147.649 56.8726 147.671 56.8155 147.71 56.7713C147.749 56.7272 147.803 56.6991 147.862 56.6924Z" fill="#2F2E41"/>
<path d="M160.207 56.9482C163.811 56.6392 175.465 47.2957 175.913 48.3956C176.362 49.4956 174.153 51.127 174.153 51.127C174.153 51.127 175.926 50.3855 175.609 51.6059C175.293 52.8264 172.865 54.8997 172.865 54.8997C172.865 54.8997 174.727 54.1149 174.383 55.3971C174.039 56.6794 170.961 58.3232 170.961 58.3232C170.961 58.3232 173.873 57.421 171.342 59.383C168.81 61.345 162.508 61.5891 159.666 60.8167C156.824 60.0442 156.597 57.2387 160.207 56.9482Z" fill="#F2668B"/>
<path opacity="0.4" d="M160.207 56.9482C163.811 56.6392 175.465 47.2957 175.913 48.3956C176.362 49.4956 174.153 51.127 174.153 51.127C174.153 51.127 175.926 50.3855 175.609 51.6059C175.293 52.8264 172.865 54.8997 172.865 54.8997C172.865 54.8997 174.727 54.1149 174.383 55.3971C174.039 56.6794 170.961 58.3232 170.961 58.3232C170.961 58.3232 173.873 57.421 171.342 59.383C168.81 61.345 162.508 61.5891 159.666 60.8167C156.824 60.0442 156.597 57.2387 160.207 56.9482Z" fill="white"/>
<path d="M178.233 47.9445C178.187 47.9443 178.143 47.9279 178.108 47.898C178.072 47.8682 178.049 47.8269 178.041 47.7813C178.033 47.7357 178.041 47.6887 178.064 47.6485C178.086 47.6083 178.123 47.5775 178.166 47.5614C178.66 47.3557 179.166 47.1782 179.681 47.0299C179.706 47.0201 179.733 47.0156 179.761 47.0168C179.788 47.018 179.815 47.0248 179.84 47.0369C179.864 47.049 179.886 47.066 179.904 47.0869C179.922 47.1079 179.935 47.1323 179.943 47.1586C179.951 47.1849 179.954 47.2126 179.95 47.24C179.947 47.2674 179.939 47.2938 179.925 47.3177C179.911 47.3415 179.893 47.3623 179.871 47.3787C179.849 47.3951 179.824 47.4068 179.797 47.4131C179.291 47.5675 178.792 47.7323 178.298 47.9074C178.277 47.9105 178.255 47.9105 178.233 47.9074V47.9445Z" fill="#F2668B"/>
<path d="M206.924 90.658C206.873 90.6469 206.829 90.6164 206.801 90.573C206.773 90.5297 206.763 90.477 206.773 90.4263C206.783 90.3744 206.812 90.3285 206.855 90.2984C206.899 90.2683 206.952 90.2566 207.003 90.2656C208.037 90.4565 209.084 90.5599 210.134 90.5746C210.183 90.5806 210.227 90.6042 210.259 90.6409C210.291 90.6776 210.309 90.7249 210.309 90.7739C210.309 90.8228 210.291 90.8701 210.259 90.9068C210.227 90.9435 210.183 90.9671 210.134 90.9732C209.057 90.9585 207.983 90.853 206.924 90.658ZM213.256 90.8125C213.214 90.8063 213.175 90.7867 213.145 90.7567C213.116 90.7266 213.096 90.6877 213.09 90.6456C213.086 90.6194 213.086 90.5926 213.092 90.5668C213.098 90.5409 213.109 90.5165 213.125 90.4949C213.14 90.4734 213.16 90.4551 213.182 90.4412C213.205 90.4273 213.23 90.418 213.256 90.4139C214.302 90.2933 215.341 90.1169 216.368 89.8855C216.394 89.8788 216.421 89.8773 216.447 89.8813C216.473 89.8852 216.498 89.8944 216.521 89.9084C216.544 89.9224 216.563 89.9408 216.578 89.9626C216.594 89.9844 216.605 90.009 216.61 90.0351C216.616 90.0612 216.616 90.0881 216.611 90.1143C216.606 90.1405 216.596 90.1654 216.581 90.1875C216.566 90.2097 216.547 90.2285 216.525 90.243C216.502 90.2575 216.477 90.2673 216.451 90.2718C215.408 90.5124 214.351 90.6898 213.287 90.8032L213.256 90.8125ZM203.922 89.7527C203.888 89.7511 203.856 89.7416 203.826 89.7249C202.833 89.2915 201.91 88.7103 201.089 88.0007C201.048 87.9655 201.023 87.9154 201.019 87.8616C201.015 87.8077 201.032 87.7544 201.067 87.7134C201.102 87.6724 201.152 87.6471 201.206 87.6431C201.259 87.639 201.312 87.6565 201.353 87.6918C202.143 88.3767 203.032 88.9372 203.989 89.3541C204.036 89.3768 204.072 89.4171 204.089 89.4663C204.106 89.5155 204.104 89.5696 204.082 89.6167C204.067 89.6516 204.042 89.6812 204.01 89.7016C203.978 89.722 203.941 89.7322 203.903 89.731L203.922 89.7527ZM219.284 89.2583C219.268 89.2083 219.272 89.154 219.295 89.1068C219.318 89.0596 219.358 89.0231 219.407 89.0049C220.405 88.6712 221.395 88.2819 222.356 87.8586C222.4 87.8432 222.448 87.8437 222.491 87.8601C222.534 87.8765 222.57 87.9077 222.593 87.9482C222.606 87.9711 222.615 87.9964 222.618 88.0227C222.622 88.0489 222.62 88.0756 222.613 88.1011C222.606 88.1267 222.594 88.1506 222.578 88.1716C222.562 88.1925 222.542 88.2101 222.519 88.2232C221.542 88.6527 220.534 89.0451 219.533 89.3819H219.471C219.432 89.3821 219.392 89.3705 219.359 89.3485C219.326 89.3265 219.3 89.2952 219.284 89.2583ZM225.309 86.8174C225.269 86.8251 225.228 86.8207 225.191 86.8047C225.154 86.7888 225.122 86.7619 225.1 86.7277C225.088 86.7053 225.08 86.6805 225.077 86.6549C225.074 86.6294 225.076 86.6035 225.083 86.5788C225.091 86.5541 225.102 86.531 225.119 86.511C225.135 86.4909 225.154 86.4743 225.177 86.462C226.099 85.9368 227.02 85.3682 227.862 84.7781C227.905 84.7482 227.958 84.7366 228.009 84.7459C228.06 84.7552 228.106 84.7845 228.136 84.8275C228.151 84.8485 228.162 84.8723 228.168 84.8976C228.174 84.9229 228.175 84.9492 228.17 84.9748C228.166 85.0004 228.157 85.0249 228.143 85.0469C228.129 85.0688 228.111 85.0877 228.09 85.1025C227.232 85.7019 226.317 86.2735 225.37 86.805C225.339 86.8142 225.306 86.8142 225.275 86.805L225.309 86.8174ZM199.227 85.6031C199.187 85.6121 199.146 85.609 199.108 85.5941C199.071 85.5792 199.038 85.5533 199.015 85.5196C198.846 85.2107 198.689 84.9017 198.545 84.5927C198.245 83.9201 198.007 83.2208 197.835 82.504C197.828 82.4786 197.826 82.4521 197.83 82.426C197.833 82.3999 197.842 82.3748 197.855 82.3521C197.868 82.3293 197.886 82.3095 197.907 82.2937C197.927 82.2778 197.951 82.2663 197.977 82.2599C198.028 82.2477 198.083 82.2564 198.128 82.2842C198.173 82.3119 198.206 82.3564 198.219 82.4082C198.383 83.1023 198.612 83.779 198.904 84.4289C199.043 84.7379 199.196 85.0469 199.359 85.3188C199.372 85.3411 199.38 85.3657 199.383 85.3911C199.386 85.4166 199.384 85.4424 199.377 85.4671C199.37 85.4918 199.359 85.5148 199.343 85.535C199.327 85.5551 199.308 85.572 199.285 85.5845C199.254 85.5937 199.221 85.5937 199.19 85.5845L199.227 85.6031ZM230.514 83.1528C230.483 83.1474 230.453 83.1344 230.428 83.115C230.403 83.0957 230.383 83.0705 230.369 83.0416C230.334 83.0033 230.315 82.9531 230.315 82.901C230.315 82.8489 230.334 82.7987 230.369 82.7604C231.158 82.0609 231.897 81.3072 232.582 80.5049C232.599 80.4865 232.621 80.4718 232.644 80.4618C232.667 80.4518 232.693 80.4467 232.718 80.4467C232.744 80.4467 232.769 80.4518 232.792 80.4618C232.816 80.4718 232.837 80.4865 232.855 80.5049C232.892 80.5424 232.912 80.5929 232.912 80.6455C232.912 80.698 232.892 80.7485 232.855 80.7861C232.158 81.6045 231.405 82.3737 230.603 83.088C230.567 83.1176 230.523 83.135 230.477 83.1374L230.514 83.1528ZM197.669 79.4451C197.616 79.4451 197.566 79.4239 197.528 79.3862C197.491 79.3486 197.47 79.2975 197.47 79.2442C197.48 78.1652 197.583 77.089 197.777 76.0277C197.787 75.9755 197.817 75.9292 197.861 75.8987C197.904 75.8682 197.958 75.8558 198.01 75.864C198.036 75.8688 198.06 75.8786 198.082 75.8929C198.103 75.9072 198.122 75.9256 198.137 75.9471C198.151 75.9686 198.161 75.9929 198.167 76.0184C198.172 76.0439 198.172 76.0702 198.167 76.0957C197.982 77.135 197.885 78.1884 197.878 79.2442C197.878 79.2702 197.873 79.2959 197.863 79.3199C197.853 79.3439 197.839 79.3657 197.821 79.3841C197.802 79.4024 197.781 79.417 197.757 79.4269C197.733 79.4369 197.707 79.442 197.682 79.442L197.669 79.4451ZM198.668 73.1419C198.618 73.1255 198.576 73.0903 198.552 73.0436C198.527 72.9969 198.521 72.9424 198.536 72.8916C198.809 71.9646 199.15 70.9605 199.553 69.8481C199.572 69.7993 199.609 69.7598 199.657 69.7379C199.704 69.7161 199.758 69.7135 199.808 69.7307C199.856 69.7506 199.894 69.7887 199.914 69.8367C199.934 69.8847 199.935 69.9388 199.915 69.9872C199.507 71.0902 199.175 72.0759 198.908 73.0059C198.895 73.0467 198.869 73.0824 198.835 73.1079C198.801 73.1334 198.76 73.1475 198.717 73.148L198.668 73.1419ZM200.819 67.1136C200.794 67.1029 200.772 67.0874 200.754 67.0681C200.735 67.0488 200.721 67.026 200.711 67.001C200.701 66.976 200.697 66.9494 200.697 66.9226C200.698 66.8958 200.703 66.8694 200.714 66.8448C201.049 66.0106 201.504 65.0496 201.989 63.9898V63.9373C202.015 63.8949 202.055 63.8634 202.102 63.8491C202.149 63.8347 202.2 63.8385 202.245 63.8596C202.29 63.8807 202.325 63.9177 202.344 63.9634C202.363 64.0091 202.365 64.0604 202.349 64.1073V64.1598C201.869 65.1949 201.408 66.1712 201.071 67.0179C201.056 67.0514 201.032 67.0799 201.001 67.0997C200.971 67.1195 200.935 67.1297 200.898 67.1291L200.819 67.1136ZM203.528 61.3264C203.504 61.3168 203.482 61.302 203.464 61.2832C203.416 61.2622 203.379 61.2231 203.36 61.1744C203.341 61.1258 203.342 61.0716 203.363 61.0236C203.836 59.9267 204.211 58.9565 204.506 58.0574C204.522 58.007 204.558 57.9652 204.605 57.941C204.652 57.9168 204.707 57.912 204.757 57.9276C204.807 57.9458 204.848 57.9829 204.87 58.031C204.892 58.0791 204.895 58.1341 204.877 58.1841C204.57 59.0894 204.198 60.072 203.722 61.1812C203.706 61.2166 203.68 61.2466 203.647 61.2675C203.614 61.2883 203.576 61.2991 203.538 61.2986L203.528 61.3264ZM205.436 55.221C205.386 55.2105 205.341 55.1811 205.311 55.1387C205.28 55.0963 205.267 55.044 205.274 54.9923C205.361 54.4425 205.405 53.8867 205.406 53.33C205.409 52.8427 205.365 52.3563 205.274 51.8778C205.27 51.8323 205.282 51.7871 205.307 51.7491C205.332 51.7112 205.369 51.6825 205.412 51.6677C205.437 51.6595 205.463 51.6564 205.489 51.6585C205.516 51.6606 205.541 51.6679 205.565 51.6799C205.588 51.692 205.609 51.7086 205.626 51.7287C205.643 51.7489 205.656 51.7723 205.664 51.7975C205.76 52.3067 205.806 52.8241 205.802 53.3424C205.802 53.9188 205.756 54.4944 205.664 55.0634C205.656 55.1098 205.633 55.1521 205.597 55.1831C205.562 55.2141 205.517 55.2318 205.47 55.2333L205.436 55.221ZM204.082 49.2206C204.048 49.2201 204.014 49.211 203.985 49.1943C203.955 49.1776 203.93 49.1537 203.913 49.1248C203.24 48.3305 202.419 47.6756 201.498 47.1967C201.452 47.1712 201.418 47.1293 201.402 47.0794C201.386 47.0295 201.389 46.9753 201.412 46.9279C201.437 46.8819 201.48 46.8478 201.531 46.8328C201.581 46.8178 201.635 46.8231 201.682 46.8476C202.649 47.3511 203.511 48.0372 204.22 48.8683C204.255 48.9066 204.275 48.9568 204.275 49.0089C204.275 49.061 204.255 49.1112 204.22 49.1495C204.184 49.1782 204.14 49.1935 204.094 49.1927L204.082 49.2206ZM182.805 46.5973C182.761 46.5963 182.719 46.5805 182.685 46.5525C182.651 46.5245 182.627 46.4859 182.617 46.4428C182.612 46.417 182.611 46.3904 182.615 46.3643C182.619 46.3382 182.629 46.3133 182.643 46.2909C182.657 46.2685 182.675 46.2491 182.697 46.2338C182.718 46.2185 182.742 46.2076 182.768 46.2018C183.822 45.9886 184.879 45.8063 185.933 45.6704C185.958 45.6669 185.984 45.6686 186.009 45.6753C186.034 45.682 186.057 45.6936 186.077 45.7094C186.097 45.7252 186.114 45.7449 186.127 45.7674C186.14 45.7899 186.148 45.8147 186.151 45.8403C186.154 45.8659 186.153 45.8919 186.146 45.9169C186.139 45.9418 186.128 45.9652 186.112 45.9856C186.096 46.006 186.077 46.0231 186.054 46.0358C186.032 46.0485 186.007 46.0566 185.982 46.0597C184.922 46.1987 183.871 46.3687 182.86 46.5911H182.802L182.805 46.5973ZM198.613 46.14C197.588 45.9079 196.548 45.7571 195.5 45.6889C195.449 45.6842 195.401 45.6591 195.367 45.6192C195.334 45.5793 195.318 45.5277 195.322 45.4757C195.327 45.4233 195.351 45.3747 195.391 45.3401C195.43 45.3056 195.482 45.2877 195.534 45.2903C196.599 45.3642 197.657 45.5191 198.699 45.7538C198.724 45.7561 198.749 45.7636 198.772 45.7757C198.795 45.7879 198.815 45.8046 198.832 45.8248C198.848 45.8449 198.86 45.8682 198.867 45.8931C198.874 45.9181 198.877 45.9442 198.874 45.9701C198.868 46.0223 198.841 46.07 198.8 46.103C198.76 46.1359 198.708 46.1514 198.656 46.1462L198.613 46.14ZM189.119 45.8001C189.072 45.7898 189.03 45.7623 189.001 45.723C188.973 45.6837 188.96 45.6352 188.965 45.5869C188.963 45.5613 188.967 45.5355 188.975 45.5113C188.984 45.487 188.997 45.4647 189.014 45.4456C189.031 45.4266 189.052 45.4112 189.075 45.4005C189.099 45.3897 189.124 45.3838 189.149 45.383C190.047 45.3181 191.15 45.2532 192.314 45.2285C192.365 45.2285 192.415 45.249 192.451 45.2855C192.487 45.322 192.508 45.3715 192.508 45.4232C192.508 45.4759 192.489 45.5269 192.452 45.565C192.416 45.6032 192.366 45.6255 192.314 45.6271C191.159 45.6487 190.065 45.7167 189.149 45.7785L189.119 45.8001Z" fill="#F2668B"/>
<path d="M234.579 78.2405C234.537 78.2412 234.497 78.2294 234.462 78.2065C234.441 78.1925 234.423 78.1745 234.409 78.1534C234.396 78.1324 234.386 78.1088 234.382 78.084C234.377 78.0593 234.377 78.0338 234.383 78.0092C234.388 77.9846 234.398 77.9613 234.413 77.9407C234.669 77.4877 234.898 77.0204 235.101 76.5411C235.123 76.4935 235.163 76.4562 235.211 76.4367C235.259 76.4172 235.314 76.4169 235.362 76.436C235.41 76.457 235.447 76.4961 235.466 76.5447C235.485 76.5934 235.484 76.6476 235.464 76.6956C235.255 77.1905 235.017 77.6724 234.751 78.1385C234.734 78.1701 234.708 78.1963 234.678 78.2143C234.647 78.2323 234.611 78.2414 234.576 78.2405H234.579Z" fill="#F2668B"/>
<path d="M56.8501 85.3905L62.3559 144.119H65.1734L59.4125 85.2607L56.8501 85.3905Z" fill="#C2C4C6"/>
<path d="M64.6636 85.3905L68.3751 143.346H70.6825L67.4779 85.2607L64.6636 85.3905Z" fill="#C2C4C6"/>
<path d="M64.2795 198.082H61.459V148.24H65.6867L64.2795 198.082Z" fill="#C2C4C6"/>
<path d="M80.287 197.822H77.4695L76.3174 148.24H80.542L80.287 197.822Z" fill="#C2C4C6"/>
<path d="M84.5114 197.951H87.3288L88.481 148.366H84.2563L84.5114 197.951Z" fill="#C2C4C6"/>
<path d="M105.899 197.952H108.716L108.845 148.756H104.618L105.899 197.952Z" fill="#C2C4C6"/>
<path d="M83.3591 142.313H60.9487V149.009H83.3591V142.313Z" fill="#2E3135"/>
<path d="M109.613 142.313H83.3594V149.009H109.613V142.313Z" fill="#3F4347"/>
<path d="M86.3057 187.391V192.671H92.3246V186.748L86.3057 187.391Z" fill="#F9B499"/>
<path d="M86.0474 197.353V192.285L92.3397 192.205L99.3726 195.938C99.5663 196.041 99.7284 196.195 99.8416 196.384C99.9547 196.573 100.015 196.789 100.015 197.01C100.014 197.329 99.888 197.635 99.6643 197.862C99.4406 198.089 99.1371 198.218 98.8195 198.221L87.0367 198.329C86.9076 198.332 86.7794 198.308 86.6595 198.26C86.5395 198.212 86.4303 198.141 86.3382 198.05C86.2461 197.959 86.1729 197.85 86.123 197.731C86.0731 197.611 86.0473 197.482 86.0474 197.353Z" fill="#F2668B"/>
<path d="M113.967 187.264V192.541H119.986V186.618L113.967 187.264Z" fill="#F9B499"/>
<path d="M113.712 197.223V192.156L120.004 192.075L127.025 195.808C127.219 195.911 127.381 196.065 127.494 196.254C127.607 196.443 127.667 196.659 127.667 196.88C127.667 197.199 127.541 197.506 127.317 197.733C127.094 197.96 126.79 198.089 126.472 198.091L114.689 198.202C114.561 198.203 114.434 198.178 114.315 198.129C114.197 198.08 114.089 198.008 113.998 197.917C113.907 197.826 113.835 197.717 113.786 197.598C113.737 197.479 113.712 197.352 113.712 197.223Z" fill="#F2668B"/>
<path d="M44.4282 198.082H46.3485L56.7211 120.806H54.6718L44.4282 198.082Z" fill="#9EA0A3"/>
<path d="M81.6937 198.082H79.7735L69.4009 120.806H71.4502L81.6937 198.082Z" fill="#9EA0A3"/>
<path d="M76.0623 163.179H49.6792V165.24H76.0623V163.179Z" fill="#9EA0A3"/>
<path d="M144.958 198.082H146.879L157.254 120.806H155.205L144.958 198.082Z" fill="#9EA0A3"/>
<path d="M182.228 198.082H180.304L169.932 120.806H171.981L182.228 198.082Z" fill="#9EA0A3"/>
<path d="M176.593 163.179H150.209V165.24H176.593V163.179Z" fill="#9EA0A3"/>
<path d="M89.8913 78.3086L90.1463 86.1629L55.824 86.9353L55.4399 79.3375L89.8913 78.3086Z" fill="#2E3135"/>
<path d="M180.946 118.231H50.4473C49.3155 118.231 48.3979 119.154 48.3979 120.292C48.3979 121.431 49.3155 122.353 50.4473 122.353H180.946C182.078 122.353 182.996 121.431 182.996 120.292C182.996 119.154 182.078 118.231 180.946 118.231Z" fill="#E1E1E2"/>
<path d="M82.7199 189.838H98.8564L101.545 154.306C101.545 154.306 101.674 149.155 101.29 146.708C101.29 146.708 107.948 151.086 109.484 151.858L109.014 187.209C109.014 187.209 119.86 189.721 124.852 188.176L126.647 149.668C126.647 149.668 127.925 140.009 120.502 133.826L106.983 122.412L71.9141 122.292C71.9141 122.292 68.2272 136.403 75.7946 144.517L83.3375 152.075C83.6336 152.371 83.865 152.727 84.0168 153.118C84.1687 153.51 84.2376 153.929 84.2193 154.349L82.7199 189.838Z" fill="#2F2E41"/>
<path opacity="0.2" d="M101.29 146.695C101.29 146.695 101.674 142.06 98.0884 136.777L91.1724 125.313C91.1724 125.313 105.739 136.978 111.497 143.466C112.84 144.981 113.572 146.946 113.549 148.975L113.054 187.907C111.694 187.752 110.345 187.513 109.014 187.19L109.484 151.858L101.29 146.695Z" fill="black"/>
<path d="M92.1309 80.1377L78.48 83.3295C78.48 83.3295 71.822 83.4592 69.7727 90.6709L66.7617 106.577L73.9973 111.793L79.9364 118.223H117.807L115.749 93.118C115.749 93.118 113.825 86.1257 100.571 83.1194L92.1309 80.1377Z" fill="#F2668B"/>
<path opacity="0.2" d="M80.6708 90.2842L80.0563 101.333L79.9487 118.222H89.3873C89.3873 118.222 83.4882 101.747 80.6708 90.2842Z" fill="black"/>
<path opacity="0.2" d="M107.17 118.222H113.097C113.097 118.222 109.358 105.223 109.229 94.9189L107.17 118.222Z" fill="black"/>
<path d="M150.704 80.8818H114.114C112.336 80.8818 110.895 82.3316 110.895 84.12V107.395C110.895 109.184 112.336 110.634 114.114 110.634H150.704C152.483 110.634 153.924 109.184 153.924 107.395V84.12C153.924 82.3316 152.483 80.8818 150.704 80.8818Z" fill="#2F2E41"/>
<path opacity="0.2" d="M150.747 80.8818H114.071C112.317 80.8818 110.895 82.3122 110.895 84.0767V107.439C110.895 109.203 112.317 110.634 114.071 110.634H150.747C152.502 110.634 153.924 109.203 153.924 107.439V84.0767C153.924 82.3122 152.502 80.8818 150.747 80.8818Z" fill="black"/>
<path d="M134.764 75.0054C134.751 75.1395 134.692 75.2648 134.598 75.3608C134.505 75.4569 134.383 75.5198 134.251 75.54L130.232 76.1178C130.232 76.1178 131.513 76.3742 131.513 77.1467C131.513 77.1467 131.768 77.6627 131 78.1787C131.148 78.4387 131.215 78.7374 131.192 79.036C131.169 79.3345 131.057 79.6193 130.871 79.8534C130.871 79.8534 131.2 80.6814 130.718 80.9101L121.651 80.8823C121.651 80.8823 124.723 75.0858 129.719 74.4431L134.021 74.335H134.156C134.24 74.3355 134.324 74.3537 134.402 74.3883C134.479 74.423 134.549 74.4734 134.606 74.5364C134.663 74.5994 134.706 74.6735 134.734 74.7543C134.761 74.835 134.771 74.9205 134.764 75.0054Z" fill="#F9B499"/>
<path d="M134.764 75.0054C134.751 75.1395 134.692 75.2648 134.598 75.3608C134.505 75.4569 134.383 75.5198 134.251 75.54L130.232 76.1178C128.874 76.0322 127.525 76.3934 126.389 77.1467C127.286 75.3453 131.255 75.3453 131.255 75.3453C133.065 75.2156 133.766 74.7583 134.021 74.335H134.156C134.241 74.3355 134.324 74.3537 134.402 74.3883C134.479 74.423 134.549 74.4734 134.606 74.5364C134.663 74.5994 134.707 74.6735 134.734 74.7543C134.761 74.835 134.771 74.9205 134.764 75.0054Z" fill="#F7A48B"/>
<path d="M130.487 78.4346L128.561 80.3657C128.561 80.3657 128.122 80.8075 126.103 80.9095" stroke="#F7A48B" stroke-miterlimit="10"/>
<path d="M100.522 78.4352V83.7806C100.522 84.891 100.083 85.9559 99.3023 86.741C98.5215 87.5262 97.4626 87.9673 96.3585 87.9673C95.2543 87.9673 94.1954 87.5262 93.4147 86.741C92.6339 85.9559 92.1953 84.891 92.1953 83.7806V75.6019L93.5472 75.0303L100.522 78.4352Z" fill="#F9B499"/>
<path d="M100.522 78.4351V82.2386C99.382 82.1861 96.3342 81.667 94.4385 77.709L100.522 78.4351Z" fill="#F7A48B"/>
<path d="M103.594 73.4137C104.867 73.4137 105.899 71.9432 105.899 70.1292C105.899 68.3152 104.867 66.8447 103.594 66.8447C102.322 66.8447 101.29 68.3152 101.29 70.1292C101.29 71.9432 102.322 73.4137 103.594 73.4137Z" fill="#F2668B"/>
<path opacity="0.2" d="M103.339 72.7586C104.259 72.7586 105.004 71.6962 105.004 70.3857C105.004 69.0751 104.259 68.0127 103.339 68.0127C102.419 68.0127 101.674 69.0751 101.674 70.3857C101.674 71.6962 102.419 72.7586 103.339 72.7586Z" fill="black"/>
<path d="M103.014 67.077C101.864 63.9787 98.4337 62.4046 95.3528 63.5612C92.272 64.7177 90.7067 68.1669 91.8568 71.2652L93.6931 76.2123C94.8431 79.3105 98.273 80.8846 101.354 79.7281C104.435 78.5715 106 75.1223 104.85 72.024L103.014 67.077Z" fill="#F9B499"/>
<path d="M89.3475 73.8713C89.3475 73.8713 86.0969 69.8916 88.4258 64.33C88.6207 63.8496 88.9575 63.4409 89.3906 63.1589C89.6707 62.9627 90.002 62.8534 90.3433 62.8446C90.6846 62.8358 91.021 62.9279 91.3108 63.1095C91.3108 63.1095 91.3108 63.0384 91.3385 62.921C91.4222 62.4454 91.5993 61.9913 91.8595 61.5853C92.1198 61.1793 92.4579 60.8296 92.8541 60.5566C93.2503 60.2836 93.6967 60.0927 94.1671 59.9952C94.6375 59.8977 95.1226 59.8955 95.5938 59.9888C97.2474 60.2878 98.9376 60.3222 100.602 60.0907C100.881 60.0533 101.157 59.9955 101.428 59.9177C102.39 59.652 105.549 59.0989 105.764 63.3536C105.764 63.3536 106.516 65.5937 103.131 67.2436L102.617 66.1499C102.344 65.6746 101.997 65.2468 101.588 64.883C101.588 64.883 98.0825 67.8616 93.7258 67.0892L93.2342 68.6341L89.3475 73.8713Z" fill="#2F2E41"/>
<path d="M91.9989 72.7588H93.8424V76.4944H91.9989C91.51 76.4944 91.0411 76.299 90.6954 75.9514C90.3497 75.6037 90.1555 75.1322 90.1555 74.6405C90.1518 74.3947 90.1968 74.1506 90.2878 73.9225C90.3788 73.6943 90.514 73.4867 90.6855 73.3116C90.8571 73.1365 91.0616 72.9974 91.287 72.9025C91.5125 72.8076 91.7545 72.7588 91.9989 72.7588Z" fill="#F9B499"/>
<path d="M91.5566 69.0331C91.5566 69.0331 90.7731 62.5445 95.5815 59.9893L96.6722 60.1777C96.6722 60.1777 92.9853 63.9226 93.8702 68.925L91.5566 69.0331Z" fill="#F2668B"/>
<path d="M92.8378 75.8609C94.253 75.8609 95.4002 74.2175 95.4002 72.1902C95.4002 70.163 94.253 68.5195 92.8378 68.5195C91.4226 68.5195 90.2754 70.163 90.2754 72.1902C90.2754 74.2175 91.4226 75.8609 92.8378 75.8609Z" fill="#3F4347"/>
<path d="M91.5566 75.3455C92.9717 75.3455 94.119 73.9331 94.119 72.1908C94.119 70.4485 92.9717 69.0361 91.5566 69.0361C90.1414 69.0361 88.9941 70.4485 88.9941 72.1908C88.9941 73.9331 90.1414 75.3455 91.5566 75.3455Z" fill="#F2668B"/>
<path opacity="0.2" d="M91.3631 74.3135C92.3184 74.3135 93.0929 73.3051 93.0929 72.0611C93.0929 70.8171 92.3184 69.8086 91.3631 69.8086C90.4078 69.8086 89.6333 70.8171 89.6333 72.0611C89.6333 73.3051 90.4078 74.3135 91.3631 74.3135Z" fill="black"/>
<path d="M75.6103 119.39C80.879 119.39 85.1502 115.124 85.1502 109.861C85.1502 104.598 80.879 100.332 75.6103 100.332C70.3415 100.332 66.0703 104.598 66.0703 109.861C66.0703 115.124 70.3415 119.39 75.6103 119.39Z" fill="#F2668B"/>
<path d="M92.3244 111.147C92.3244 111.147 70.298 123.256 67.7448 111.919C67.7448 111.919 65.5665 103.163 75.1709 103.163C75.1709 103.163 82.4711 103.033 93.1017 105.223L103.981 107.482C104.972 107.69 105.861 108.235 106.498 109.027L111.257 114.898C111.306 114.959 111.342 115.031 111.361 115.107C111.38 115.184 111.383 115.264 111.368 115.341C111.353 115.419 111.322 115.493 111.276 115.557C111.231 115.621 111.172 115.674 111.103 115.713C111.004 115.771 110.889 115.795 110.775 115.782C110.661 115.769 110.554 115.72 110.47 115.642L105.13 110.764L106.086 113.325C106.183 113.578 106.222 113.851 106.198 114.121C106.174 114.392 106.088 114.653 105.948 114.885C105.64 115.367 105.066 115.788 103.978 115.531C103.978 115.531 103.21 116.304 101.929 115.531C101.929 115.531 100.85 116.18 98.1959 116.288C98.1275 116.299 98.0575 116.286 97.9972 116.252C97.9369 116.218 97.8898 116.165 97.8635 116.1C97.8372 116.036 97.8332 115.965 97.8523 115.898C97.8714 115.831 97.9123 115.772 97.9685 115.732C98.4601 115.262 99.2343 114.678 100.009 114.756L99.2405 112.954C99.2405 112.954 94.1156 113.724 92.3244 111.147Z" fill="#F9B499"/>
<path d="M101.8 108.959C101.8 108.959 104.617 108.699 105.13 110.76" stroke="#F7A48B" stroke-miterlimit="10"/>
<path d="M100.648 109.476L102.209 110.226C102.631 110.428 102.992 110.738 103.258 111.124C103.523 111.511 103.683 111.961 103.72 112.429L103.978 115.519" stroke="#F7A48B" stroke-miterlimit="10"/>
<path d="M101.929 115.528L101.831 113.483C101.818 113.154 101.736 112.832 101.589 112.537C101.442 112.243 101.234 111.984 100.979 111.777L99.7505 110.761" stroke="#F7A48B" stroke-miterlimit="10"/>
<path d="M151.967 80.8818H117.46C115.107 80.8818 113.199 82.8005 113.199 85.1674V106.348C113.199 108.715 115.107 110.634 117.46 110.634H151.967C154.32 110.634 156.228 108.715 156.228 106.348V85.1674C156.228 82.8005 154.32 80.8818 151.967 80.8818Z" fill="#2F2E41"/>
<path d="M142.848 83.8447H142.845C142.244 83.8447 141.757 84.3344 141.757 84.9385V89.3199C141.757 89.924 142.244 90.4137 142.845 90.4137H142.848C143.449 90.4137 143.936 89.924 143.936 89.3199V84.9385C143.936 84.3344 143.449 83.8447 142.848 83.8447Z" fill="#F2668B"/>
<path d="M146.179 83.8447H146.176C145.575 83.8447 145.088 84.3344 145.088 84.9385V89.3199C145.088 89.924 145.575 90.4137 146.176 90.4137H146.179C146.779 90.4137 147.266 89.924 147.266 89.3199V84.9385C147.266 84.3344 146.779 83.8447 146.179 83.8447Z" fill="#F2668B"/>
<path d="M149.635 83.8447H149.632C149.031 83.8447 148.544 84.3344 148.544 84.9385V89.3199C148.544 89.924 149.031 90.4137 149.632 90.4137H149.635C150.236 90.4137 150.723 89.924 150.723 89.3199V84.9385C150.723 84.3344 150.236 83.8447 149.635 83.8447Z" fill="#F2668B"/>
<path d="M130.097 95.6943L134.964 116.813H120.118C120.016 116.813 119.915 116.833 119.821 116.872C119.727 116.911 119.642 116.968 119.57 117.04C119.498 117.113 119.441 117.199 119.402 117.293C119.363 117.388 119.343 117.489 119.344 117.592C119.344 117.797 119.425 117.995 119.57 118.14C119.714 118.286 119.91 118.367 120.115 118.367H141.773C142.051 118.369 142.327 118.307 142.579 118.188C142.832 118.068 143.054 117.893 143.231 117.676C143.407 117.459 143.534 117.206 143.6 116.933C143.667 116.661 143.672 116.377 143.616 116.103L139.468 95.821L130.097 95.6943Z" fill="#F2668B"/>
<path opacity="0.2" d="M130.103 95.6943L129.999 110.584L133.495 110.689L130.103 95.6943Z" fill="black"/>
<path d="M34.0157 159.382C30.7835 152.704 25.1056 149.275 18.7579 151.166C12.4102 153.057 11.3994 161.999 16.1771 164.254C20.9547 166.51 25.7016 159.928 28.2026 158.569C30.7036 157.209 34.0157 159.382 34.0157 159.382Z" fill="#F2668B"/>
<path d="M37.1433 177.194C37.1433 176.388 37.0911 175.582 37.0634 174.775C37.0081 173.168 36.9508 171.563 36.8914 169.958C36.7869 167.017 36.4705 164.134 35.263 161.421C34.1901 158.967 32.4034 156.898 30.1382 155.485C29.2971 154.974 28.3906 154.58 27.4436 154.314C26.5866 153.439 25.4943 152.835 24.3005 152.575C22.8248 152.27 21.3072 152.231 19.8178 152.457C19.7594 152.457 19.7656 152.553 19.8178 152.541C21.2365 152.359 22.6771 152.464 24.0547 152.85C24.6459 153.01 25.2185 153.233 25.763 153.514C26.1067 153.695 26.4364 153.902 26.7492 154.132C25.4632 153.862 24.1341 153.874 22.8534 154.169C22.3911 154.28 21.9389 154.43 21.5015 154.617C21.1549 154.539 20.7995 154.507 20.4446 154.521C19.979 154.539 19.5165 154.606 19.0651 154.722C18.142 154.981 17.2598 155.369 16.4443 155.875C16.3951 155.875 16.4443 155.971 16.4904 155.943C17.2919 155.495 18.1511 155.16 19.0436 154.948C19.4777 154.852 19.9182 154.788 20.3616 154.756C20.6042 154.744 20.8472 154.744 21.0898 154.756C19.2753 155.598 17.8165 157.06 16.9727 158.881C16.9727 158.931 17.0219 158.977 17.0465 158.924C17.552 157.87 18.2861 156.942 19.1947 156.21C20.1033 155.478 21.1635 154.96 22.2973 154.694C22.4417 154.664 22.5861 154.645 22.7274 154.617C22.6936 154.83 22.6721 155.047 22.6598 155.26C22.6137 155.584 22.5584 155.909 22.497 156.23C22.3651 156.892 22.1927 157.545 21.9808 158.186C21.7571 158.834 21.4913 159.467 21.185 160.08C20.8983 160.735 20.5353 161.353 20.1035 161.922C20.0936 161.928 20.0865 161.938 20.0836 161.949C20.0808 161.961 20.0824 161.973 20.0882 161.983C20.0969 161.99 20.1077 161.994 20.1189 161.994C20.1301 161.994 20.1409 161.99 20.1496 161.983C20.1583 161.977 20.1647 161.969 20.1681 161.959C20.5521 161.341 20.9976 160.8 21.3479 160.173C21.6828 159.578 21.9714 158.958 22.2112 158.319C22.452 157.668 22.638 156.998 22.7674 156.317C22.8409 155.958 22.8963 155.596 22.9333 155.232C22.9793 155.013 22.9948 154.788 22.9794 154.565C23.7272 154.453 24.4861 154.438 25.2376 154.521C24.9549 156.116 24.6538 157.778 23.7628 159.156C23.7352 159.199 23.8151 159.246 23.8427 159.196C24.2636 158.463 24.6352 157.702 24.9549 156.919C25.2497 156.158 25.4369 155.359 25.5111 154.546C26.8251 154.725 28.0937 155.151 29.2502 155.804C31.428 157.08 33.1675 158.993 34.2368 161.288C35.3537 163.753 35.9799 166.414 36.0803 169.121C36.2923 172.52 36.3353 175.971 36.6763 179.373C36.6763 179.595 37.0481 179.682 37.088 179.416C37.1704 178.679 37.1889 177.935 37.1433 177.194Z" fill="#2F2E41"/>
<path d="M29.6745 154.911C29.4591 154.658 29.2123 154.433 28.9402 154.243C28.6729 154.027 28.384 153.814 28.1167 153.625C27.5542 153.238 26.931 152.949 26.2733 152.77C26.218 152.77 26.1934 152.844 26.2733 152.853C26.9311 153.021 27.5466 153.327 28.0799 153.749C28.3543 153.943 28.616 154.155 28.8633 154.382C29.0875 154.614 29.3357 154.822 29.6038 155C29.6468 155.016 29.7083 154.948 29.6745 154.911Z" fill="#2F2E41"/>
<path d="M19.3664 157.334C18.8312 157.951 18.3346 158.601 17.8793 159.28C17.4366 159.974 17.064 160.711 16.7671 161.48C16.7671 161.48 16.7947 161.511 16.807 161.48C17.547 160.026 18.4203 158.645 19.4155 157.355C19.4616 157.349 19.4002 157.287 19.3664 157.334Z" fill="#2F2E41"/>
<path d="M26.316 156.672C26.2465 157.088 26.1225 157.492 25.9473 157.874C25.7697 158.254 25.5622 158.619 25.3267 158.965C25.3267 158.965 25.3267 159.011 25.3605 158.965C25.9213 158.321 26.2795 157.524 26.3897 156.676C26.4051 156.639 26.3191 156.617 26.316 156.672Z" fill="#2F2E41"/>
<path d="M36.6948 159.543C36.6948 159.543 41.2697 153.762 50.1214 155.81C58.5092 157.763 62.362 173.234 53.9036 175.088C45.4451 176.942 46.8923 162.636 43.8045 160.186C41.537 158.406 38.271 158.789 36.6948 159.543Z" fill="#F2668B"/>
<path d="M56.9116 164.264C56.3366 163.757 55.729 163.288 55.0927 162.861C54.4935 162.45 53.8412 162.122 53.154 161.888C52.8097 161.363 52.4255 160.865 52.0049 160.399C51.2243 159.557 50.3234 158.836 49.3319 158.261H49.5992C50.069 158.236 50.5397 158.236 51.0095 158.261C51.9497 158.319 52.8712 158.551 53.7286 158.943C53.7777 158.943 53.8177 158.888 53.7685 158.866C52.8953 158.487 51.982 158.209 51.0463 158.038C50.5909 157.957 50.1292 157.918 49.6668 157.921C49.4192 157.914 49.1714 157.928 48.9263 157.964H48.7819C47.9694 157.557 47.1126 157.245 46.2287 157.037C46.3125 157.022 46.3947 156.999 46.4745 156.969C46.9053 156.871 47.3413 156.798 47.7803 156.75C48.6591 156.649 49.5472 156.662 50.4226 156.79C50.481 156.79 50.4902 156.716 50.4226 156.713C49.5372 156.602 48.6443 156.564 47.7527 156.598C47.0032 156.62 46.2579 156.719 45.5282 156.892C44.9954 156.793 44.4564 156.731 43.9152 156.706C40.8427 156.57 37.4815 157.729 35.5673 160.275C33.6532 162.821 33.303 166.217 32.9711 169.294C32.4695 173.583 32.3728 177.909 32.6823 182.216C32.6823 182.466 33.0541 182.423 33.0633 182.182C33.1801 178.533 33.3091 174.908 33.6532 171.247C33.816 169.569 33.9943 167.892 34.2677 166.211C34.4741 164.775 34.8882 163.377 35.4967 162.061C36.1503 160.714 37.1864 159.593 38.4739 158.838C39.7663 158.091 41.2087 157.643 42.6954 157.528C44.0281 157.42 45.3694 157.547 46.6589 157.902C46.6189 158.164 46.6189 158.431 46.6589 158.693C46.6865 159.022 46.7515 159.346 46.8524 159.66C46.9479 159.959 47.0713 160.247 47.2211 160.522C47.3809 160.831 47.5868 161.082 47.7772 161.387C47.7772 161.434 47.8756 161.387 47.8418 161.338C47.4751 160.816 47.2351 160.215 47.1412 159.583C47.0884 159.286 47.0525 158.985 47.0337 158.684V157.995C48.4351 158.429 49.7431 159.124 50.8896 160.043C51.104 160.219 51.3091 160.406 51.5041 160.603C51.212 160.875 50.9587 161.187 50.7514 161.53C50.4493 161.975 50.1871 162.447 49.9679 162.939C49.5555 163.913 49.2735 164.939 49.1291 165.988C49.1291 166.044 49.1998 166.062 49.2059 165.988C49.369 164.961 49.7101 163.971 50.2137 163.062C50.4469 162.613 50.7086 162.18 50.9972 161.764C51.1416 161.551 51.3044 161.338 51.458 161.131C51.5441 161.026 51.6362 160.915 51.7223 160.791C52.7619 161.812 53.6092 163.014 54.2232 164.338C53.8058 164.782 53.4577 165.288 53.1909 165.837C52.8744 166.407 52.5992 167 52.3675 167.61C51.94 168.794 51.587 170.003 51.3106 171.232C51.3065 171.242 51.3069 171.254 51.3115 171.264C51.3161 171.275 51.3246 171.283 51.3351 171.287C51.3462 171.291 51.3584 171.291 51.3692 171.287C51.3801 171.282 51.3888 171.273 51.3935 171.262C51.3966 171.252 51.3966 171.242 51.3935 171.232C51.6705 169.996 52.0998 168.8 52.6716 167.672C52.9389 167.113 53.2278 166.554 53.5135 166.028C53.8175 165.529 54.0934 165.014 54.34 164.483C54.9263 165.78 55.268 167.174 55.3477 168.596C55.3477 168.655 55.4368 168.649 55.4307 168.596C55.267 166.367 54.5896 164.207 53.452 162.287C53.9959 162.505 54.5281 162.751 55.0466 163.025C55.7125 163.376 56.3319 163.81 56.8901 164.317C56.8993 164.366 56.9546 164.317 56.9116 164.264Z" fill="#2F2E41"/>
<path d="M50.4349 164.588C50.1737 165.469 49.8388 166.318 49.5992 167.202C49.356 168.052 49.2248 168.931 49.209 169.816H49.2489C49.4915 168.044 49.9178 166.302 50.5209 164.619C50.5229 164.613 50.5238 164.607 50.5235 164.601C50.5232 164.595 50.5218 164.589 50.5192 164.584C50.5166 164.578 50.513 164.574 50.5086 164.569C50.5041 164.565 50.4989 164.562 50.4933 164.56C50.4876 164.558 50.4816 164.557 50.4756 164.558C50.4696 164.558 50.4638 164.559 50.4584 164.562C50.4529 164.565 50.4481 164.568 50.444 164.573C50.44 164.577 50.4369 164.582 50.4349 164.588Z" fill="#2F2E41"/>
<path d="M56.0329 162.419C55.6829 162.083 55.2866 161.8 54.8561 161.579C54.4209 161.377 53.9684 161.216 53.5042 161.097C53.4551 161.097 53.4397 161.165 53.5042 161.177C53.9672 161.306 54.4106 161.497 54.8223 161.746C55.2386 161.961 55.6382 162.208 56.0175 162.484C56.0175 162.484 56.0513 162.441 56.0329 162.419Z" fill="#2F2E41"/>
<path d="M41.0361 151.821C41.0361 151.821 41.8841 141.437 49.5622 138.075C55.9713 135.275 59.6429 142.506 55.1233 146.943C51.4425 150.53 45.5618 148.911 41.0361 151.821Z" fill="#F2668B"/>
<path d="M53.6888 140.083C52.5197 140.559 51.379 141.103 50.2723 141.711C49.3529 142.243 48.4683 142.833 47.6238 143.478C47.7529 143.216 47.8635 142.919 47.9925 142.684C48.1897 142.282 48.4071 141.89 48.6439 141.51C49.1093 140.723 49.6697 139.997 50.3122 139.347C50.3522 139.316 50.3122 139.255 50.2508 139.292C49.605 139.938 49.0102 140.635 48.4718 141.374C48.2077 141.752 47.9636 142.144 47.7406 142.548C47.5156 142.923 47.342 143.326 47.2244 143.747L47.1415 143.809C45.8009 144.885 44.5719 146.094 43.473 147.418C43.4804 147.312 43.5032 147.208 43.5405 147.109C43.685 146.599 43.8478 146.102 44.0076 145.598C44.337 144.533 44.8028 143.515 45.3932 142.57C45.3959 142.565 45.3977 142.56 45.3984 142.555C45.3991 142.55 45.3987 142.544 45.3973 142.539C45.3958 142.534 45.3934 142.529 45.39 142.525C45.3867 142.521 45.3826 142.517 45.3779 142.514C45.3733 142.512 45.3681 142.51 45.3628 142.509C45.3575 142.509 45.3521 142.509 45.347 142.51C45.3418 142.512 45.337 142.514 45.3328 142.518C45.3286 142.521 45.3251 142.525 45.3226 142.53C44.7172 143.476 44.1792 144.464 43.7126 145.487C43.4908 145.988 43.3049 146.504 43.1565 147.032C43.0458 147.372 42.9626 147.72 42.9076 148.073C42.5727 148.496 42.2378 148.929 41.9337 149.374C38.6339 154.092 36.9809 159.799 36.5876 165.512C36.4673 167.214 36.4375 168.921 36.4985 170.626C36.5112 172.348 36.6612 174.066 36.9471 175.764C36.9515 175.776 36.9582 175.786 36.9668 175.796C36.9754 175.805 36.9857 175.812 36.9971 175.817C37.0085 175.822 37.0208 175.825 37.0333 175.826C37.0458 175.826 37.0583 175.824 37.07 175.819C37.0869 175.813 37.1016 175.801 37.1125 175.787C37.1233 175.772 37.1299 175.754 37.1314 175.736C37.0976 174.234 36.9409 172.736 36.9133 171.259C36.8846 169.754 36.9328 168.248 37.0577 166.748C37.2998 163.752 37.8601 160.79 38.7291 157.914C39.6175 154.969 40.929 152.17 42.6219 149.606C42.9445 149.538 43.2671 149.448 43.5866 149.371L44.7357 149.062C45.4765 148.87 46.1968 148.606 46.8864 148.274C46.9356 148.274 46.8864 148.172 46.8404 148.2C46.1655 148.575 45.4319 148.831 44.6712 148.957C44.0721 149.074 43.4422 149.151 42.8462 149.29C43.4033 148.466 43.9983 147.68 44.6313 146.93C46.0903 147.065 47.5616 146.955 48.9849 146.605C49.7402 146.419 50.4831 146.186 51.2094 145.907C51.9775 145.598 52.7057 145.224 53.4645 144.906C53.5198 144.906 53.4645 144.798 53.4307 144.826C52.0505 145.585 50.5437 146.083 48.9849 146.296C47.6161 146.516 46.2325 146.63 44.8463 146.636C45.4024 146.018 45.9586 145.4 46.5546 144.819C48.5586 142.79 50.9669 141.211 53.6212 140.185C53.7687 140.145 53.738 140.061 53.6888 140.083Z" fill="#2F2E41"/>
<path d="M47.4483 140.116C47.1016 140.553 46.7873 141.014 46.5081 141.497C46.2198 142.007 45.9919 142.548 45.8291 143.11H45.8598C46.1179 142.601 46.333 142.072 46.5911 141.565C46.8474 141.065 47.1564 140.594 47.5128 140.16C47.5343 140.132 47.4729 140.07 47.4483 140.116Z" fill="#2F2E41"/>
<path d="M54.5675 143.574C54.0685 143.85 53.541 144.071 52.9944 144.232C52.469 144.409 51.9334 144.553 51.3906 144.665V144.708C51.9593 144.65 52.5198 144.528 53.062 144.347C53.5871 144.143 54.1001 143.909 54.5983 143.645C54.6751 143.611 54.629 143.546 54.5675 143.574Z" fill="#2F2E41"/>
<path d="M35.094 149.952C35.051 150.406 33.9326 146.183 27.4436 142.438C21.5199 139.039 14.5086 130.184 20.2602 124.588C24.9304 120.114 37.2201 129.921 35.094 149.952Z" fill="#F2668B"/>
<path d="M39.546 174.145C39.4535 169.753 39.1099 165.371 38.5168 161.019C38.0033 157.021 37.084 153.087 35.7731 149.278C35.2907 147.903 34.7377 146.553 34.1447 145.221C34.1845 144.707 34.1845 144.19 34.1447 143.676C34.1109 143.009 34.0494 142.344 33.988 141.683C33.9265 141.022 33.8651 140.358 33.7821 139.696C33.6992 139.035 33.564 138.377 33.5363 137.716C33.5364 137.706 33.5326 137.696 33.5257 137.688C33.5189 137.681 33.5095 137.676 33.4995 137.676C33.4889 137.676 33.4787 137.68 33.4712 137.687C33.4637 137.695 33.4595 137.705 33.4595 137.716C33.5888 138.41 33.6648 139.114 33.6869 139.82C33.736 140.46 33.776 141.102 33.7913 141.745C33.8067 142.388 33.7913 143.027 33.7913 143.67V144.396C33.1769 143.098 32.5193 141.825 31.8188 140.577C32.2582 137.867 31.6836 135.043 31.1398 132.395C31.1398 132.34 31.0446 132.395 31.0569 132.395C31.3215 133.774 31.4603 135.174 31.4716 136.579C31.4716 137.697 31.4716 138.819 31.4378 139.937C31.2812 139.669 31.1306 139.406 30.9708 139.143C30.129 137.755 29.2298 136.403 28.2732 135.086C28.3497 134.445 28.329 133.796 28.2118 133.161C28.1033 132.448 27.9452 131.743 27.7386 131.051C27.5338 130.361 27.2941 129.682 27.0197 129.015C26.7432 128.326 26.3652 127.677 26.0979 126.988C26.0933 126.979 26.0853 126.972 26.0755 126.968C26.0658 126.965 26.0551 126.965 26.0457 126.969C26.0409 126.971 26.0365 126.974 26.0328 126.978C26.0291 126.982 26.0261 126.986 26.0241 126.991C26.0221 126.996 26.0211 127.001 26.0211 127.007C26.0211 127.012 26.0222 127.017 26.0242 127.022C26.3533 127.673 26.6128 128.358 26.7985 129.064C27.013 129.731 27.1895 130.41 27.3269 131.097C27.4662 131.783 27.5809 132.473 27.671 133.168C27.7386 133.625 27.7786 134.095 27.8554 134.564C26.4665 132.686 24.9481 130.908 23.3112 129.244C23.2713 129.203 23.216 129.244 23.2529 129.305C25.7255 132.11 27.9348 135.138 29.8525 138.352L30.0645 138.717C29.7019 138.494 29.2964 138.315 28.9522 138.124L27.0596 137.076C26.4451 136.749 25.8306 136.406 25.2161 136.066C24.9089 135.89 24.6017 135.707 24.2698 135.544C23.8828 135.369 23.5107 135.162 23.1576 134.926C23.1115 134.892 23.0562 134.966 23.1115 134.994C23.726 135.34 24.2852 135.856 24.8935 136.23C25.5019 136.603 26.1225 136.996 26.737 137.348C27.8892 137.997 29.1397 138.467 30.2795 139.131C31.0661 140.515 31.7943 141.93 32.461 143.389C31.7727 142.948 31.0702 142.525 30.3533 142.119C29.8955 141.862 29.4315 141.606 28.9676 141.359C28.5038 141.143 28.0649 140.877 27.6587 140.565C27.6157 140.531 27.5604 140.565 27.5973 140.626C28.3555 141.309 29.1945 141.896 30.0952 142.372C30.9309 142.863 31.7666 143.333 32.6392 143.766C33.3547 145.296 33.9905 146.862 34.5441 148.459C37.2755 156.236 38.2771 164.501 38.7564 172.702C38.9008 175.149 38.9746 177.593 39.0053 180.043C39.036 182.493 38.907 184.928 38.9131 187.375C38.9163 187.39 38.9243 187.402 38.9357 187.412C38.9472 187.421 38.9614 187.426 38.9761 187.426C38.9908 187.426 39.005 187.421 39.0165 187.412C39.0279 187.402 39.0359 187.39 39.0391 187.375C39.3463 185.212 39.3863 182.997 39.4784 180.816C39.5706 178.634 39.586 176.366 39.546 174.145Z" fill="#2F2E41"/>
<path d="M27.7389 138.918C26.5539 138.392 25.4026 137.793 24.2916 137.123C23.1663 136.486 22.076 135.789 21.0256 135.034C21.0256 135.034 20.9856 135.034 21.0256 135.062C22.0184 135.884 23.0688 136.632 24.1687 137.302C25.3199 137.945 26.5091 138.517 27.7296 139.014C27.7511 139.014 27.7849 138.94 27.7389 138.918Z" fill="#2F2E41"/>
<path d="M29.6284 130.122C29.5301 129.742 29.4133 129.374 29.2843 129.003C29.2888 128.998 29.2913 128.991 29.2913 128.985C29.2913 128.978 29.2888 128.971 29.2843 128.966C29.2013 128.753 29.1184 128.546 29.0293 128.348C29.0324 128.321 29.0324 128.294 29.0293 128.268L28.9771 128.15L29.0446 128.364C29.0526 128.406 29.0639 128.447 29.0784 128.487C29.5075 129.938 29.8289 131.419 30.0401 132.918C30.0401 132.929 30.0443 132.939 30.0518 132.946C30.0593 132.954 30.0695 132.958 30.0801 132.958C30.0852 132.958 30.0902 132.957 30.0949 132.955C30.0996 132.953 30.1038 132.95 30.1073 132.946C30.1107 132.942 30.1134 132.938 30.1151 132.933C30.1167 132.928 30.1174 132.923 30.1169 132.918C30.0426 131.972 29.879 131.036 29.6284 130.122Z" fill="#2F2E41"/>
<path d="M46.3947 175.724L45.9338 181.248L44.5144 198.088H29.3242L27.9078 181.248L27.4438 175.724H46.3947Z" fill="#2F2E41"/>
<path opacity="0.2" d="M46.3947 175.724L45.9338 181.248H27.9078L27.4438 175.724H46.3947Z" fill="black"/>
<path d="M47.8847 173.509H25.9536V178.808H47.8847V173.509Z" fill="#2F2E41"/>
<path d="M82.8491 50.9727H72.1232C71.2628 50.9727 70.5654 51.674 70.5654 52.5392V57.1523C70.5654 58.0174 71.2628 58.7188 72.1232 58.7188H82.8491C83.7094 58.7188 84.4068 58.0174 84.4068 57.1523V52.5392C84.4068 51.674 83.7094 50.9727 82.8491 50.9727Z" fill="#F2668B"/>
<path d="M78.7168 58.1316L83.9307 62.2534L80.6985 57.835L78.7168 58.1316Z" fill="#F2668B"/>
<path d="M80.5784 54.838C80.5784 54.7783 80.5901 54.7193 80.6128 54.6642C80.6355 54.6091 80.6688 54.559 80.7107 54.5168C80.7526 54.4746 80.8024 54.4412 80.8572 54.4184C80.912 54.3955 80.9708 54.3838 81.0301 54.3838C81.12 54.3844 81.2077 54.4118 81.2822 54.4626C81.3566 54.5133 81.4144 54.5851 81.4483 54.6689C81.4821 54.7527 81.4905 54.8447 81.4724 54.9333C81.4542 55.0219 81.4104 55.1031 81.3463 55.1666C81.2823 55.2301 81.201 55.2731 81.1127 55.2902C81.0244 55.3072 80.933 55.2975 80.8501 55.2624C80.7673 55.2272 80.6967 55.1681 80.6472 55.0926C80.5977 55.017 80.5717 54.9284 80.5723 54.838H80.5784Z" fill="white"/>
<path d="M78.2161 54.838C78.2161 54.7175 78.2637 54.602 78.3484 54.5168C78.4331 54.4316 78.548 54.3838 78.6678 54.3838C78.7577 54.3844 78.8454 54.4118 78.9199 54.4626C78.9943 54.5133 79.0521 54.5851 79.086 54.6689C79.1198 54.7527 79.1282 54.8447 79.1101 54.9333C79.0919 55.0219 79.0481 55.1031 78.984 55.1666C78.92 55.2301 78.8387 55.2731 78.7504 55.2902C78.6621 55.3072 78.5707 55.2975 78.4878 55.2624C78.405 55.2272 78.3344 55.1681 78.2849 55.0926C78.2354 55.017 78.2094 54.9284 78.21 54.838H78.2161Z" fill="white"/>
<path d="M75.8533 54.838C75.8533 54.7175 75.9009 54.602 75.9856 54.5168C76.0703 54.4316 76.1852 54.3838 76.305 54.3838C76.3949 54.3844 76.4826 54.4118 76.5571 54.4626C76.6315 54.5133 76.6893 54.5851 76.7232 54.6689C76.757 54.7527 76.7654 54.8447 76.7473 54.9333C76.7291 55.0219 76.6853 55.1031 76.6212 55.1666C76.5572 55.2301 76.4759 55.2731 76.3876 55.2902C76.2993 55.3072 76.2079 55.2975 76.125 55.2624C76.0422 55.2272 75.9716 55.1681 75.9221 55.0926C75.8726 55.017 75.8466 54.9284 75.8472 54.838H75.8533Z" fill="white"/>
<path d="M73.4905 54.838C73.4905 54.7175 73.5381 54.602 73.6228 54.5168C73.7075 54.4316 73.8224 54.3838 73.9422 54.3838C74.0321 54.3844 74.1198 54.4118 74.1943 54.4626C74.2687 54.5133 74.3265 54.5851 74.3604 54.6689C74.3942 54.7527 74.4026 54.8447 74.3845 54.9333C74.3663 55.0219 74.3225 55.1031 74.2585 55.1666C74.1944 55.2301 74.1131 55.2731 74.0248 55.2902C73.9365 55.3072 73.8451 55.2975 73.7622 55.2624C73.6794 55.2272 73.6088 55.1681 73.5593 55.0926C73.5099 55.017 73.4838 54.9284 73.4844 54.838H73.4905Z" fill="white"/>
</svg>
